ISO-10303-21;
HEADER;
/* Generated by software containing ST-Developer
 * from STEP Tools, Inc. (www.steptools.com) 
 */
/* OPTION: using custom renumber hook */

FILE_DESCRIPTION(
/* description */ ('STEP AP242 Edition 2',
'CAx-IF Rec.Pracs.---Representation and Presentation of Product Manufa
cturing Information (PMI)---4.0---2014-10-13',
'CAx-IF Rec.Pracs.---3D Tessellated Geometry---0.4---2014-09-14','2;1',
'CAx-IF Rec.Pracs.---User Defined Attributes---1.5---2016-08-15'),
/* implementation_level */ '2;1');

FILE_NAME(
/* name */ 'Battery Slot Cover',
/* time_stamp */ '2026-09-29T01:33:44Z',
/* author */ (''),
/* organization */ (''),
/* preprocessor_version */ 'ST-DEVELOPER v20',
/* originating_system */ 'ONSHAPE BY PTC INC, 1.221',
/* authorisation */ '  ');

FILE_SCHEMA (('AP242_MANAGED_MODEL_BASED_3D_ENGINEERING_MIM_LF { 1 0 10303 442 3 1 4 }'));
ENDSEC;

DATA;
#10=SHAPE_REPRESENTATION_RELATIONSHIP('','',#362,#11);
#11=ADVANCED_BREP_SHAPE_REPRESENTATION('',(#360),#605);
#12=ELLIPSE('',#389,0.00424264068711928,0.003);
#13=ELLIPSE('',#393,0.00424264068711929,0.003);
#14=CYLINDRICAL_SURFACE('',#372,0.0015);
#15=CYLINDRICAL_SURFACE('',#375,0.0015);
#16=CYLINDRICAL_SURFACE('',#378,0.0015);
#17=CYLINDRICAL_SURFACE('',#384,0.003);
#18=CYLINDRICAL_SURFACE('',#387,0.003);
#19=CYLINDRICAL_SURFACE('',#391,0.003);
#20=CIRCLE('',#365,0.003);
#21=CIRCLE('',#366,0.003);
#22=CIRCLE('',#367,0.003);
#23=CIRCLE('',#369,0.003);
#24=CIRCLE('',#371,0.003);
#25=CIRCLE('',#373,0.0015);
#26=CIRCLE('',#374,0.0015);
#27=CIRCLE('',#376,0.0015);
#28=CIRCLE('',#377,0.0015);
#29=CIRCLE('',#379,0.0015);
#30=CIRCLE('',#380,0.0015);
#31=CIRCLE('',#382,0.003);
#32=CIRCLE('',#385,0.003);
#33=CIRCLE('',#388,0.003);
#34=CIRCLE('',#392,0.003);
#35=ORIENTED_EDGE('',*,*,#121,.T.);
#36=ORIENTED_EDGE('',*,*,#122,.T.);
#37=ORIENTED_EDGE('',*,*,#123,.F.);
#38=ORIENTED_EDGE('',*,*,#124,.T.);
#39=ORIENTED_EDGE('',*,*,#125,.F.);
#40=ORIENTED_EDGE('',*,*,#126,.T.);
#41=ORIENTED_EDGE('',*,*,#127,.F.);
#42=ORIENTED_EDGE('',*,*,#128,.T.);
#43=ORIENTED_EDGE('',*,*,#129,.T.);
#44=ORIENTED_EDGE('',*,*,#130,.F.);
#45=ORIENTED_EDGE('',*,*,#131,.F.);
#46=ORIENTED_EDGE('',*,*,#132,.T.);
#47=ORIENTED_EDGE('',*,*,#133,.T.);
#48=ORIENTED_EDGE('',*,*,#134,.F.);
#49=ORIENTED_EDGE('',*,*,#135,.T.);
#50=ORIENTED_EDGE('',*,*,#136,.F.);
#51=ORIENTED_EDGE('',*,*,#137,.T.);
#52=ORIENTED_EDGE('',*,*,#138,.F.);
#53=ORIENTED_EDGE('',*,*,#139,.T.);
#54=ORIENTED_EDGE('',*,*,#140,.T.);
#55=ORIENTED_EDGE('',*,*,#141,.T.);
#56=ORIENTED_EDGE('',*,*,#142,.F.);
#57=ORIENTED_EDGE('',*,*,#138,.T.);
#58=ORIENTED_EDGE('',*,*,#136,.T.);
#59=ORIENTED_EDGE('',*,*,#134,.T.);
#60=ORIENTED_EDGE('',*,*,#143,.T.);
#61=ORIENTED_EDGE('',*,*,#144,.T.);
#62=ORIENTED_EDGE('',*,*,#145,.F.);
#63=ORIENTED_EDGE('',*,*,#146,.T.);
#64=ORIENTED_EDGE('',*,*,#147,.F.);
#65=ORIENTED_EDGE('',*,*,#148,.T.);
#66=ORIENTED_EDGE('',*,*,#149,.T.);
#67=ORIENTED_EDGE('',*,*,#150,.T.);
#68=ORIENTED_EDGE('',*,*,#151,.F.);
#69=ORIENTED_EDGE('',*,*,#142,.T.);
#70=ORIENTED_EDGE('',*,*,#125,.T.);
#71=ORIENTED_EDGE('',*,*,#135,.F.);
#72=ORIENTED_EDGE('',*,*,#151,.T.);
#73=ORIENTED_EDGE('',*,*,#152,.F.);
#74=ORIENTED_EDGE('',*,*,#130,.T.);
#75=ORIENTED_EDGE('',*,*,#153,.T.);
#76=ORIENTED_EDGE('',*,*,#127,.T.);
#77=ORIENTED_EDGE('',*,*,#137,.F.);
#78=ORIENTED_EDGE('',*,*,#152,.T.);
#79=ORIENTED_EDGE('',*,*,#154,.F.);
#80=ORIENTED_EDGE('',*,*,#123,.T.);
#81=ORIENTED_EDGE('',*,*,#155,.T.);
#82=ORIENTED_EDGE('',*,*,#131,.T.);
#83=ORIENTED_EDGE('',*,*,#139,.F.);
#84=ORIENTED_EDGE('',*,*,#154,.T.);
#85=ORIENTED_EDGE('',*,*,#156,.F.);
#86=ORIENTED_EDGE('',*,*,#147,.T.);
#87=ORIENTED_EDGE('',*,*,#157,.F.);
#88=ORIENTED_EDGE('',*,*,#128,.F.);
#89=ORIENTED_EDGE('',*,*,#126,.F.);
#90=ORIENTED_EDGE('',*,*,#141,.F.);
#91=ORIENTED_EDGE('',*,*,#148,.F.);
#92=ORIENTED_EDGE('',*,*,#156,.T.);
#93=ORIENTED_EDGE('',*,*,#158,.F.);
#94=ORIENTED_EDGE('',*,*,#157,.T.);
#95=ORIENTED_EDGE('',*,*,#146,.F.);
#96=ORIENTED_EDGE('',*,*,#159,.F.);
#97=ORIENTED_EDGE('',*,*,#124,.F.);
#98=ORIENTED_EDGE('',*,*,#133,.F.);
#99=ORIENTED_EDGE('',*,*,#160,.F.);
#100=ORIENTED_EDGE('',*,*,#149,.F.);
#101=ORIENTED_EDGE('',*,*,#158,.T.);
#102=ORIENTED_EDGE('',*,*,#140,.F.);
#103=ORIENTED_EDGE('',*,*,#159,.T.);
#104=ORIENTED_EDGE('',*,*,#145,.T.);
#105=ORIENTED_EDGE('',*,*,#161,.F.);
#106=ORIENTED_EDGE('',*,*,#121,.F.);
#107=ORIENTED_EDGE('',*,*,#153,.F.);
#108=ORIENTED_EDGE('',*,*,#129,.F.);
#109=ORIENTED_EDGE('',*,*,#150,.F.);
#110=ORIENTED_EDGE('',*,*,#160,.T.);
#111=ORIENTED_EDGE('',*,*,#162,.F.);
#112=ORIENTED_EDGE('',*,*,#161,.T.);
#113=ORIENTED_EDGE('',*,*,#144,.F.);
#114=ORIENTED_EDGE('',*,*,#163,.F.);
#115=ORIENTED_EDGE('',*,*,#155,.F.);
#116=ORIENTED_EDGE('',*,*,#122,.F.);
#117=ORIENTED_EDGE('',*,*,#163,.T.);
#118=ORIENTED_EDGE('',*,*,#143,.F.);
#119=ORIENTED_EDGE('',*,*,#162,.T.);
#120=ORIENTED_EDGE('',*,*,#132,.F.);
#121=EDGE_CURVE('',#164,#165,#193,.T.);
#122=EDGE_CURVE('',#165,#166,#194,.T.);
#123=EDGE_CURVE('',#167,#166,#20,.T.);
#124=EDGE_CURVE('',#167,#168,#195,.T.);
#125=EDGE_CURVE('',#169,#168,#21,.T.);
#126=EDGE_CURVE('',#169,#170,#196,.T.);
#127=EDGE_CURVE('',#164,#170,#22,.T.);
#128=EDGE_CURVE('',#170,#171,#197,.T.);
#129=EDGE_CURVE('',#171,#172,#198,.T.);
#130=EDGE_CURVE('',#170,#172,#23,.T.);
#131=EDGE_CURVE('',#173,#167,#24,.T.);
#132=EDGE_CURVE('',#173,#174,#199,.T.);
#133=EDGE_CURVE('',#174,#167,#200,.T.);
#134=EDGE_CURVE('',#175,#175,#25,.T.);
#135=EDGE_CURVE('',#176,#176,#26,.T.);
#136=EDGE_CURVE('',#177,#177,#27,.T.);
#137=EDGE_CURVE('',#178,#178,#28,.T.);
#138=EDGE_CURVE('',#179,#179,#29,.T.);
#139=EDGE_CURVE('',#180,#180,#30,.T.);
#140=EDGE_CURVE('',#168,#181,#201,.T.);
#141=EDGE_CURVE('',#181,#169,#202,.T.);
#142=EDGE_CURVE('',#168,#169,#31,.T.);
#143=EDGE_CURVE('',#182,#183,#203,.T.);
#144=EDGE_CURVE('',#183,#184,#204,.T.);
#145=EDGE_CURVE('',#185,#184,#205,.T.);
#146=EDGE_CURVE('',#185,#186,#206,.F.);
#147=EDGE_CURVE('',#187,#186,#207,.T.);
#148=EDGE_CURVE('',#187,#188,#208,.T.);
#149=EDGE_CURVE('',#188,#189,#209,.T.);
#150=EDGE_CURVE('',#189,#182,#210,.F.);
#151=EDGE_CURVE('',#190,#190,#32,.T.);
#152=EDGE_CURVE('',#191,#191,#33,.T.);
#153=EDGE_CURVE('',#172,#164,#12,.T.);
#154=EDGE_CURVE('',#192,#192,#34,.T.);
#155=EDGE_CURVE('',#166,#173,#13,.F.);
#156=EDGE_CURVE('',#187,#181,#211,.T.);
#157=EDGE_CURVE('',#171,#186,#212,.T.);
#158=EDGE_CURVE('',#188,#181,#213,.T.);
#159=EDGE_CURVE('',#171,#185,#214,.F.);
#160=EDGE_CURVE('',#189,#174,#215,.F.);
#161=EDGE_CURVE('',#165,#184,#216,.T.);
#162=EDGE_CURVE('',#182,#174,#217,.T.);
#163=EDGE_CURVE('',#165,#183,#218,.T.);
#164=VERTEX_POINT('',#512);
#165=VERTEX_POINT('',#513);
#166=VERTEX_POINT('',#515);
#167=VERTEX_POINT('',#517);
#168=VERTEX_POINT('',#519);
#169=VERTEX_POINT('',#521);
#170=VERTEX_POINT('',#523);
#171=VERTEX_POINT('',#527);
#172=VERTEX_POINT('',#529);
#173=VERTEX_POINT('',#533);
#174=VERTEX_POINT('',#535);
#175=VERTEX_POINT('',#539);
#176=VERTEX_POINT('',#541);
#177=VERTEX_POINT('',#544);
#178=VERTEX_POINT('',#546);
#179=VERTEX_POINT('',#549);
#180=VERTEX_POINT('',#551);
#181=VERTEX_POINT('',#554);
#182=VERTEX_POINT('',#559);
#183=VERTEX_POINT('',#560);
#184=VERTEX_POINT('',#562);
#185=VERTEX_POINT('',#564);
#186=VERTEX_POINT('',#566);
#187=VERTEX_POINT('',#568);
#188=VERTEX_POINT('',#570);
#189=VERTEX_POINT('',#572);
#190=VERTEX_POINT('',#576);
#191=VERTEX_POINT('',#580);
#192=VERTEX_POINT('',#585);
#193=LINE('',#511,#219);
#194=LINE('',#514,#220);
#195=LINE('',#518,#221);
#196=LINE('',#522,#222);
#197=LINE('',#526,#223);
#198=LINE('',#528,#224);
#199=LINE('',#534,#225);
#200=LINE('',#536,#226);
#201=LINE('',#553,#227);
#202=LINE('',#555,#228);
#203=LINE('',#558,#229);
#204=LINE('',#561,#230);
#205=LINE('',#563,#231);
#206=LINE('',#565,#232);
#207=LINE('',#567,#233);
#208=LINE('',#569,#234);
#209=LINE('',#571,#235);
#210=LINE('',#573,#236);
#211=LINE('',#589,#237);
#212=LINE('',#590,#238);
#213=LINE('',#592,#239);
#214=LINE('',#594,#240);
#215=LINE('',#596,#241);
#216=LINE('',#598,#242);
#217=LINE('',#600,#243);
#218=LINE('',#602,#244);
#219=VECTOR('',#407,1.);
#220=VECTOR('',#408,1.);
#221=VECTOR('',#411,1.);
#222=VECTOR('',#414,1.);
#223=VECTOR('',#419,1.);
#224=VECTOR('',#420,1.);
#225=VECTOR('',#427,1.);
#226=VECTOR('',#428,1.);
#227=VECTOR('',#449,1.);
#228=VECTOR('',#450,1.);
#229=VECTOR('',#455,1.);
#230=VECTOR('',#456,1.);
#231=VECTOR('',#457,1.);
#232=VECTOR('',#458,1.);
#233=VECTOR('',#459,1.);
#234=VECTOR('',#460,1.);
#235=VECTOR('',#461,1.);
#236=VECTOR('',#462,1.);
#237=VECTOR('',#487,1.);
#238=VECTOR('',#488,1.);
#239=VECTOR('',#491,1.);
#240=VECTOR('',#494,1.);
#241=VECTOR('',#497,1.);
#242=VECTOR('',#500,1.);
#243=VECTOR('',#503,1.);
#244=VECTOR('',#506,1.);
#245=EDGE_LOOP('',(#35,#36,#37,#38,#39,#40,#41));
#246=EDGE_LOOP('',(#42,#43,#44));
#247=EDGE_LOOP('',(#45,#46,#47));
#248=EDGE_LOOP('',(#48));
#249=EDGE_LOOP('',(#49));
#250=EDGE_LOOP('',(#50));
#251=EDGE_LOOP('',(#51));
#252=EDGE_LOOP('',(#52));
#253=EDGE_LOOP('',(#53));
#254=EDGE_LOOP('',(#54,#55,#56));
#255=EDGE_LOOP('',(#57));
#256=EDGE_LOOP('',(#58));
#257=EDGE_LOOP('',(#59));
#258=EDGE_LOOP('',(#60,#61,#62,#63,#64,#65,#66,#67));
#259=EDGE_LOOP('',(#68));
#260=EDGE_LOOP('',(#69,#70));
#261=EDGE_LOOP('',(#71));
#262=EDGE_LOOP('',(#72));
#263=EDGE_LOOP('',(#73));
#264=EDGE_LOOP('',(#74,#75,#76));
#265=EDGE_LOOP('',(#77));
#266=EDGE_LOOP('',(#78));
#267=EDGE_LOOP('',(#79));
#268=EDGE_LOOP('',(#80,#81,#82));
#269=EDGE_LOOP('',(#83));
#270=EDGE_LOOP('',(#84));
#271=EDGE_LOOP('',(#85,#86,#87,#88,#89,#90));
#272=EDGE_LOOP('',(#91,#92,#93));
#273=EDGE_LOOP('',(#94,#95,#96));
#274=EDGE_LOOP('',(#97,#98,#99,#100,#101,#102));
#275=EDGE_LOOP('',(#103,#104,#105,#106,#107,#108));
#276=EDGE_LOOP('',(#109,#110,#111));
#277=EDGE_LOOP('',(#112,#113,#114));
#278=EDGE_LOOP('',(#115,#116,#117,#118,#119,#120));
#279=FACE_BOUND('',#245,.T.);
#280=FACE_BOUND('',#246,.T.);
#281=FACE_BOUND('',#247,.T.);
#282=FACE_BOUND('',#248,.T.);
#283=FACE_BOUND('',#249,.T.);
#284=FACE_BOUND('',#250,.T.);
#285=FACE_BOUND('',#251,.T.);
#286=FACE_BOUND('',#252,.T.);
#287=FACE_BOUND('',#253,.T.);
#288=FACE_BOUND('',#254,.T.);
#289=FACE_BOUND('',#255,.T.);
#290=FACE_BOUND('',#256,.T.);
#291=FACE_BOUND('',#257,.T.);
#292=FACE_BOUND('',#258,.T.);
#293=FACE_BOUND('',#259,.T.);
#294=FACE_BOUND('',#260,.T.);
#295=FACE_BOUND('',#261,.T.);
#296=FACE_BOUND('',#262,.T.);
#297=FACE_BOUND('',#263,.T.);
#298=FACE_BOUND('',#264,.T.);
#299=FACE_BOUND('',#265,.T.);
#300=FACE_BOUND('',#266,.T.);
#301=FACE_BOUND('',#267,.T.);
#302=FACE_BOUND('',#268,.T.);
#303=FACE_BOUND('',#269,.T.);
#304=FACE_BOUND('',#270,.T.);
#305=FACE_BOUND('',#271,.T.);
#306=FACE_BOUND('',#272,.T.);
#307=FACE_BOUND('',#273,.T.);
#308=FACE_BOUND('',#274,.T.);
#309=FACE_BOUND('',#275,.T.);
#310=FACE_BOUND('',#276,.T.);
#311=FACE_BOUND('',#277,.T.);
#312=FACE_BOUND('',#278,.T.);
#313=PLANE('',#364);
#314=PLANE('',#368);
#315=PLANE('',#370);
#316=PLANE('',#381);
#317=PLANE('',#383);
#318=PLANE('',#386);
#319=PLANE('',#390);
#320=PLANE('',#394);
#321=PLANE('',#395);
#322=PLANE('',#396);
#323=PLANE('',#397);
#324=PLANE('',#398);
#325=PLANE('',#399);
#326=PLANE('',#400);
#327=PLANE('',#401);
#328=PLANE('',#402);
#329=ADVANCED_FACE('',(#279),#313,.T.);
#330=ADVANCED_FACE('',(#280),#314,.T.);
#331=ADVANCED_FACE('',(#281),#315,.T.);
#332=ADVANCED_FACE('',(#282,#283),#14,.F.);
#333=ADVANCED_FACE('',(#284,#285),#15,.F.);
#334=ADVANCED_FACE('',(#286,#287),#16,.F.);
#335=ADVANCED_FACE('',(#288),#316,.T.);
#336=ADVANCED_FACE('',(#289,#290,#291,#292),#317,.F.);
#337=ADVANCED_FACE('',(#293,#294),#17,.F.);
#338=ADVANCED_FACE('',(#295,#296),#318,.T.);
#339=ADVANCED_FACE('',(#297,#298),#18,.F.);
#340=ADVANCED_FACE('',(#299,#300),#319,.T.);
#341=ADVANCED_FACE('',(#301,#302),#19,.F.);
#342=ADVANCED_FACE('',(#303,#304),#320,.T.);
#343=ADVANCED_FACE('',(#305),#321,.T.);
#344=ADVANCED_FACE('',(#306),#322,.T.);
#345=ADVANCED_FACE('',(#307),#323,.T.);
#346=ADVANCED_FACE('',(#308),#324,.F.);
#347=ADVANCED_FACE('',(#309),#325,.T.);
#348=ADVANCED_FACE('',(#310),#326,.T.);
#349=ADVANCED_FACE('',(#311),#327,.T.);
#350=ADVANCED_FACE('',(#312),#328,.F.);
#351=CLOSED_SHELL('',(#329,#330,#331,#332,#333,#334,#335,#336,#337,#338,
#339,#340,#341,#342,#343,#344,#345,#346,#347,#348,#349,#350));
#352=STYLED_ITEM('',(#353),#360);
#353=PRESENTATION_STYLE_ASSIGNMENT((#354));
#354=SURFACE_STYLE_USAGE(.BOTH.,#355);
#355=SURFACE_SIDE_STYLE('',(#356));
#356=SURFACE_STYLE_FILL_AREA(#357);
#357=FILL_AREA_STYLE('',(#358));
#358=FILL_AREA_STYLE_COLOUR('',#359);
#359=COLOUR_RGB('',0.262745098039216,0.282352941176471,0.301960784313725);
#360=MANIFOLD_SOLID_BREP('Part 1',#351);
#361=SHAPE_DEFINITION_REPRESENTATION(#610,#362);
#362=SHAPE_REPRESENTATION('Part 1',(#363),#605);
#363=AXIS2_PLACEMENT_3D('',#509,#403,#404);
#364=AXIS2_PLACEMENT_3D('',#510,#405,#406);
#365=AXIS2_PLACEMENT_3D('',#516,#409,#410);
#366=AXIS2_PLACEMENT_3D('',#520,#412,#413);
#367=AXIS2_PLACEMENT_3D('',#524,#415,#416);
#368=AXIS2_PLACEMENT_3D('',#525,#417,#418);
#369=AXIS2_PLACEMENT_3D('',#530,#421,#422);
#370=AXIS2_PLACEMENT_3D('',#531,#423,#424);
#371=AXIS2_PLACEMENT_3D('',#532,#425,#426);
#372=AXIS2_PLACEMENT_3D('',#537,#429,#430);
#373=AXIS2_PLACEMENT_3D('',#538,#431,#432);
#374=AXIS2_PLACEMENT_3D('',#540,#433,#434);
#375=AXIS2_PLACEMENT_3D('',#542,#435,#436);
#376=AXIS2_PLACEMENT_3D('',#543,#437,#438);
#377=AXIS2_PLACEMENT_3D('',#545,#439,#440);
#378=AXIS2_PLACEMENT_3D('',#547,#441,#442);
#379=AXIS2_PLACEMENT_3D('',#548,#443,#444);
#380=AXIS2_PLACEMENT_3D('',#550,#445,#446);
#381=AXIS2_PLACEMENT_3D('',#552,#447,#448);
#382=AXIS2_PLACEMENT_3D('',#556,#451,#452);
#383=AXIS2_PLACEMENT_3D('',#557,#453,#454);
#384=AXIS2_PLACEMENT_3D('',#574,#463,#464);
#385=AXIS2_PLACEMENT_3D('',#575,#465,#466);
#386=AXIS2_PLACEMENT_3D('',#577,#467,#468);
#387=AXIS2_PLACEMENT_3D('',#578,#469,#470);
#388=AXIS2_PLACEMENT_3D('',#579,#471,#472);
#389=AXIS2_PLACEMENT_3D('',#581,#473,#474);
#390=AXIS2_PLACEMENT_3D('',#582,#475,#476);
#391=AXIS2_PLACEMENT_3D('',#583,#477,#478);
#392=AXIS2_PLACEMENT_3D('',#584,#479,#480);
#393=AXIS2_PLACEMENT_3D('',#586,#481,#482);
#394=AXIS2_PLACEMENT_3D('',#587,#483,#484);
#395=AXIS2_PLACEMENT_3D('',#588,#485,#486);
#396=AXIS2_PLACEMENT_3D('',#591,#489,#490);
#397=AXIS2_PLACEMENT_3D('',#593,#492,#493);
#398=AXIS2_PLACEMENT_3D('',#595,#495,#496);
#399=AXIS2_PLACEMENT_3D('',#597,#498,#499);
#400=AXIS2_PLACEMENT_3D('',#599,#501,#502);
#401=AXIS2_PLACEMENT_3D('',#601,#504,#505);
#402=AXIS2_PLACEMENT_3D('',#603,#507,#508);
#403=DIRECTION('',(0.,0.,1.));
#404=DIRECTION('',(1.,0.,0.));
#405=DIRECTION('',(0.,1.,0.));
#406=DIRECTION('',(1.,0.,0.));
#407=DIRECTION('',(1.,0.,0.));
#408=DIRECTION('',(0.,0.,-1.));
#409=DIRECTION('',(0.,1.,0.));
#410=DIRECTION('',(1.,0.,0.));
#411=DIRECTION('',(-1.,0.,0.));
#412=DIRECTION('',(0.,1.,0.));
#413=DIRECTION('',(1.,0.,0.));
#414=DIRECTION('',(0.,0.,1.));
#415=DIRECTION('',(0.,1.,0.));
#416=DIRECTION('',(1.,0.,0.));
#417=DIRECTION('',(0.,1.,0.));
#418=DIRECTION('',(1.,0.,0.));
#419=DIRECTION('',(0.,0.,1.));
#420=DIRECTION('',(1.,0.,0.));
#421=DIRECTION('',(0.,1.,0.));
#422=DIRECTION('',(1.,0.,0.));
#423=DIRECTION('',(0.,1.,0.));
#424=DIRECTION('',(1.,0.,0.));
#425=DIRECTION('',(0.,1.,0.));
#426=DIRECTION('',(1.,0.,0.));
#427=DIRECTION('',(0.,0.,-1.));
#428=DIRECTION('',(-1.,0.,0.));
#429=DIRECTION('',(0.,-1.,0.));
#430=DIRECTION('',(-1.,0.,0.));
#431=DIRECTION('',(0.,1.,0.));
#432=DIRECTION('',(1.,0.,0.));
#433=DIRECTION('',(0.,1.,0.));
#434=DIRECTION('',(1.,0.,0.));
#435=DIRECTION('',(0.,-1.,0.));
#436=DIRECTION('',(-1.,0.,0.));
#437=DIRECTION('',(0.,1.,0.));
#438=DIRECTION('',(1.,0.,0.));
#439=DIRECTION('',(0.,1.,0.));
#440=DIRECTION('',(1.,0.,0.));
#441=DIRECTION('',(0.,-1.,0.));
#442=DIRECTION('',(-1.,0.,0.));
#443=DIRECTION('',(0.,1.,0.));
#444=DIRECTION('',(1.,0.,0.));
#445=DIRECTION('',(0.,1.,0.));
#446=DIRECTION('',(1.,0.,0.));
#447=DIRECTION('',(0.,1.,0.));
#448=DIRECTION('',(1.,0.,0.));
#449=DIRECTION('',(-1.,0.,0.));
#450=DIRECTION('',(0.,0.,1.));
#451=DIRECTION('',(0.,1.,0.));
#452=DIRECTION('',(1.,0.,0.));
#453=DIRECTION('',(0.,1.,0.));
#454=DIRECTION('',(1.,0.,0.));
#455=DIRECTION('',(0.,0.,1.));
#456=DIRECTION('',(-0.707106781186548,0.,0.707106781186547));
#457=DIRECTION('',(1.,0.,0.));
#458=DIRECTION('',(0.707106781186548,0.,0.707106781186547));
#459=DIRECTION('',(0.,0.,1.));
#460=DIRECTION('',(0.707106781186546,0.,-0.70710678118655));
#461=DIRECTION('',(1.,0.,0.));
#462=DIRECTION('',(-0.707106781186548,0.,-0.707106781186547));
#463=DIRECTION('',(0.,1.,0.));
#464=DIRECTION('',(1.,0.,0.));
#465=DIRECTION('',(0.,1.,0.));
#466=DIRECTION('',(1.,0.,0.));
#467=DIRECTION('',(0.,1.,0.));
#468=DIRECTION('',(1.,0.,0.));
#469=DIRECTION('',(0.,1.,0.));
#470=DIRECTION('',(1.,0.,0.));
#471=DIRECTION('',(0.,1.,0.));
#472=DIRECTION('',(1.,0.,0.));
#473=DIRECTION('',(0.,0.707106781186548,0.707106781186548));
#474=DIRECTION('',(0.,0.707106781186548,-0.707106781186548));
#475=DIRECTION('',(0.,1.,0.));
#476=DIRECTION('',(1.,0.,0.));
#477=DIRECTION('',(0.,1.,0.));
#478=DIRECTION('',(1.,0.,0.));
#479=DIRECTION('',(0.,1.,0.));
#480=DIRECTION('',(1.,0.,0.));
#481=DIRECTION('',(-0.707106781186547,-0.707106781186548,0.));
#482=DIRECTION('',(-0.707106781186548,0.707106781186547,0.));
#483=DIRECTION('',(0.,1.,0.));
#484=DIRECTION('',(1.,0.,0.));
#485=DIRECTION('',(-0.707106781186547,0.707106781186548,0.));
#486=DIRECTION('',(0.,0.,-1.));
#487=DIRECTION('',(0.707106781186548,0.707106781186547,2.20051844253986E-16));
#488=DIRECTION('',(-0.707106781186548,-0.707106781186547,1.23903709934807E-16));
#489=DIRECTION('',(-0.577350269189627,0.577350269189627,-0.577350269189623));
#490=DIRECTION('',(0.707106781186548,0.707106781186547,0.));
#491=DIRECTION('',(4.99970298459726E-15,0.707106781186548,0.707106781186548));
#492=DIRECTION('',(-0.577350269189625,0.577350269189626,0.577350269189626));
#493=DIRECTION('',(0.,-0.707106781186548,0.707106781186548));
#494=DIRECTION('',(0.,0.707106781186548,-0.707106781186548));
#495=DIRECTION('',(0.,-0.707106781186548,0.707106781186548));
#496=DIRECTION('',(1.,0.,0.));
#497=DIRECTION('',(0.,-0.707106781186548,-0.707106781186548));
#498=DIRECTION('',(0.,0.707106781186548,0.707106781186548));
#499=DIRECTION('',(-1.,0.,0.));
#500=DIRECTION('',(-1.92296268638356E-16,-0.707106781186548,0.707106781186548));
#501=DIRECTION('',(0.577350269189625,0.577350269189626,-0.577350269189626));
#502=DIRECTION('',(0.,0.707106781186548,0.707106781186548));
#503=DIRECTION('',(-0.707106781186548,0.707106781186547,1.23903709934807E-16));
#504=DIRECTION('',(0.577350269189625,0.577350269189626,0.577350269189626));
#505=DIRECTION('',(0.,-0.707106781186548,0.707106781186548));
#506=DIRECTION('',(0.707106781186548,-0.707106781186547,6.73036940234247E-16));
#507=DIRECTION('',(-0.707106781186547,-0.707106781186548,0.));
#508=DIRECTION('',(0.,0.,1.));
#509=CARTESIAN_POINT('',(0.,0.,0.));
#510=CARTESIAN_POINT('',(0.,0.002,0.));
#511=CARTESIAN_POINT('',(0.03825,0.002,0.0125));
#512=CARTESIAN_POINT('',(-0.0310139320225002,0.002,0.0125));
#513=CARTESIAN_POINT('',(0.03625,0.002,0.0125));
#514=CARTESIAN_POINT('',(0.03625,0.002,0.));
#515=CARTESIAN_POINT('',(0.03625,0.002,-0.00726393202250022));
#516=CARTESIAN_POINT('',(0.03425,0.002,-0.0095));
#517=CARTESIAN_POINT('',(0.03425,0.002,-0.0125));
#518=CARTESIAN_POINT('',(0.,0.002,-0.0125));
#519=CARTESIAN_POINT('',(-0.03325,0.002,-0.0125));
#520=CARTESIAN_POINT('',(-0.03325,0.002,-0.0095));
#521=CARTESIAN_POINT('',(-0.03625,0.002,-0.0095));
#522=CARTESIAN_POINT('',(-0.03625,0.002,0.0145));
#523=CARTESIAN_POINT('',(-0.03625,0.002,0.0105));
#524=CARTESIAN_POINT('',(-0.03325,0.002,0.0105));
#525=CARTESIAN_POINT('',(0.,0.002,0.));
#526=CARTESIAN_POINT('',(-0.03625,0.002,0.0145));
#527=CARTESIAN_POINT('',(-0.03625,0.002,0.0125));
#528=CARTESIAN_POINT('',(0.03825,0.002,0.0125));
#529=CARTESIAN_POINT('',(-0.0354860679774998,0.002,0.0125));
#530=CARTESIAN_POINT('',(-0.03325,0.002,0.0105));
#531=CARTESIAN_POINT('',(0.,0.002,0.));
#532=CARTESIAN_POINT('',(0.03425,0.002,-0.0095));
#533=CARTESIAN_POINT('',(0.03625,0.002,-0.0117360679774998));
#534=CARTESIAN_POINT('',(0.03625,0.002,0.));
#535=CARTESIAN_POINT('',(0.03625,0.002,-0.0125));
#536=CARTESIAN_POINT('',(0.,0.002,-0.0125));
#537=CARTESIAN_POINT('',(-0.03325,0.002,-0.0095));
#538=CARTESIAN_POINT('',(-0.03325,0.,-0.0095));
#539=CARTESIAN_POINT('',(-0.03175,0.,-0.0095));
#540=CARTESIAN_POINT('',(-0.03325,0.0005,-0.0095));
#541=CARTESIAN_POINT('',(-0.03175,0.0005,-0.0095));
#542=CARTESIAN_POINT('',(-0.03325,0.002,0.0105));
#543=CARTESIAN_POINT('',(-0.03325,0.,0.0105));
#544=CARTESIAN_POINT('',(-0.03175,0.,0.0105));
#545=CARTESIAN_POINT('',(-0.03325,0.0005,0.0105));
#546=CARTESIAN_POINT('',(-0.03175,0.0005,0.0105));
#547=CARTESIAN_POINT('',(0.03425,0.002,-0.0095));
#548=CARTESIAN_POINT('',(0.03425,0.,-0.0095));
#549=CARTESIAN_POINT('',(0.03575,0.,-0.0095));
#550=CARTESIAN_POINT('',(0.03425,0.0005,-0.0095));
#551=CARTESIAN_POINT('',(0.03575,0.0005,-0.0095));
#552=CARTESIAN_POINT('',(0.,0.002,0.));
#553=CARTESIAN_POINT('',(0.,0.002,-0.0125));
#554=CARTESIAN_POINT('',(-0.03625,0.002,-0.0125));
#555=CARTESIAN_POINT('',(-0.03625,0.002,0.0145));
#556=CARTESIAN_POINT('',(-0.03325,0.002,-0.0095));
#557=CARTESIAN_POINT('',(0.,0.,0.));
#558=CARTESIAN_POINT('',(0.03825,0.,0.));
#559=CARTESIAN_POINT('',(0.03825,0.,-0.0125));
#560=CARTESIAN_POINT('',(0.03825,0.,0.0125));
#561=CARTESIAN_POINT('',(0.03825,0.,0.0125));
#562=CARTESIAN_POINT('',(0.03625,0.,0.0145));
#563=CARTESIAN_POINT('',(6.93889390390723E-18,0.,0.0145));
#564=CARTESIAN_POINT('',(-0.03625,0.,0.0145));
#565=CARTESIAN_POINT('',(-0.03625,0.,0.0145));
#566=CARTESIAN_POINT('',(-0.03825,0.,0.0125));
#567=CARTESIAN_POINT('',(-0.03825,0.,0.));
#568=CARTESIAN_POINT('',(-0.03825,0.,-0.0125));
#569=CARTESIAN_POINT('',(-0.03825,0.,-0.0125));
#570=CARTESIAN_POINT('',(-0.03625,0.,-0.0145));
#571=CARTESIAN_POINT('',(-6.93889390390723E-18,0.,-0.0145));
#572=CARTESIAN_POINT('',(0.03625,0.,-0.0145));
#573=CARTESIAN_POINT('',(0.03625,0.,-0.0145));
#574=CARTESIAN_POINT('',(-0.03325,0.0005,-0.0095));
#575=CARTESIAN_POINT('',(-0.03325,0.0005,-0.0095));
#576=CARTESIAN_POINT('',(-0.03025,0.0005,-0.0095));
#577=CARTESIAN_POINT('',(0.,0.0005,0.));
#578=CARTESIAN_POINT('',(-0.03325,0.0005,0.0105));
#579=CARTESIAN_POINT('',(-0.03325,0.0005,0.0105));
#580=CARTESIAN_POINT('',(-0.03025,0.0005,0.0105));
#581=CARTESIAN_POINT('',(-0.03325,0.004,0.0105));
#582=CARTESIAN_POINT('',(0.,0.0005,0.));
#583=CARTESIAN_POINT('',(0.03425,0.0005,-0.0095));
#584=CARTESIAN_POINT('',(0.03425,0.0005,-0.0095));
#585=CARTESIAN_POINT('',(0.03725,0.0005,-0.0095));
#586=CARTESIAN_POINT('',(0.03425,0.004,-0.0095));
#587=CARTESIAN_POINT('',(0.,0.0005,0.));
#588=CARTESIAN_POINT('',(-0.03625,0.002,0.));
#589=CARTESIAN_POINT('',(-0.03825,0.,-0.0125));
#590=CARTESIAN_POINT('',(-0.03625,0.002,0.0125));
#591=CARTESIAN_POINT('',(-0.03825,0.,-0.0125));
#592=CARTESIAN_POINT('',(-0.03625,0.001,-0.0135));
#593=CARTESIAN_POINT('',(-0.03625,0.002,0.0125));
#594=CARTESIAN_POINT('',(-0.03625,0.002,0.0125));
#595=CARTESIAN_POINT('',(-6.93889390390723E-18,0.,-0.0145));
#596=CARTESIAN_POINT('',(0.03625,0.002,-0.0125));
#597=CARTESIAN_POINT('',(0.,0.002,0.0125));
#598=CARTESIAN_POINT('',(0.03625,0.001,0.0135));
#599=CARTESIAN_POINT('',(0.03625,0.002,-0.0125));
#600=CARTESIAN_POINT('',(0.03625,0.002,-0.0125));
#601=CARTESIAN_POINT('',(0.03825,0.,0.0125));
#602=CARTESIAN_POINT('',(0.03825,0.,0.0125));
#603=CARTESIAN_POINT('',(0.03825,0.,0.));
#604=MECHANICAL_DESIGN_GEOMETRIC_PRESENTATION_REPRESENTATION('',(#352),
#605);
#605=(
GEOMETRIC_REPRESENTATION_CONTEXT(3)
GLOBAL_UNCERTAINTY_ASSIGNED_CONTEXT((#606))
GLOBAL_UNIT_ASSIGNED_CONTEXT((#609,#608,#607))
REPRESENTATION_CONTEXT('Part 1','TOP_LEVEL_ASSEMBLY_PART')
);
#606=UNCERTAINTY_MEASURE_WITH_UNIT(LENGTH_MEASURE(1.E-8),#609,
'DISTANCE_ACCURACY_VALUE','Maximum Tolerance applied to model');
#607=(
NAMED_UNIT(*)
SI_UNIT($,.STERADIAN.)
SOLID_ANGLE_UNIT()
);
#608=(
NAMED_UNIT(*)
PLANE_ANGLE_UNIT()
SI_UNIT($,.RADIAN.)
);
#609=(
LENGTH_UNIT()
NAMED_UNIT(*)
SI_UNIT($,.METRE.)
);
#610=PRODUCT_DEFINITION_SHAPE('','',#611);
#611=PRODUCT_DEFINITION('','',#613,#612);
#612=PRODUCT_DEFINITION_CONTEXT('',#619,'design');
#613=PRODUCT_DEFINITION_FORMATION_WITH_SPECIFIED_SOURCE('','',#615,
 .NOT_KNOWN.);
#614=PRODUCT_RELATED_PRODUCT_CATEGORY('','',(#615));
#615=PRODUCT('Part 1','Part 1','Part 1',(#617));
#616=PRODUCT_CATEGORY('','');
#617=PRODUCT_CONTEXT('',#619,'mechanical');
#618=APPLICATION_PROTOCOL_DEFINITION('international standard',
'ap242_managed_model_based_3d_engineering',2020,#619);
#619=APPLICATION_CONTEXT('managed model based 3d engineering');
ENDSEC;
END-ISO-10303-21;
