ISO-10303-21;
HEADER;
/* Generated by software containing ST-Developer
 * from STEP Tools, Inc. (www.steptools.com) 
 */
/* OPTION: using custom renumber hook */

FILE_DESCRIPTION(
/* description */ ('STEP AP242 Edition 2',
'CAx-IF Rec.Pracs.---Representation and Presentation of Product Manufa
cturing Information (PMI)---4.0---2014-10-13',
'CAx-IF Rec.Pracs.---3D Tessellated Geometry---0.4---2014-09-14','2;1',
'CAx-IF Rec.Pracs.---User Defined Attributes---1.5---2016-08-15'),
/* implementation_level */ '2;1');

FILE_NAME(
/* name */ 'Case Top',
/* time_stamp */ '2026-09-29T01:33:40Z',
/* author */ (''),
/* organization */ (''),
/* preprocessor_version */ 'ST-DEVELOPER v20',
/* originating_system */ 'ONSHAPE BY PTC INC, 1.221',
/* authorisation */ '  ');

FILE_SCHEMA (('AP242_MANAGED_MODEL_BASED_3D_ENGINEERING_MIM_LF { 1 0 10303 442 3 1 4 }'));
ENDSEC;

DATA;
#10=SHAPE_REPRESENTATION_RELATIONSHIP('','',#701,#11);
#11=ADVANCED_BREP_SHAPE_REPRESENTATION('',(#699),#1127);
#12=CYLINDRICAL_SURFACE('',#711,0.0016);
#13=CYLINDRICAL_SURFACE('',#714,0.0016);
#14=CYLINDRICAL_SURFACE('',#717,0.0016);
#15=CYLINDRICAL_SURFACE('',#721,0.0016);
#16=CYLINDRICAL_SURFACE('',#742,0.003);
#17=CYLINDRICAL_SURFACE('',#745,0.003);
#18=CYLINDRICAL_SURFACE('',#748,0.003);
#19=CYLINDRICAL_SURFACE('',#751,0.003);
#20=CIRCLE('',#704,0.003);
#21=CIRCLE('',#705,0.003);
#22=CIRCLE('',#706,0.003);
#23=CIRCLE('',#707,0.003);
#24=CIRCLE('',#712,0.0016);
#25=CIRCLE('',#713,0.0016);
#26=CIRCLE('',#715,0.0016);
#27=CIRCLE('',#716,0.0016);
#28=CIRCLE('',#718,0.0016);
#29=CIRCLE('',#719,0.0016);
#30=CIRCLE('',#722,0.0016);
#31=CIRCLE('',#723,0.0016);
#32=CIRCLE('',#743,0.003);
#33=CIRCLE('',#746,0.003);
#34=CIRCLE('',#749,0.003);
#35=CIRCLE('',#752,0.003);
#36=ORIENTED_EDGE('',*,*,#220,.T.);
#37=ORIENTED_EDGE('',*,*,#221,.T.);
#38=ORIENTED_EDGE('',*,*,#222,.T.);
#39=ORIENTED_EDGE('',*,*,#223,.T.);
#40=ORIENTED_EDGE('',*,*,#224,.T.);
#41=ORIENTED_EDGE('',*,*,#225,.T.);
#42=ORIENTED_EDGE('',*,*,#226,.T.);
#43=ORIENTED_EDGE('',*,*,#227,.F.);
#44=ORIENTED_EDGE('',*,*,#228,.F.);
#45=ORIENTED_EDGE('',*,*,#229,.T.);
#46=ORIENTED_EDGE('',*,*,#230,.F.);
#47=ORIENTED_EDGE('',*,*,#231,.F.);
#48=ORIENTED_EDGE('',*,*,#232,.T.);
#49=ORIENTED_EDGE('',*,*,#233,.T.);
#50=ORIENTED_EDGE('',*,*,#234,.T.);
#51=ORIENTED_EDGE('',*,*,#230,.T.);
#52=ORIENTED_EDGE('',*,*,#235,.F.);
#53=ORIENTED_EDGE('',*,*,#236,.T.);
#54=ORIENTED_EDGE('',*,*,#237,.T.);
#55=ORIENTED_EDGE('',*,*,#238,.F.);
#56=ORIENTED_EDGE('',*,*,#239,.F.);
#57=ORIENTED_EDGE('',*,*,#240,.T.);
#58=ORIENTED_EDGE('',*,*,#241,.T.);
#59=ORIENTED_EDGE('',*,*,#232,.F.);
#60=ORIENTED_EDGE('',*,*,#242,.F.);
#61=ORIENTED_EDGE('',*,*,#243,.F.);
#62=ORIENTED_EDGE('',*,*,#239,.T.);
#63=ORIENTED_EDGE('',*,*,#244,.T.);
#64=ORIENTED_EDGE('',*,*,#245,.F.);
#65=ORIENTED_EDGE('',*,*,#246,.F.);
#66=ORIENTED_EDGE('',*,*,#247,.F.);
#67=ORIENTED_EDGE('',*,*,#248,.T.);
#68=ORIENTED_EDGE('',*,*,#226,.F.);
#69=ORIENTED_EDGE('',*,*,#249,.F.);
#70=ORIENTED_EDGE('',*,*,#250,.F.);
#71=ORIENTED_EDGE('',*,*,#245,.T.);
#72=ORIENTED_EDGE('',*,*,#251,.T.);
#73=ORIENTED_EDGE('',*,*,#252,.F.);
#74=ORIENTED_EDGE('',*,*,#253,.T.);
#75=ORIENTED_EDGE('',*,*,#254,.F.);
#76=ORIENTED_EDGE('',*,*,#255,.F.);
#77=ORIENTED_EDGE('',*,*,#256,.T.);
#78=ORIENTED_EDGE('',*,*,#257,.T.);
#79=ORIENTED_EDGE('',*,*,#258,.F.);
#80=ORIENTED_EDGE('',*,*,#259,.F.);
#81=ORIENTED_EDGE('',*,*,#260,.T.);
#82=ORIENTED_EDGE('',*,*,#252,.T.);
#83=ORIENTED_EDGE('',*,*,#261,.F.);
#84=ORIENTED_EDGE('',*,*,#237,.F.);
#85=ORIENTED_EDGE('',*,*,#262,.T.);
#86=ORIENTED_EDGE('',*,*,#263,.T.);
#87=ORIENTED_EDGE('',*,*,#228,.T.);
#88=ORIENTED_EDGE('',*,*,#264,.F.);
#89=ORIENTED_EDGE('',*,*,#265,.T.);
#90=ORIENTED_EDGE('',*,*,#266,.T.);
#91=ORIENTED_EDGE('',*,*,#267,.T.);
#92=ORIENTED_EDGE('',*,*,#268,.F.);
#93=ORIENTED_EDGE('',*,*,#269,.T.);
#94=ORIENTED_EDGE('',*,*,#270,.T.);
#95=ORIENTED_EDGE('',*,*,#271,.T.);
#96=ORIENTED_EDGE('',*,*,#272,.T.);
#97=ORIENTED_EDGE('',*,*,#273,.T.);
#98=ORIENTED_EDGE('',*,*,#274,.F.);
#99=ORIENTED_EDGE('',*,*,#275,.T.);
#100=ORIENTED_EDGE('',*,*,#270,.F.);
#101=ORIENTED_EDGE('',*,*,#276,.T.);
#102=ORIENTED_EDGE('',*,*,#277,.F.);
#103=ORIENTED_EDGE('',*,*,#278,.T.);
#104=ORIENTED_EDGE('',*,*,#268,.T.);
#105=ORIENTED_EDGE('',*,*,#279,.T.);
#106=ORIENTED_EDGE('',*,*,#280,.F.);
#107=ORIENTED_EDGE('',*,*,#281,.F.);
#108=ORIENTED_EDGE('',*,*,#282,.T.);
#109=ORIENTED_EDGE('',*,*,#283,.T.);
#110=ORIENTED_EDGE('',*,*,#281,.T.);
#111=ORIENTED_EDGE('',*,*,#284,.F.);
#112=ORIENTED_EDGE('',*,*,#285,.F.);
#113=ORIENTED_EDGE('',*,*,#286,.T.);
#114=ORIENTED_EDGE('',*,*,#282,.F.);
#115=ORIENTED_EDGE('',*,*,#286,.F.);
#116=ORIENTED_EDGE('',*,*,#287,.T.);
#117=ORIENTED_EDGE('',*,*,#288,.T.);
#118=ORIENTED_EDGE('',*,*,#283,.F.);
#119=ORIENTED_EDGE('',*,*,#288,.F.);
#120=ORIENTED_EDGE('',*,*,#289,.T.);
#121=ORIENTED_EDGE('',*,*,#290,.T.);
#122=ORIENTED_EDGE('',*,*,#280,.T.);
#123=ORIENTED_EDGE('',*,*,#290,.F.);
#124=ORIENTED_EDGE('',*,*,#291,.F.);
#125=ORIENTED_EDGE('',*,*,#284,.T.);
#126=ORIENTED_EDGE('',*,*,#238,.T.);
#127=ORIENTED_EDGE('',*,*,#261,.T.);
#128=ORIENTED_EDGE('',*,*,#251,.F.);
#129=ORIENTED_EDGE('',*,*,#244,.F.);
#130=ORIENTED_EDGE('',*,*,#257,.F.);
#131=ORIENTED_EDGE('',*,*,#255,.T.);
#132=ORIENTED_EDGE('',*,*,#253,.F.);
#133=ORIENTED_EDGE('',*,*,#264,.T.);
#134=ORIENTED_EDGE('',*,*,#285,.T.);
#135=ORIENTED_EDGE('',*,*,#291,.T.);
#136=ORIENTED_EDGE('',*,*,#289,.F.);
#137=ORIENTED_EDGE('',*,*,#287,.F.);
#138=ORIENTED_EDGE('',*,*,#292,.T.);
#139=ORIENTED_EDGE('',*,*,#293,.T.);
#140=ORIENTED_EDGE('',*,*,#274,.T.);
#141=ORIENTED_EDGE('',*,*,#294,.T.);
#142=ORIENTED_EDGE('',*,*,#277,.T.);
#143=ORIENTED_EDGE('',*,*,#295,.T.);
#144=ORIENTED_EDGE('',*,*,#296,.T.);
#145=ORIENTED_EDGE('',*,*,#297,.T.);
#146=ORIENTED_EDGE('',*,*,#298,.F.);
#147=ORIENTED_EDGE('',*,*,#299,.T.);
#148=ORIENTED_EDGE('',*,*,#266,.F.);
#149=ORIENTED_EDGE('',*,*,#300,.T.);
#150=ORIENTED_EDGE('',*,*,#224,.F.);
#151=ORIENTED_EDGE('',*,*,#296,.F.);
#152=ORIENTED_EDGE('',*,*,#301,.T.);
#153=ORIENTED_EDGE('',*,*,#220,.F.);
#154=ORIENTED_EDGE('',*,*,#302,.T.);
#155=ORIENTED_EDGE('',*,*,#303,.F.);
#156=ORIENTED_EDGE('',*,*,#304,.T.);
#157=ORIENTED_EDGE('',*,*,#292,.F.);
#158=ORIENTED_EDGE('',*,*,#305,.T.);
#159=ORIENTED_EDGE('',*,*,#298,.T.);
#160=ORIENTED_EDGE('',*,*,#223,.F.);
#161=ORIENTED_EDGE('',*,*,#272,.F.);
#162=ORIENTED_EDGE('',*,*,#306,.T.);
#163=ORIENTED_EDGE('',*,*,#303,.T.);
#164=ORIENTED_EDGE('',*,*,#222,.F.);
#165=ORIENTED_EDGE('',*,*,#307,.T.);
#166=ORIENTED_EDGE('',*,*,#306,.F.);
#167=ORIENTED_EDGE('',*,*,#271,.F.);
#168=ORIENTED_EDGE('',*,*,#275,.F.);
#169=ORIENTED_EDGE('',*,*,#293,.F.);
#170=ORIENTED_EDGE('',*,*,#304,.F.);
#171=ORIENTED_EDGE('',*,*,#276,.F.);
#172=ORIENTED_EDGE('',*,*,#273,.F.);
#173=ORIENTED_EDGE('',*,*,#307,.F.);
#174=ORIENTED_EDGE('',*,*,#221,.F.);
#175=ORIENTED_EDGE('',*,*,#301,.F.);
#176=ORIENTED_EDGE('',*,*,#295,.F.);
#177=ORIENTED_EDGE('',*,*,#305,.F.);
#178=ORIENTED_EDGE('',*,*,#294,.F.);
#179=ORIENTED_EDGE('',*,*,#279,.F.);
#180=ORIENTED_EDGE('',*,*,#267,.F.);
#181=ORIENTED_EDGE('',*,*,#299,.F.);
#182=ORIENTED_EDGE('',*,*,#278,.F.);
#183=ORIENTED_EDGE('',*,*,#297,.F.);
#184=ORIENTED_EDGE('',*,*,#302,.F.);
#185=ORIENTED_EDGE('',*,*,#225,.F.);
#186=ORIENTED_EDGE('',*,*,#300,.F.);
#187=ORIENTED_EDGE('',*,*,#269,.F.);
#188=ORIENTED_EDGE('',*,*,#231,.T.);
#189=ORIENTED_EDGE('',*,*,#234,.F.);
#190=ORIENTED_EDGE('',*,*,#308,.F.);
#191=ORIENTED_EDGE('',*,*,#242,.T.);
#192=ORIENTED_EDGE('',*,*,#265,.F.);
#193=ORIENTED_EDGE('',*,*,#243,.T.);
#194=ORIENTED_EDGE('',*,*,#308,.T.);
#195=ORIENTED_EDGE('',*,*,#240,.F.);
#196=ORIENTED_EDGE('',*,*,#229,.F.);
#197=ORIENTED_EDGE('',*,*,#263,.F.);
#198=ORIENTED_EDGE('',*,*,#309,.T.);
#199=ORIENTED_EDGE('',*,*,#235,.T.);
#200=ORIENTED_EDGE('',*,*,#309,.F.);
#201=ORIENTED_EDGE('',*,*,#262,.F.);
#202=ORIENTED_EDGE('',*,*,#236,.F.);
#203=ORIENTED_EDGE('',*,*,#254,.T.);
#204=ORIENTED_EDGE('',*,*,#227,.T.);
#205=ORIENTED_EDGE('',*,*,#248,.F.);
#206=ORIENTED_EDGE('',*,*,#310,.F.);
#207=ORIENTED_EDGE('',*,*,#259,.T.);
#208=ORIENTED_EDGE('',*,*,#256,.F.);
#209=ORIENTED_EDGE('',*,*,#260,.F.);
#210=ORIENTED_EDGE('',*,*,#310,.T.);
#211=ORIENTED_EDGE('',*,*,#247,.T.);
#212=ORIENTED_EDGE('',*,*,#233,.F.);
#213=ORIENTED_EDGE('',*,*,#241,.F.);
#214=ORIENTED_EDGE('',*,*,#311,.T.);
#215=ORIENTED_EDGE('',*,*,#249,.T.);
#216=ORIENTED_EDGE('',*,*,#311,.F.);
#217=ORIENTED_EDGE('',*,*,#246,.T.);
#218=ORIENTED_EDGE('',*,*,#250,.T.);
#219=ORIENTED_EDGE('',*,*,#258,.T.);
#220=EDGE_CURVE('',#312,#313,#376,.T.);
#221=EDGE_CURVE('',#313,#314,#377,.T.);
#222=EDGE_CURVE('',#314,#315,#378,.T.);
#223=EDGE_CURVE('',#315,#316,#379,.T.);
#224=EDGE_CURVE('',#316,#317,#380,.T.);
#225=EDGE_CURVE('',#317,#312,#381,.F.);
#226=EDGE_CURVE('',#318,#319,#382,.T.);
#227=EDGE_CURVE('',#320,#319,#20,.T.);
#228=EDGE_CURVE('',#321,#320,#383,.T.);
#229=EDGE_CURVE('',#321,#322,#21,.T.);
#230=EDGE_CURVE('',#323,#322,#384,.T.);
#231=EDGE_CURVE('',#324,#323,#22,.T.);
#232=EDGE_CURVE('',#324,#325,#385,.T.);
#233=EDGE_CURVE('',#325,#318,#23,.T.);
#234=EDGE_CURVE('',#326,#323,#386,.T.);
#235=EDGE_CURVE('',#327,#322,#387,.T.);
#236=EDGE_CURVE('',#327,#328,#388,.T.);
#237=EDGE_CURVE('',#328,#329,#389,.T.);
#238=EDGE_CURVE('',#330,#329,#390,.T.);
#239=EDGE_CURVE('',#331,#330,#391,.T.);
#240=EDGE_CURVE('',#331,#326,#392,.T.);
#241=EDGE_CURVE('',#332,#325,#393,.T.);
#242=EDGE_CURVE('',#333,#324,#394,.T.);
#243=EDGE_CURVE('',#331,#333,#395,.T.);
#244=EDGE_CURVE('',#330,#334,#396,.T.);
#245=EDGE_CURVE('',#335,#334,#397,.T.);
#246=EDGE_CURVE('',#332,#335,#398,.T.);
#247=EDGE_CURVE('',#336,#337,#399,.T.);
#248=EDGE_CURVE('',#336,#319,#400,.T.);
#249=EDGE_CURVE('',#338,#318,#401,.T.);
#250=EDGE_CURVE('',#335,#338,#402,.T.);
#251=EDGE_CURVE('',#334,#339,#403,.T.);
#252=EDGE_CURVE('',#337,#339,#404,.T.);
#253=EDGE_CURVE('',#340,#340,#24,.T.);
#254=EDGE_CURVE('',#341,#341,#25,.T.);
#255=EDGE_CURVE('',#342,#342,#26,.T.);
#256=EDGE_CURVE('',#343,#343,#27,.T.);
#257=EDGE_CURVE('',#344,#344,#28,.T.);
#258=EDGE_CURVE('',#345,#345,#29,.T.);
#259=EDGE_CURVE('',#346,#320,#405,.T.);
#260=EDGE_CURVE('',#346,#337,#406,.T.);
#261=EDGE_CURVE('',#329,#339,#407,.T.);
#262=EDGE_CURVE('',#328,#347,#408,.T.);
#263=EDGE_CURVE('',#347,#321,#409,.T.);
#264=EDGE_CURVE('',#348,#348,#30,.T.);
#265=EDGE_CURVE('',#349,#349,#31,.T.);
#266=EDGE_CURVE('',#350,#351,#410,.T.);
#267=EDGE_CURVE('',#351,#352,#411,.T.);
#268=EDGE_CURVE('',#353,#352,#412,.T.);
#269=EDGE_CURVE('',#353,#350,#413,.T.);
#270=EDGE_CURVE('',#354,#355,#414,.T.);
#271=EDGE_CURVE('',#355,#356,#415,.T.);
#272=EDGE_CURVE('',#356,#357,#416,.T.);
#273=EDGE_CURVE('',#357,#354,#417,.T.);
#274=EDGE_CURVE('',#358,#359,#418,.T.);
#275=EDGE_CURVE('',#358,#355,#419,.T.);
#276=EDGE_CURVE('',#354,#360,#420,.T.);
#277=EDGE_CURVE('',#361,#360,#421,.T.);
#278=EDGE_CURVE('',#361,#353,#422,.F.);
#279=EDGE_CURVE('',#352,#359,#423,.F.);
#280=EDGE_CURVE('',#362,#363,#424,.T.);
#281=EDGE_CURVE('',#364,#362,#425,.T.);
#282=EDGE_CURVE('',#364,#365,#426,.T.);
#283=EDGE_CURVE('',#365,#363,#427,.T.);
#284=EDGE_CURVE('',#366,#362,#428,.T.);
#285=EDGE_CURVE('',#367,#366,#429,.T.);
#286=EDGE_CURVE('',#367,#364,#430,.T.);
#287=EDGE_CURVE('',#367,#368,#431,.T.);
#288=EDGE_CURVE('',#368,#365,#432,.T.);
#289=EDGE_CURVE('',#368,#369,#433,.T.);
#290=EDGE_CURVE('',#369,#363,#434,.T.);
#291=EDGE_CURVE('',#366,#369,#435,.T.);
#292=EDGE_CURVE('',#370,#371,#436,.T.);
#293=EDGE_CURVE('',#371,#358,#437,.T.);
#294=EDGE_CURVE('',#359,#370,#438,.T.);
#295=EDGE_CURVE('',#360,#372,#439,.T.);
#296=EDGE_CURVE('',#372,#373,#440,.T.);
#297=EDGE_CURVE('',#373,#361,#441,.T.);
#298=EDGE_CURVE('',#374,#316,#442,.F.);
#299=EDGE_CURVE('',#374,#351,#443,.F.);
#300=EDGE_CURVE('',#350,#317,#444,.F.);
#301=EDGE_CURVE('',#372,#313,#445,.T.);
#302=EDGE_CURVE('',#312,#373,#446,.F.);
#303=EDGE_CURVE('',#375,#315,#447,.T.);
#304=EDGE_CURVE('',#375,#371,#448,.T.);
#305=EDGE_CURVE('',#370,#374,#449,.F.);
#306=EDGE_CURVE('',#356,#375,#450,.F.);
#307=EDGE_CURVE('',#314,#357,#451,.F.);
#308=EDGE_CURVE('',#333,#326,#32,.T.);
#309=EDGE_CURVE('',#347,#327,#33,.T.);
#310=EDGE_CURVE('',#346,#336,#34,.T.);
#311=EDGE_CURVE('',#332,#338,#35,.T.);
#312=VERTEX_POINT('',#937);
#313=VERTEX_POINT('',#938);
#314=VERTEX_POINT('',#940);
#315=VERTEX_POINT('',#942);
#316=VERTEX_POINT('',#944);
#317=VERTEX_POINT('',#946);
#318=VERTEX_POINT('',#949);
#319=VERTEX_POINT('',#950);
#320=VERTEX_POINT('',#952);
#321=VERTEX_POINT('',#954);
#322=VERTEX_POINT('',#956);
#323=VERTEX_POINT('',#958);
#324=VERTEX_POINT('',#960);
#325=VERTEX_POINT('',#962);
#326=VERTEX_POINT('',#966);
#327=VERTEX_POINT('',#968);
#328=VERTEX_POINT('',#970);
#329=VERTEX_POINT('',#972);
#330=VERTEX_POINT('',#974);
#331=VERTEX_POINT('',#976);
#332=VERTEX_POINT('',#980);
#333=VERTEX_POINT('',#982);
#334=VERTEX_POINT('',#985);
#335=VERTEX_POINT('',#987);
#336=VERTEX_POINT('',#991);
#337=VERTEX_POINT('',#992);
#338=VERTEX_POINT('',#995);
#339=VERTEX_POINT('',#998);
#340=VERTEX_POINT('',#1002);
#341=VERTEX_POINT('',#1004);
#342=VERTEX_POINT('',#1007);
#343=VERTEX_POINT('',#1009);
#344=VERTEX_POINT('',#1012);
#345=VERTEX_POINT('',#1014);
#346=VERTEX_POINT('',#1017);
#347=VERTEX_POINT('',#1021);
#348=VERTEX_POINT('',#1025);
#349=VERTEX_POINT('',#1027);
#350=VERTEX_POINT('',#1030);
#351=VERTEX_POINT('',#1031);
#352=VERTEX_POINT('',#1033);
#353=VERTEX_POINT('',#1035);
#354=VERTEX_POINT('',#1039);
#355=VERTEX_POINT('',#1040);
#356=VERTEX_POINT('',#1042);
#357=VERTEX_POINT('',#1044);
#358=VERTEX_POINT('',#1048);
#359=VERTEX_POINT('',#1049);
#360=VERTEX_POINT('',#1052);
#361=VERTEX_POINT('',#1054);
#362=VERTEX_POINT('',#1058);
#363=VERTEX_POINT('',#1059);
#364=VERTEX_POINT('',#1061);
#365=VERTEX_POINT('',#1063);
#366=VERTEX_POINT('',#1067);
#367=VERTEX_POINT('',#1069);
#368=VERTEX_POINT('',#1073);
#369=VERTEX_POINT('',#1077);
#370=VERTEX_POINT('',#1084);
#371=VERTEX_POINT('',#1085);
#372=VERTEX_POINT('',#1090);
#373=VERTEX_POINT('',#1092);
#374=VERTEX_POINT('',#1096);
#375=VERTEX_POINT('',#1104);
#376=LINE('',#936,#452);
#377=LINE('',#939,#453);
#378=LINE('',#941,#454);
#379=LINE('',#943,#455);
#380=LINE('',#945,#456);
#381=LINE('',#947,#457);
#382=LINE('',#948,#458);
#383=LINE('',#953,#459);
#384=LINE('',#957,#460);
#385=LINE('',#961,#461);
#386=LINE('',#965,#462);
#387=LINE('',#967,#463);
#388=LINE('',#969,#464);
#389=LINE('',#971,#465);
#390=LINE('',#973,#466);
#391=LINE('',#975,#467);
#392=LINE('',#977,#468);
#393=LINE('',#979,#469);
#394=LINE('',#981,#470);
#395=LINE('',#983,#471);
#396=LINE('',#984,#472);
#397=LINE('',#986,#473);
#398=LINE('',#988,#474);
#399=LINE('',#990,#475);
#400=LINE('',#993,#476);
#401=LINE('',#994,#477);
#402=LINE('',#996,#478);
#403=LINE('',#997,#479);
#404=LINE('',#999,#480);
#405=LINE('',#1016,#481);
#406=LINE('',#1018,#482);
#407=LINE('',#1019,#483);
#408=LINE('',#1020,#484);
#409=LINE('',#1022,#485);
#410=LINE('',#1029,#486);
#411=LINE('',#1032,#487);
#412=LINE('',#1034,#488);
#413=LINE('',#1036,#489);
#414=LINE('',#1038,#490);
#415=LINE('',#1041,#491);
#416=LINE('',#1043,#492);
#417=LINE('',#1045,#493);
#418=LINE('',#1047,#494);
#419=LINE('',#1050,#495);
#420=LINE('',#1051,#496);
#421=LINE('',#1053,#497);
#422=LINE('',#1055,#498);
#423=LINE('',#1056,#499);
#424=LINE('',#1057,#500);
#425=LINE('',#1060,#501);
#426=LINE('',#1062,#502);
#427=LINE('',#1064,#503);
#428=LINE('',#1066,#504);
#429=LINE('',#1068,#505);
#430=LINE('',#1070,#506);
#431=LINE('',#1072,#507);
#432=LINE('',#1074,#508);
#433=LINE('',#1076,#509);
#434=LINE('',#1078,#510);
#435=LINE('',#1080,#511);
#436=LINE('',#1083,#512);
#437=LINE('',#1086,#513);
#438=LINE('',#1087,#514);
#439=LINE('',#1089,#515);
#440=LINE('',#1091,#516);
#441=LINE('',#1093,#517);
#442=LINE('',#1095,#518);
#443=LINE('',#1097,#519);
#444=LINE('',#1098,#520);
#445=LINE('',#1100,#521);
#446=LINE('',#1101,#522);
#447=LINE('',#1103,#523);
#448=LINE('',#1105,#524);
#449=LINE('',#1106,#525);
#450=LINE('',#1108,#526);
#451=LINE('',#1109,#527);
#452=VECTOR('',#758,1.);
#453=VECTOR('',#759,1.);
#454=VECTOR('',#760,1.);
#455=VECTOR('',#761,1.);
#456=VECTOR('',#762,1.);
#457=VECTOR('',#763,1.);
#458=VECTOR('',#764,1.);
#459=VECTOR('',#767,1.);
#460=VECTOR('',#770,1.);
#461=VECTOR('',#773,1.);
#462=VECTOR('',#778,1.);
#463=VECTOR('',#779,1.);
#464=VECTOR('',#780,1.);
#465=VECTOR('',#781,1.);
#466=VECTOR('',#782,1.);
#467=VECTOR('',#783,1.);
#468=VECTOR('',#784,1.);
#469=VECTOR('',#787,1.);
#470=VECTOR('',#788,1.);
#471=VECTOR('',#789,1.);
#472=VECTOR('',#790,1.);
#473=VECTOR('',#791,1.);
#474=VECTOR('',#792,1.);
#475=VECTOR('',#795,1.);
#476=VECTOR('',#796,1.);
#477=VECTOR('',#797,1.);
#478=VECTOR('',#798,1.);
#479=VECTOR('',#799,1.);
#480=VECTOR('',#800,1.);
#481=VECTOR('',#821,1.);
#482=VECTOR('',#822,1.);
#483=VECTOR('',#823,1.);
#484=VECTOR('',#824,1.);
#485=VECTOR('',#825,1.);
#486=VECTOR('',#834,1.);
#487=VECTOR('',#835,1.);
#488=VECTOR('',#836,1.);
#489=VECTOR('',#837,1.);
#490=VECTOR('',#840,1.);
#491=VECTOR('',#841,1.);
#492=VECTOR('',#842,1.);
#493=VECTOR('',#843,1.);
#494=VECTOR('',#846,1.);
#495=VECTOR('',#847,1.);
#496=VECTOR('',#848,1.);
#497=VECTOR('',#849,1.);
#498=VECTOR('',#850,1.);
#499=VECTOR('',#851,1.);
#500=VECTOR('',#852,1.);
#501=VECTOR('',#853,1.);
#502=VECTOR('',#854,1.);
#503=VECTOR('',#855,1.);
#504=VECTOR('',#858,1.);
#505=VECTOR('',#859,1.);
#506=VECTOR('',#860,1.);
#507=VECTOR('',#863,1.);
#508=VECTOR('',#864,1.);
#509=VECTOR('',#867,1.);
#510=VECTOR('',#868,1.);
#511=VECTOR('',#871,1.);
#512=VECTOR('',#876,1.);
#513=VECTOR('',#877,1.);
#514=VECTOR('',#878,1.);
#515=VECTOR('',#881,1.);
#516=VECTOR('',#882,1.);
#517=VECTOR('',#883,1.);
#518=VECTOR('',#886,1.);
#519=VECTOR('',#887,1.);
#520=VECTOR('',#888,1.);
#521=VECTOR('',#891,1.);
#522=VECTOR('',#892,1.);
#523=VECTOR('',#895,1.);
#524=VECTOR('',#896,1.);
#525=VECTOR('',#897,1.);
#526=VECTOR('',#900,1.);
#527=VECTOR('',#901,1.);
#528=EDGE_LOOP('',(#36,#37,#38,#39,#40,#41));
#529=EDGE_LOOP('',(#42,#43,#44,#45,#46,#47,#48,#49));
#530=EDGE_LOOP('',(#50,#51,#52,#53,#54,#55,#56,#57));
#531=EDGE_LOOP('',(#58,#59,#60,#61,#62,#63,#64,#65));
#532=EDGE_LOOP('',(#66,#67,#68,#69,#70,#71,#72,#73));
#533=EDGE_LOOP('',(#74));
#534=EDGE_LOOP('',(#75));
#535=EDGE_LOOP('',(#76));
#536=EDGE_LOOP('',(#77));
#537=EDGE_LOOP('',(#78));
#538=EDGE_LOOP('',(#79));
#539=EDGE_LOOP('',(#80,#81,#82,#83,#84,#85,#86,#87));
#540=EDGE_LOOP('',(#88));
#541=EDGE_LOOP('',(#89));
#542=EDGE_LOOP('',(#90,#91,#92,#93));
#543=EDGE_LOOP('',(#94,#95,#96,#97));
#544=EDGE_LOOP('',(#98,#99,#100,#101,#102,#103,#104,#105));
#545=EDGE_LOOP('',(#106,#107,#108,#109));
#546=EDGE_LOOP('',(#110,#111,#112,#113));
#547=EDGE_LOOP('',(#114,#115,#116,#117));
#548=EDGE_LOOP('',(#118,#119,#120,#121));
#549=EDGE_LOOP('',(#122,#123,#124,#125));
#550=EDGE_LOOP('',(#126,#127,#128,#129));
#551=EDGE_LOOP('',(#130));
#552=EDGE_LOOP('',(#131));
#553=EDGE_LOOP('',(#132));
#554=EDGE_LOOP('',(#133));
#555=EDGE_LOOP('',(#134,#135,#136,#137));
#556=EDGE_LOOP('',(#138,#139,#140,#141));
#557=EDGE_LOOP('',(#142,#143,#144,#145));
#558=EDGE_LOOP('',(#146,#147,#148,#149,#150));
#559=EDGE_LOOP('',(#151,#152,#153,#154));
#560=EDGE_LOOP('',(#155,#156,#157,#158,#159,#160));
#561=EDGE_LOOP('',(#161,#162,#163,#164,#165));
#562=EDGE_LOOP('',(#166,#167,#168,#169,#170));
#563=EDGE_LOOP('',(#171,#172,#173,#174,#175,#176));
#564=EDGE_LOOP('',(#177,#178,#179,#180,#181));
#565=EDGE_LOOP('',(#182,#183,#184,#185,#186,#187));
#566=EDGE_LOOP('',(#188,#189,#190,#191));
#567=EDGE_LOOP('',(#192));
#568=EDGE_LOOP('',(#193,#194,#195));
#569=EDGE_LOOP('',(#196,#197,#198,#199));
#570=EDGE_LOOP('',(#200,#201,#202));
#571=EDGE_LOOP('',(#203));
#572=EDGE_LOOP('',(#204,#205,#206,#207));
#573=EDGE_LOOP('',(#208));
#574=EDGE_LOOP('',(#209,#210,#211));
#575=EDGE_LOOP('',(#212,#213,#214,#215));
#576=EDGE_LOOP('',(#216,#217,#218));
#577=EDGE_LOOP('',(#219));
#578=FACE_BOUND('',#528,.T.);
#579=FACE_BOUND('',#529,.T.);
#580=FACE_BOUND('',#530,.T.);
#581=FACE_BOUND('',#531,.T.);
#582=FACE_BOUND('',#532,.T.);
#583=FACE_BOUND('',#533,.T.);
#584=FACE_BOUND('',#534,.T.);
#585=FACE_BOUND('',#535,.T.);
#586=FACE_BOUND('',#536,.T.);
#587=FACE_BOUND('',#537,.T.);
#588=FACE_BOUND('',#538,.T.);
#589=FACE_BOUND('',#539,.T.);
#590=FACE_BOUND('',#540,.T.);
#591=FACE_BOUND('',#541,.T.);
#592=FACE_BOUND('',#542,.T.);
#593=FACE_BOUND('',#543,.T.);
#594=FACE_BOUND('',#544,.T.);
#595=FACE_BOUND('',#545,.T.);
#596=FACE_BOUND('',#546,.T.);
#597=FACE_BOUND('',#547,.T.);
#598=FACE_BOUND('',#548,.T.);
#599=FACE_BOUND('',#549,.T.);
#600=FACE_BOUND('',#550,.T.);
#601=FACE_BOUND('',#551,.T.);
#602=FACE_BOUND('',#552,.T.);
#603=FACE_BOUND('',#553,.T.);
#604=FACE_BOUND('',#554,.T.);
#605=FACE_BOUND('',#555,.T.);
#606=FACE_BOUND('',#556,.T.);
#607=FACE_BOUND('',#557,.T.);
#608=FACE_BOUND('',#558,.T.);
#609=FACE_BOUND('',#559,.T.);
#610=FACE_BOUND('',#560,.T.);
#611=FACE_BOUND('',#561,.T.);
#612=FACE_BOUND('',#562,.T.);
#613=FACE_BOUND('',#563,.T.);
#614=FACE_BOUND('',#564,.T.);
#615=FACE_BOUND('',#565,.T.);
#616=FACE_BOUND('',#566,.T.);
#617=FACE_BOUND('',#567,.T.);
#618=FACE_BOUND('',#568,.T.);
#619=FACE_BOUND('',#569,.T.);
#620=FACE_BOUND('',#570,.T.);
#621=FACE_BOUND('',#571,.T.);
#622=FACE_BOUND('',#572,.T.);
#623=FACE_BOUND('',#573,.T.);
#624=FACE_BOUND('',#574,.T.);
#625=FACE_BOUND('',#575,.T.);
#626=FACE_BOUND('',#576,.T.);
#627=FACE_BOUND('',#577,.T.);
#628=PLANE('',#703);
#629=PLANE('',#708);
#630=PLANE('',#709);
#631=PLANE('',#710);
#632=PLANE('',#720);
#633=PLANE('',#724);
#634=PLANE('',#725);
#635=PLANE('',#726);
#636=PLANE('',#727);
#637=PLANE('',#728);
#638=PLANE('',#729);
#639=PLANE('',#730);
#640=PLANE('',#731);
#641=PLANE('',#732);
#642=PLANE('',#733);
#643=PLANE('',#734);
#644=PLANE('',#735);
#645=PLANE('',#736);
#646=PLANE('',#737);
#647=PLANE('',#738);
#648=PLANE('',#739);
#649=PLANE('',#740);
#650=PLANE('',#741);
#651=PLANE('',#744);
#652=PLANE('',#747);
#653=PLANE('',#750);
#654=PLANE('',#753);
#655=ADVANCED_FACE('',(#578,#579),#628,.F.);
#656=ADVANCED_FACE('',(#580),#629,.T.);
#657=ADVANCED_FACE('',(#581),#630,.F.);
#658=ADVANCED_FACE('',(#582),#631,.F.);
#659=ADVANCED_FACE('',(#583,#584),#12,.F.);
#660=ADVANCED_FACE('',(#585,#586),#13,.F.);
#661=ADVANCED_FACE('',(#587,#588),#14,.F.);
#662=ADVANCED_FACE('',(#589),#632,.T.);
#663=ADVANCED_FACE('',(#590,#591),#15,.F.);
#664=ADVANCED_FACE('',(#592),#633,.T.);
#665=ADVANCED_FACE('',(#593),#634,.F.);
#666=ADVANCED_FACE('',(#594,#595),#635,.T.);
#667=ADVANCED_FACE('',(#596),#636,.F.);
#668=ADVANCED_FACE('',(#597),#637,.T.);
#669=ADVANCED_FACE('',(#598),#638,.T.);
#670=ADVANCED_FACE('',(#599),#639,.F.);
#671=ADVANCED_FACE('',(#600,#601,#602,#603,#604,#605),#640,.F.);
#672=ADVANCED_FACE('',(#606),#641,.T.);
#673=ADVANCED_FACE('',(#607),#642,.T.);
#674=ADVANCED_FACE('',(#608),#643,.T.);
#675=ADVANCED_FACE('',(#609),#644,.T.);
#676=ADVANCED_FACE('',(#610),#645,.T.);
#677=ADVANCED_FACE('',(#611),#646,.F.);
#678=ADVANCED_FACE('',(#612),#647,.T.);
#679=ADVANCED_FACE('',(#613),#648,.T.);
#680=ADVANCED_FACE('',(#614),#649,.F.);
#681=ADVANCED_FACE('',(#615),#650,.F.);
#682=ADVANCED_FACE('',(#616),#16,.F.);
#683=ADVANCED_FACE('',(#617,#618),#651,.T.);
#684=ADVANCED_FACE('',(#619),#17,.F.);
#685=ADVANCED_FACE('',(#620,#621),#652,.T.);
#686=ADVANCED_FACE('',(#622),#18,.F.);
#687=ADVANCED_FACE('',(#623,#624),#653,.T.);
#688=ADVANCED_FACE('',(#625),#19,.F.);
#689=ADVANCED_FACE('',(#626,#627),#654,.T.);
#690=CLOSED_SHELL('',(#655,#656,#657,#658,#659,#660,#661,#662,#663,#664,
#665,#666,#667,#668,#669,#670,#671,#672,#673,#674,#675,#676,#677,#678,#679,
#680,#681,#682,#683,#684,#685,#686,#687,#688,#689));
#691=STYLED_ITEM('',(#692),#699);
#692=PRESENTATION_STYLE_ASSIGNMENT((#693));
#693=SURFACE_STYLE_USAGE(.BOTH.,#694);
#694=SURFACE_SIDE_STYLE('',(#695));
#695=SURFACE_STYLE_FILL_AREA(#696);
#696=FILL_AREA_STYLE('',(#697));
#697=FILL_AREA_STYLE_COLOUR('',#698);
#698=COLOUR_RGB('',0.262745098039216,0.282352941176471,0.301960784313725);
#699=MANIFOLD_SOLID_BREP('Part 1',#690);
#700=SHAPE_DEFINITION_REPRESENTATION(#1132,#701);
#701=SHAPE_REPRESENTATION('Part 1',(#702),#1127);
#702=AXIS2_PLACEMENT_3D('',#934,#754,#755);
#703=AXIS2_PLACEMENT_3D('',#935,#756,#757);
#704=AXIS2_PLACEMENT_3D('',#951,#765,#766);
#705=AXIS2_PLACEMENT_3D('',#955,#768,#769);
#706=AXIS2_PLACEMENT_3D('',#959,#771,#772);
#707=AXIS2_PLACEMENT_3D('',#963,#774,#775);
#708=AXIS2_PLACEMENT_3D('',#964,#776,#777);
#709=AXIS2_PLACEMENT_3D('',#978,#785,#786);
#710=AXIS2_PLACEMENT_3D('',#989,#793,#794);
#711=AXIS2_PLACEMENT_3D('',#1000,#801,#802);
#712=AXIS2_PLACEMENT_3D('',#1001,#803,#804);
#713=AXIS2_PLACEMENT_3D('',#1003,#805,#806);
#714=AXIS2_PLACEMENT_3D('',#1005,#807,#808);
#715=AXIS2_PLACEMENT_3D('',#1006,#809,#810);
#716=AXIS2_PLACEMENT_3D('',#1008,#811,#812);
#717=AXIS2_PLACEMENT_3D('',#1010,#813,#814);
#718=AXIS2_PLACEMENT_3D('',#1011,#815,#816);
#719=AXIS2_PLACEMENT_3D('',#1013,#817,#818);
#720=AXIS2_PLACEMENT_3D('',#1015,#819,#820);
#721=AXIS2_PLACEMENT_3D('',#1023,#826,#827);
#722=AXIS2_PLACEMENT_3D('',#1024,#828,#829);
#723=AXIS2_PLACEMENT_3D('',#1026,#830,#831);
#724=AXIS2_PLACEMENT_3D('',#1028,#832,#833);
#725=AXIS2_PLACEMENT_3D('',#1037,#838,#839);
#726=AXIS2_PLACEMENT_3D('',#1046,#844,#845);
#727=AXIS2_PLACEMENT_3D('',#1065,#856,#857);
#728=AXIS2_PLACEMENT_3D('',#1071,#861,#862);
#729=AXIS2_PLACEMENT_3D('',#1075,#865,#866);
#730=AXIS2_PLACEMENT_3D('',#1079,#869,#870);
#731=AXIS2_PLACEMENT_3D('',#1081,#872,#873);
#732=AXIS2_PLACEMENT_3D('',#1082,#874,#875);
#733=AXIS2_PLACEMENT_3D('',#1088,#879,#880);
#734=AXIS2_PLACEMENT_3D('',#1094,#884,#885);
#735=AXIS2_PLACEMENT_3D('',#1099,#889,#890);
#736=AXIS2_PLACEMENT_3D('',#1102,#893,#894);
#737=AXIS2_PLACEMENT_3D('',#1107,#898,#899);
#738=AXIS2_PLACEMENT_3D('',#1110,#902,#903);
#739=AXIS2_PLACEMENT_3D('',#1111,#904,#905);
#740=AXIS2_PLACEMENT_3D('',#1112,#906,#907);
#741=AXIS2_PLACEMENT_3D('',#1113,#908,#909);
#742=AXIS2_PLACEMENT_3D('',#1114,#910,#911);
#743=AXIS2_PLACEMENT_3D('',#1115,#912,#913);
#744=AXIS2_PLACEMENT_3D('',#1116,#914,#915);
#745=AXIS2_PLACEMENT_3D('',#1117,#916,#917);
#746=AXIS2_PLACEMENT_3D('',#1118,#918,#919);
#747=AXIS2_PLACEMENT_3D('',#1119,#920,#921);
#748=AXIS2_PLACEMENT_3D('',#1120,#922,#923);
#749=AXIS2_PLACEMENT_3D('',#1121,#924,#925);
#750=AXIS2_PLACEMENT_3D('',#1122,#926,#927);
#751=AXIS2_PLACEMENT_3D('',#1123,#928,#929);
#752=AXIS2_PLACEMENT_3D('',#1124,#930,#931);
#753=AXIS2_PLACEMENT_3D('',#1125,#932,#933);
#754=DIRECTION('',(0.,0.,1.));
#755=DIRECTION('',(1.,0.,0.));
#756=DIRECTION('',(0.,-1.,0.));
#757=DIRECTION('',(1.,0.,0.));
#758=DIRECTION('',(1.,0.,0.));
#759=DIRECTION('',(0.704744128998045,0.,-0.709461565303426));
#760=DIRECTION('',(0.,0.,-1.));
#761=DIRECTION('',(-1.,0.,0.));
#762=DIRECTION('',(0.,0.,1.));
#763=DIRECTION('',(-0.704744128998051,0.,-0.70946156530342));
#764=DIRECTION('',(0.,0.,1.));
#765=DIRECTION('',(0.,1.,0.));
#766=DIRECTION('',(-1.,0.,0.));
#767=DIRECTION('',(1.,0.,0.));
#768=DIRECTION('',(0.,-1.,0.));
#769=DIRECTION('',(1.,0.,0.));
#770=DIRECTION('',(0.,0.,1.));
#771=DIRECTION('',(0.,1.,0.));
#772=DIRECTION('',(1.,0.,0.));
#773=DIRECTION('',(1.,0.,0.));
#774=DIRECTION('',(0.,-1.,0.));
#775=DIRECTION('',(-1.,0.,0.));
#776=DIRECTION('',(1.,0.,0.));
#777=DIRECTION('',(0.,-1.,0.));
#778=DIRECTION('',(0.,1.,0.));
#779=DIRECTION('',(0.,1.,0.));
#780=DIRECTION('',(0.,0.,1.));
#781=DIRECTION('',(0.,-1.,0.));
#782=DIRECTION('',(0.,0.,1.));
#783=DIRECTION('',(0.,-1.,0.));
#784=DIRECTION('',(0.,0.,1.));
#785=DIRECTION('',(0.,0.,-1.));
#786=DIRECTION('',(0.,1.,0.));
#787=DIRECTION('',(0.,1.,0.));
#788=DIRECTION('',(0.,1.,0.));
#789=DIRECTION('',(1.,0.,0.));
#790=DIRECTION('',(1.,0.,0.));
#791=DIRECTION('',(0.,-1.,0.));
#792=DIRECTION('',(1.,0.,0.));
#793=DIRECTION('',(1.,0.,0.));
#794=DIRECTION('',(0.,-1.,0.));
#795=DIRECTION('',(0.,0.,1.));
#796=DIRECTION('',(0.,1.,0.));
#797=DIRECTION('',(0.,1.,0.));
#798=DIRECTION('',(0.,0.,1.));
#799=DIRECTION('',(0.,0.,1.));
#800=DIRECTION('',(0.,-1.,0.));
#801=DIRECTION('',(0.,-1.,0.));
#802=DIRECTION('',(-1.,0.,0.));
#803=DIRECTION('',(0.,-1.,0.));
#804=DIRECTION('',(1.,0.,0.));
#805=DIRECTION('',(0.,-1.,0.));
#806=DIRECTION('',(1.,0.,0.));
#807=DIRECTION('',(0.,-1.,0.));
#808=DIRECTION('',(-1.,0.,0.));
#809=DIRECTION('',(0.,1.,0.));
#810=DIRECTION('',(-1.,0.,0.));
#811=DIRECTION('',(0.,1.,0.));
#812=DIRECTION('',(-1.,0.,0.));
#813=DIRECTION('',(0.,-1.,0.));
#814=DIRECTION('',(-1.,0.,0.));
#815=DIRECTION('',(0.,-1.,0.));
#816=DIRECTION('',(-1.,0.,0.));
#817=DIRECTION('',(0.,-1.,0.));
#818=DIRECTION('',(-1.,0.,0.));
#819=DIRECTION('',(0.,0.,-1.));
#820=DIRECTION('',(0.,1.,0.));
#821=DIRECTION('',(0.,1.,0.));
#822=DIRECTION('',(1.,0.,0.));
#823=DIRECTION('',(1.,0.,0.));
#824=DIRECTION('',(1.,0.,0.));
#825=DIRECTION('',(0.,1.,0.));
#826=DIRECTION('',(0.,-1.,0.));
#827=DIRECTION('',(-1.,0.,0.));
#828=DIRECTION('',(0.,1.,0.));
#829=DIRECTION('',(1.,0.,0.));
#830=DIRECTION('',(0.,1.,0.));
#831=DIRECTION('',(1.,0.,0.));
#832=DIRECTION('',(-1.,0.,0.));
#833=DIRECTION('',(0.,1.,0.));
#834=DIRECTION('',(0.,0.,-1.));
#835=DIRECTION('',(0.,-0.993350680944515,0.115127862253531));
#836=DIRECTION('',(0.,0.,-1.));
#837=DIRECTION('',(0.,0.993350680944515,-0.115127862253531));
#838=DIRECTION('',(-1.,0.,0.));
#839=DIRECTION('',(0.,1.,0.));
#840=DIRECTION('',(0.,0.,-1.));
#841=DIRECTION('',(0.,0.993350680944515,-0.115127862253531));
#842=DIRECTION('',(0.,0.,1.));
#843=DIRECTION('',(0.,-0.993350680944515,0.115127862253531));
#844=DIRECTION('',(0.,-1.,0.));
#845=DIRECTION('',(1.,0.,0.));
#846=DIRECTION('',(-1.,0.,0.));
#847=DIRECTION('',(0.704744128998054,0.,0.709461565303417));
#848=DIRECTION('',(-0.704744128998045,0.,0.709461565303426));
#849=DIRECTION('',(1.,0.,0.));
#850=DIRECTION('',(0.704744128998051,0.,0.70946156530342));
#851=DIRECTION('',(-0.704744128998053,0.,0.709461565303417));
#852=DIRECTION('',(0.,0.,1.));
#853=DIRECTION('',(1.,0.,0.));
#854=DIRECTION('',(0.,0.,1.));
#855=DIRECTION('',(1.,0.,0.));
#856=DIRECTION('',(0.,0.,-1.));
#857=DIRECTION('',(0.,1.,0.));
#858=DIRECTION('',(0.,-1.,0.));
#859=DIRECTION('',(1.,0.,0.));
#860=DIRECTION('',(0.,-1.,0.));
#861=DIRECTION('',(1.,0.,0.));
#862=DIRECTION('',(0.,-1.,0.));
#863=DIRECTION('',(0.,0.,1.));
#864=DIRECTION('',(0.,-1.,0.));
#865=DIRECTION('',(0.,0.,-1.));
#866=DIRECTION('',(0.,1.,0.));
#867=DIRECTION('',(1.,0.,0.));
#868=DIRECTION('',(0.,-1.,0.));
#869=DIRECTION('',(1.,0.,0.));
#870=DIRECTION('',(0.,-1.,0.));
#871=DIRECTION('',(0.,0.,1.));
#872=DIRECTION('',(0.,1.,0.));
#873=DIRECTION('',(1.,0.,0.));
#874=DIRECTION('',(0.,-0.115127862253531,-0.993350680944515));
#875=DIRECTION('',(0.,0.993350680944515,-0.115127862253531));
#876=DIRECTION('',(1.,0.,0.));
#877=DIRECTION('',(0.,-0.993350680944515,0.115127862253531));
#878=DIRECTION('',(0.,0.993350680944515,-0.115127862253531));
#879=DIRECTION('',(0.,0.115127862253531,0.993350680944515));
#880=DIRECTION('',(0.,-0.993350680944515,0.115127862253531));
#881=DIRECTION('',(0.,0.993350680944515,-0.115127862253531));
#882=DIRECTION('',(-1.,0.,0.));
#883=DIRECTION('',(0.,-0.993350680944515,0.115127862253531));
#884=DIRECTION('',(-0.707106781186547,0.707106781186548,0.));
#885=DIRECTION('',(0.,0.,1.));
#886=DIRECTION('',(-0.598307428391493,-0.598307428391493,-0.532969457157835));
#887=DIRECTION('',(0.553830635858789,0.553830635858789,-0.621726027739308));
#888=DIRECTION('',(-0.598307428391473,-0.598307428391472,-0.532969457157881));
#889=DIRECTION('',(0.,0.746702036375129,0.665158679469219));
#890=DIRECTION('',(1.,0.,0.));
#891=DIRECTION('',(0.553830635858764,0.553830635858823,-0.6217260277393));
#892=DIRECTION('',(-0.55383063585877,0.553830635858821,-0.621726027739297));
#893=DIRECTION('',(0.,0.665158679469212,-0.746702036375135));
#894=DIRECTION('',(1.,0.,0.));
#895=DIRECTION('',(-0.598307428391493,0.598307428391493,0.532969457157835));
#896=DIRECTION('',(-0.598307428391456,-0.598307428391513,-0.532969457157853));
#897=DIRECTION('',(0.598307428391456,-0.598307428391514,-0.532969457157854));
#898=DIRECTION('',(-0.707106781186547,-0.707106781186548,0.));
#899=DIRECTION('',(0.,0.,-1.));
#900=DIRECTION('',(0.553830635858789,-0.553830635858789,0.621726027739308));
#901=DIRECTION('',(-0.59830742839147,0.59830742839147,0.532969457157887));
#902=DIRECTION('',(0.707106781186576,-0.0814076921029792,-0.702405002592113));
#903=DIRECTION('',(0.,0.993350680944515,-0.115127862253531));
#904=DIRECTION('',(0.707106781186585,0.0814076921029782,0.702405002592104));
#905=DIRECTION('',(0.,-0.993350680944515,0.115127862253531));
#906=DIRECTION('',(0.707106781186577,0.0814076921029791,0.702405002592113));
#907=DIRECTION('',(0.,-0.993350680944515,0.115127862253531));
#908=DIRECTION('',(0.70710678118658,-0.0814076921029789,-0.70240500259211));
#909=DIRECTION('',(0.,0.993350680944515,-0.115127862253531));
#910=DIRECTION('',(0.,1.,0.));
#911=DIRECTION('',(1.,0.,0.));
#912=DIRECTION('',(0.,1.,0.));
#913=DIRECTION('',(1.,0.,0.));
#914=DIRECTION('',(0.,1.,0.));
#915=DIRECTION('',(1.,0.,0.));
#916=DIRECTION('',(0.,1.,0.));
#917=DIRECTION('',(1.,0.,0.));
#918=DIRECTION('',(0.,-1.,0.));
#919=DIRECTION('',(1.,0.,0.));
#920=DIRECTION('',(0.,1.,0.));
#921=DIRECTION('',(1.,0.,0.));
#922=DIRECTION('',(0.,1.,0.));
#923=DIRECTION('',(1.,0.,0.));
#924=DIRECTION('',(0.,1.,0.));
#925=DIRECTION('',(-1.,0.,0.));
#926=DIRECTION('',(0.,1.,0.));
#927=DIRECTION('',(1.,0.,0.));
#928=DIRECTION('',(0.,1.,0.));
#929=DIRECTION('',(1.,0.,0.));
#930=DIRECTION('',(0.,-1.,0.));
#931=DIRECTION('',(-1.,0.,0.));
#932=DIRECTION('',(0.,1.,0.));
#933=DIRECTION('',(1.,0.,0.));
#934=CARTESIAN_POINT('',(0.,0.,0.));
#935=CARTESIAN_POINT('',(0.,0.0075,-0.000520500000000035));
#936=CARTESIAN_POINT('',(0.18525,0.0075,0.0690859658668522));
#937=CARTESIAN_POINT('',(-0.184134872137747,0.0075,0.0690859658668522));
#938=CARTESIAN_POINT('',(0.184134872137747,0.0075,0.0690859658668522));
#939=CARTESIAN_POINT('',(0.183032695132779,0.0075,0.0701955206556203));
#940=CARTESIAN_POINT('',(0.18425,0.0075,0.0689700673584383));
#941=CARTESIAN_POINT('',(0.18425,0.0075,-0.000520500000000035));
#942=CARTESIAN_POINT('',(0.18425,0.0075,-0.0707644076631295));
#943=CARTESIAN_POINT('',(-0.18525,0.0075,-0.0707644076631295));
#944=CARTESIAN_POINT('',(-0.18425,0.0075,-0.0707644076631295));
#945=CARTESIAN_POINT('',(-0.18425,0.0075,0.0699767611868948));
#946=CARTESIAN_POINT('',(-0.18425,0.0075,0.0689700673584383));
#947=CARTESIAN_POINT('',(-0.186173348107452,0.0075,0.0670338446886925));
#948=CARTESIAN_POINT('',(0.17675,0.0075,0.));
#949=CARTESIAN_POINT('',(0.17675,0.0075,-0.0614082844919101));
#950=CARTESIAN_POINT('',(0.17675,0.0075,0.0614082844919101));
#951=CARTESIAN_POINT('',(0.17835,0.0075,0.063946));
#952=CARTESIAN_POINT('',(0.17581228449191,0.0075,0.062346));
#953=CARTESIAN_POINT('',(0.,0.0075,0.062346));
#954=CARTESIAN_POINT('',(-0.17581228449191,0.0075,0.062346));
#955=CARTESIAN_POINT('',(-0.17835,0.0075,0.063946));
#956=CARTESIAN_POINT('',(-0.17675,0.0075,0.0614082844919101));
#957=CARTESIAN_POINT('',(-0.17675,0.0075,0.));
#958=CARTESIAN_POINT('',(-0.17675,0.0075,-0.0614082844919101));
#959=CARTESIAN_POINT('',(-0.17835,0.0075,-0.063946));
#960=CARTESIAN_POINT('',(-0.17581228449191,0.0075,-0.062346));
#961=CARTESIAN_POINT('',(0.,0.0075,-0.062346));
#962=CARTESIAN_POINT('',(0.17581228449191,0.0075,-0.062346));
#963=CARTESIAN_POINT('',(0.17835,0.0075,-0.063946));
#964=CARTESIAN_POINT('',(-0.17675,0.0075,0.));
#965=CARTESIAN_POINT('',(-0.17675,0.005,-0.0614082844919101));
#966=CARTESIAN_POINT('',(-0.17675,0.005,-0.0614082844919101));
#967=CARTESIAN_POINT('',(-0.17675,0.005,0.0614082844919101));
#968=CARTESIAN_POINT('',(-0.17675,0.005,0.0614082844919101));
#969=CARTESIAN_POINT('',(-0.17675,0.005,0.));
#970=CARTESIAN_POINT('',(-0.17675,0.005,0.062346));
#971=CARTESIAN_POINT('',(-0.17675,0.0075,0.062346));
#972=CARTESIAN_POINT('',(-0.17675,0.0009,0.062346));
#973=CARTESIAN_POINT('',(-0.17675,0.0009,0.));
#974=CARTESIAN_POINT('',(-0.17675,0.0009,-0.062346));
#975=CARTESIAN_POINT('',(-0.17675,0.0075,-0.062346));
#976=CARTESIAN_POINT('',(-0.17675,0.005,-0.062346));
#977=CARTESIAN_POINT('',(-0.17675,0.005,0.));
#978=CARTESIAN_POINT('',(0.,0.0075,-0.062346));
#979=CARTESIAN_POINT('',(0.17581228449191,0.005,-0.062346));
#980=CARTESIAN_POINT('',(0.17581228449191,0.005,-0.062346));
#981=CARTESIAN_POINT('',(-0.17581228449191,0.005,-0.062346));
#982=CARTESIAN_POINT('',(-0.17581228449191,0.005,-0.062346));
#983=CARTESIAN_POINT('',(0.,0.005,-0.062346));
#984=CARTESIAN_POINT('',(0.,0.0009,-0.062346));
#985=CARTESIAN_POINT('',(0.17675,0.0009,-0.062346));
#986=CARTESIAN_POINT('',(0.17675,0.0075,-0.062346));
#987=CARTESIAN_POINT('',(0.17675,0.005,-0.062346));
#988=CARTESIAN_POINT('',(0.,0.005,-0.062346));
#989=CARTESIAN_POINT('',(0.17675,0.0075,0.));
#990=CARTESIAN_POINT('',(0.17675,0.005,0.));
#991=CARTESIAN_POINT('',(0.17675,0.005,0.0614082844919101));
#992=CARTESIAN_POINT('',(0.17675,0.005,0.062346));
#993=CARTESIAN_POINT('',(0.17675,0.005,0.0614082844919101));
#994=CARTESIAN_POINT('',(0.17675,0.005,-0.0614082844919101));
#995=CARTESIAN_POINT('',(0.17675,0.005,-0.0614082844919101));
#996=CARTESIAN_POINT('',(0.17675,0.005,0.));
#997=CARTESIAN_POINT('',(0.17675,0.0009,0.));
#998=CARTESIAN_POINT('',(0.17675,0.0009,0.062346));
#999=CARTESIAN_POINT('',(0.17675,0.0075,0.062346));
#1000=CARTESIAN_POINT('',(-0.17835,0.0075,0.063946));
#1001=CARTESIAN_POINT('',(-0.17835,0.0009,0.063946));
#1002=CARTESIAN_POINT('',(-0.17675,0.0009,0.063946));
#1003=CARTESIAN_POINT('',(-0.17835,0.005,0.063946));
#1004=CARTESIAN_POINT('',(-0.17675,0.005,0.063946));
#1005=CARTESIAN_POINT('',(0.17835,0.0075,0.063946));
#1006=CARTESIAN_POINT('',(0.17835,0.0009,0.063946));
#1007=CARTESIAN_POINT('',(0.17675,0.0009,0.063946));
#1008=CARTESIAN_POINT('',(0.17835,0.005,0.063946));
#1009=CARTESIAN_POINT('',(0.17675,0.005,0.063946));
#1010=CARTESIAN_POINT('',(0.17835,0.0075,-0.063946));
#1011=CARTESIAN_POINT('',(0.17835,0.0009,-0.063946));
#1012=CARTESIAN_POINT('',(0.17675,0.0009,-0.063946));
#1013=CARTESIAN_POINT('',(0.17835,0.005,-0.063946));
#1014=CARTESIAN_POINT('',(0.17675,0.005,-0.063946));
#1015=CARTESIAN_POINT('',(0.,0.0075,0.062346));
#1016=CARTESIAN_POINT('',(0.17581228449191,0.005,0.062346));
#1017=CARTESIAN_POINT('',(0.17581228449191,0.005,0.062346));
#1018=CARTESIAN_POINT('',(0.,0.005,0.062346));
#1019=CARTESIAN_POINT('',(0.,0.0009,0.062346));
#1020=CARTESIAN_POINT('',(0.,0.005,0.062346));
#1021=CARTESIAN_POINT('',(-0.17581228449191,0.005,0.062346));
#1022=CARTESIAN_POINT('',(-0.17581228449191,0.005,0.062346));
#1023=CARTESIAN_POINT('',(-0.17835,0.0075,-0.063946));
#1024=CARTESIAN_POINT('',(-0.17835,0.0009,-0.063946));
#1025=CARTESIAN_POINT('',(-0.17675,0.0009,-0.063946));
#1026=CARTESIAN_POINT('',(-0.17835,0.005,-0.063946));
#1027=CARTESIAN_POINT('',(-0.17675,0.005,-0.063946));
#1028=CARTESIAN_POINT('',(-0.18525,0.0075,-0.0713665));
#1029=CARTESIAN_POINT('',(-0.18525,0.0065,-0.071887));
#1030=CARTESIAN_POINT('',(-0.18525,0.0065,0.0680792720383956));
#1031=CARTESIAN_POINT('',(-0.18525,0.0065,-0.0697577138346729));
#1032=CARTESIAN_POINT('',(-0.18525,0.00767073012634696,-0.0698933997100718));
#1033=CARTESIAN_POINT('',(-0.18525,0.,-0.0690043735299817));
#1034=CARTESIAN_POINT('',(-0.18525,0.,-0.0713665));
#1035=CARTESIAN_POINT('',(-0.18525,0.,0.0688326123430868));
#1036=CARTESIAN_POINT('',(-0.18525,0.0234340904196804,0.0661166362174063));
#1037=CARTESIAN_POINT('',(0.18525,0.0075,-0.0713665));
#1038=CARTESIAN_POINT('',(0.18525,0.,-0.0713665));
#1039=CARTESIAN_POINT('',(0.18525,0.,0.0688326123430868));
#1040=CARTESIAN_POINT('',(0.18525,0.,-0.0690043735299817));
#1041=CARTESIAN_POINT('',(0.18525,0.00661512786225353,-0.0697710569821849));
#1042=CARTESIAN_POINT('',(0.18525,0.0065,-0.0697577138346729));
#1043=CARTESIAN_POINT('',(0.18525,0.0065,-0.0713665));
#1044=CARTESIAN_POINT('',(0.18525,0.0065,0.0680792720383956));
#1045=CARTESIAN_POINT('',(0.18525,-0.000230255724507066,0.0688592986381109));
#1046=CARTESIAN_POINT('',(0.,0.,-0.000520500000000035));
#1047=CARTESIAN_POINT('',(2.81475,0.,-0.0710177611868949));
#1048=CARTESIAN_POINT('',(0.18325,0.,-0.0710177611868949));
#1049=CARTESIAN_POINT('',(-0.18325,0.,-0.0710177611868949));
#1050=CARTESIAN_POINT('',(0.127484115504974,0.,-0.127156932946465));
#1051=CARTESIAN_POINT('',(0.12791872523942,0.,0.126547652822118));
#1052=CARTESIAN_POINT('',(0.18325,0.,0.070846));
#1053=CARTESIAN_POINT('',(0.,0.,0.070846));
#1054=CARTESIAN_POINT('',(-0.18325,0.,0.070846));
#1055=CARTESIAN_POINT('',(-0.127918725239418,0.,0.126547652822119));
#1056=CARTESIAN_POINT('',(-0.127484115504974,0.,-0.127156932946465));
#1057=CARTESIAN_POINT('',(0.18035,0.,0.));
#1058=CARTESIAN_POINT('',(0.18035,0.,-0.065946));
#1059=CARTESIAN_POINT('',(0.18035,0.,0.065946));
#1060=CARTESIAN_POINT('',(0.,0.,-0.065946));
#1061=CARTESIAN_POINT('',(-0.18035,0.,-0.065946));
#1062=CARTESIAN_POINT('',(-0.18035,0.,0.));
#1063=CARTESIAN_POINT('',(-0.18035,0.,0.065946));
#1064=CARTESIAN_POINT('',(0.,0.,0.065946));
#1065=CARTESIAN_POINT('',(0.,0.0009,-0.065946));
#1066=CARTESIAN_POINT('',(0.18035,0.0009,-0.065946));
#1067=CARTESIAN_POINT('',(0.18035,0.0009,-0.065946));
#1068=CARTESIAN_POINT('',(0.,0.0009,-0.065946));
#1069=CARTESIAN_POINT('',(-0.18035,0.0009,-0.065946));
#1070=CARTESIAN_POINT('',(-0.18035,0.0009,-0.065946));
#1071=CARTESIAN_POINT('',(-0.18035,0.0009,0.));
#1072=CARTESIAN_POINT('',(-0.18035,0.0009,0.));
#1073=CARTESIAN_POINT('',(-0.18035,0.0009,0.065946));
#1074=CARTESIAN_POINT('',(-0.18035,0.0009,0.065946));
#1075=CARTESIAN_POINT('',(0.,0.0009,0.065946));
#1076=CARTESIAN_POINT('',(0.,0.0009,0.065946));
#1077=CARTESIAN_POINT('',(0.18035,0.0009,0.065946));
#1078=CARTESIAN_POINT('',(0.18035,0.0009,0.065946));
#1079=CARTESIAN_POINT('',(0.18035,0.0009,0.));
#1080=CARTESIAN_POINT('',(0.18035,0.0009,0.));
#1081=CARTESIAN_POINT('',(0.,0.0009,0.));
#1082=CARTESIAN_POINT('',(2.81475,0.00375,-0.0714523805934475));
#1083=CARTESIAN_POINT('',(0.18525,0.00638487213774647,-0.071757758344074));
#1084=CARTESIAN_POINT('',(-0.18325,0.00638487213774647,-0.071757758344074));
#1085=CARTESIAN_POINT('',(0.18325,0.00638487213774647,-0.071757758344074));
#1086=CARTESIAN_POINT('',(0.18325,7.25926631181288E-19,-0.0710177611868949));
#1087=CARTESIAN_POINT('',(-0.18325,0.00375,-0.0714523805934475));
#1088=CARTESIAN_POINT('',(2.81475,0.00375,0.0704113805934474));
#1089=CARTESIAN_POINT('',(0.18325,0.0065,0.0700926596953088));
#1090=CARTESIAN_POINT('',(0.18325,0.00661512786225353,0.0700793165477967));
#1091=CARTESIAN_POINT('',(-0.18525,0.00661512786225353,0.0700793165477967));
#1092=CARTESIAN_POINT('',(-0.18325,0.00661512786225353,0.0700793165477967));
#1093=CARTESIAN_POINT('',(-0.18325,0.00375,0.0704113805934474));
#1094=CARTESIAN_POINT('',(-0.18525,0.0065,-0.0713665));
#1095=CARTESIAN_POINT('',(-0.185157938512444,0.00659206148755547,-0.0715731950409015));
#1096=CARTESIAN_POINT('',(-0.184307563931127,0.0074424360688732,-0.0708156853435805));
#1097=CARTESIAN_POINT('',(-0.184696045177562,0.00705395482243809,-0.0703795792733144));
#1098=CARTESIAN_POINT('',(-0.229716409962696,-0.0379664099626953,0.0284688021445285));
#1099=CARTESIAN_POINT('',(2.81475,0.00661512786225353,0.0700793165477967));
#1100=CARTESIAN_POINT('',(0.990405714117174,0.813770841979514,-0.836027502781576));
#1101=CARTESIAN_POINT('',(0.736321662900755,-0.912956535038587,1.10238341852366));
#1102=CARTESIAN_POINT('',(0.,0.0075,-0.0707644076631295));
#1103=CARTESIAN_POINT('',(0.11829369974349,0.0734563002565103,-0.0120108440673088));
#1104=CARTESIAN_POINT('',(0.184307563931127,0.0074424360688732,-0.0708156853435805));
#1105=CARTESIAN_POINT('',(0.118367615080103,-0.0584975127821567,-0.129554683183923));
#1106=CARTESIAN_POINT('',(-0.118367615080103,-0.0584975127821567,-0.129554683183923));
#1107=CARTESIAN_POINT('',(0.18425,0.0075,-0.000520500000000035));
#1108=CARTESIAN_POINT('',(0.208477056879625,-0.0167270568796246,-0.0436831977735462));
#1109=CARTESIAN_POINT('',(0.206409123303142,-0.0146591233031419,0.0492308240237509));
#1110=CARTESIAN_POINT('',(0.18325,0.00375,-0.0714523805934475));
#1111=CARTESIAN_POINT('',(0.18325,0.00375,0.0704113805934474));
#1112=CARTESIAN_POINT('',(-0.18525,0.00767073012634696,-0.0698933997100718));
#1113=CARTESIAN_POINT('',(-0.18525,0.0234340904196804,0.0661166362174063));
#1114=CARTESIAN_POINT('',(-0.17835,0.005,-0.063946));
#1115=CARTESIAN_POINT('',(-0.17835,0.005,-0.063946));
#1116=CARTESIAN_POINT('',(0.,0.005,-0.000839220898138621));
#1117=CARTESIAN_POINT('',(-0.17835,0.005,0.063946));
#1118=CARTESIAN_POINT('',(-0.17835,0.005,0.063946));
#1119=CARTESIAN_POINT('',(0.,0.005,-0.000839220898138621));
#1120=CARTESIAN_POINT('',(0.17835,0.005,0.063946));
#1121=CARTESIAN_POINT('',(0.17835,0.005,0.063946));
#1122=CARTESIAN_POINT('',(0.,0.005,-0.000839220898138621));
#1123=CARTESIAN_POINT('',(0.17835,0.005,-0.063946));
#1124=CARTESIAN_POINT('',(0.17835,0.005,-0.063946));
#1125=CARTESIAN_POINT('',(0.,0.005,-0.000839220898138621));
#1126=MECHANICAL_DESIGN_GEOMETRIC_PRESENTATION_REPRESENTATION('',(#691),
#1127);
#1127=(
GEOMETRIC_REPRESENTATION_CONTEXT(3)
GLOBAL_UNCERTAINTY_ASSIGNED_CONTEXT((#1128))
GLOBAL_UNIT_ASSIGNED_CONTEXT((#1131,#1130,#1129))
REPRESENTATION_CONTEXT('Part 1','TOP_LEVEL_ASSEMBLY_PART')
);
#1128=UNCERTAINTY_MEASURE_WITH_UNIT(LENGTH_MEASURE(1.E-8),#1131,
'DISTANCE_ACCURACY_VALUE','Maximum Tolerance applied to model');
#1129=(
NAMED_UNIT(*)
SI_UNIT($,.STERADIAN.)
SOLID_ANGLE_UNIT()
);
#1130=(
NAMED_UNIT(*)
PLANE_ANGLE_UNIT()
SI_UNIT($,.RADIAN.)
);
#1131=(
LENGTH_UNIT()
NAMED_UNIT(*)
SI_UNIT($,.METRE.)
);
#1132=PRODUCT_DEFINITION_SHAPE('','',#1133);
#1133=PRODUCT_DEFINITION('','',#1135,#1134);
#1134=PRODUCT_DEFINITION_CONTEXT('',#1141,'design');
#1135=PRODUCT_DEFINITION_FORMATION_WITH_SPECIFIED_SOURCE('','',#1137,
 .NOT_KNOWN.);
#1136=PRODUCT_RELATED_PRODUCT_CATEGORY('','',(#1137));
#1137=PRODUCT('Part 1','Part 1','Part 1',(#1139));
#1138=PRODUCT_CATEGORY('','');
#1139=PRODUCT_CONTEXT('',#1141,'mechanical');
#1140=APPLICATION_PROTOCOL_DEFINITION('international standard',
'ap242_managed_model_based_3d_engineering',2020,#1141);
#1141=APPLICATION_CONTEXT('managed model based 3d engineering');
ENDSEC;
END-ISO-10303-21;
