ISO-10303-21;
HEADER;
/* Generated by software containing ST-Developer
 * from STEP Tools, Inc. (www.steptools.com) 
 */
/* OPTION: using custom renumber hook */

FILE_DESCRIPTION(
/* description */ ('STEP AP242 Edition 2',
'CAx-IF Rec.Pracs.---Representation and Presentation of Product Manufa
cturing Information (PMI)---4.0---2014-10-13',
'CAx-IF Rec.Pracs.---3D Tessellated Geometry---0.4---2014-09-14','2;1',
'CAx-IF Rec.Pracs.---User Defined Attributes---1.5---2016-08-15'),
/* implementation_level */ '2;1');

FILE_NAME(
/* name */ 'Case Bottom',
/* time_stamp */ '2026-09-29T01:33:33Z',
/* author */ (''),
/* organization */ (''),
/* preprocessor_version */ 'ST-DEVELOPER v20',
/* originating_system */ 'ONSHAPE BY PTC INC, 1.221',
/* authorisation */ '  ');

FILE_SCHEMA (('AP242_MANAGED_MODEL_BASED_3D_ENGINEERING_MIM_LF { 1 0 10303 442 3 1 4 }'));
ENDSEC;

DATA;
#10=SHAPE_REPRESENTATION_RELATIONSHIP('','',#894,#11);
#11=ADVANCED_BREP_SHAPE_REPRESENTATION('',(#892),#1477);
#12=CYLINDRICAL_SURFACE('',#926,0.00149999999999995);
#13=CYLINDRICAL_SURFACE('',#935,0.009);
#14=CYLINDRICAL_SURFACE('',#936,0.009);
#15=CYLINDRICAL_SURFACE('',#938,0.0015);
#16=CYLINDRICAL_SURFACE('',#941,0.0015);
#17=CYLINDRICAL_SURFACE('',#949,0.0015);
#18=CYLINDRICAL_SURFACE('',#952,0.0015);
#19=CYLINDRICAL_SURFACE('',#955,0.0015);
#20=CYLINDRICAL_SURFACE('',#958,0.0015);
#21=CYLINDRICAL_SURFACE('',#961,0.006);
#22=CYLINDRICAL_SURFACE('',#964,0.006);
#23=CYLINDRICAL_SURFACE('',#967,0.006);
#24=CYLINDRICAL_SURFACE('',#970,0.006);
#25=CYLINDRICAL_SURFACE('',#973,0.006);
#26=ELLIPSE('',#904,0.00212132034355956,0.00149999999999995);
#27=CIRCLE('',#898,0.0015);
#28=CIRCLE('',#899,0.0015);
#29=CIRCLE('',#900,0.0015);
#30=CIRCLE('',#901,0.0015);
#31=CIRCLE('',#906,0.006);
#32=CIRCLE('',#907,0.006);
#33=CIRCLE('',#908,0.006);
#34=CIRCLE('',#909,0.006);
#35=CIRCLE('',#910,0.006);
#36=CIRCLE('',#911,0.0015);
#37=CIRCLE('',#912,0.0015);
#38=CIRCLE('',#913,0.0015);
#39=CIRCLE('',#915,0.0015);
#40=CIRCLE('',#917,0.009);
#41=CIRCLE('',#918,0.009);
#42=CIRCLE('',#930,0.009);
#43=CIRCLE('',#931,0.009);
#44=CIRCLE('',#933,0.009);
#45=CIRCLE('',#939,0.0015);
#46=CIRCLE('',#942,0.0015);
#47=CIRCLE('',#950,0.0015);
#48=CIRCLE('',#953,0.0015);
#49=CIRCLE('',#956,0.0015);
#50=CIRCLE('',#959,0.0015);
#51=CIRCLE('',#962,0.006);
#52=CIRCLE('',#965,0.006);
#53=CIRCLE('',#968,0.006);
#54=CIRCLE('',#971,0.006);
#55=CIRCLE('',#974,0.006);
#56=ORIENTED_EDGE('',*,*,#276,.F.);
#57=ORIENTED_EDGE('',*,*,#277,.T.);
#58=ORIENTED_EDGE('',*,*,#278,.F.);
#59=ORIENTED_EDGE('',*,*,#279,.T.);
#60=ORIENTED_EDGE('',*,*,#280,.F.);
#61=ORIENTED_EDGE('',*,*,#281,.F.);
#62=ORIENTED_EDGE('',*,*,#282,.F.);
#63=ORIENTED_EDGE('',*,*,#283,.T.);
#64=ORIENTED_EDGE('',*,*,#284,.T.);
#65=ORIENTED_EDGE('',*,*,#285,.F.);
#66=ORIENTED_EDGE('',*,*,#286,.T.);
#67=ORIENTED_EDGE('',*,*,#287,.F.);
#68=ORIENTED_EDGE('',*,*,#288,.F.);
#69=ORIENTED_EDGE('',*,*,#289,.T.);
#70=ORIENTED_EDGE('',*,*,#290,.T.);
#71=ORIENTED_EDGE('',*,*,#291,.T.);
#72=ORIENTED_EDGE('',*,*,#292,.F.);
#73=ORIENTED_EDGE('',*,*,#293,.T.);
#74=ORIENTED_EDGE('',*,*,#294,.F.);
#75=ORIENTED_EDGE('',*,*,#295,.F.);
#76=ORIENTED_EDGE('',*,*,#296,.T.);
#77=ORIENTED_EDGE('',*,*,#297,.T.);
#78=ORIENTED_EDGE('',*,*,#298,.T.);
#79=ORIENTED_EDGE('',*,*,#296,.F.);
#80=ORIENTED_EDGE('',*,*,#299,.F.);
#81=ORIENTED_EDGE('',*,*,#300,.F.);
#82=ORIENTED_EDGE('',*,*,#301,.F.);
#83=ORIENTED_EDGE('',*,*,#302,.F.);
#84=ORIENTED_EDGE('',*,*,#303,.F.);
#85=ORIENTED_EDGE('',*,*,#304,.F.);
#86=ORIENTED_EDGE('',*,*,#305,.F.);
#87=ORIENTED_EDGE('',*,*,#306,.F.);
#88=ORIENTED_EDGE('',*,*,#307,.F.);
#89=ORIENTED_EDGE('',*,*,#308,.F.);
#90=ORIENTED_EDGE('',*,*,#309,.F.);
#91=ORIENTED_EDGE('',*,*,#310,.F.);
#92=ORIENTED_EDGE('',*,*,#311,.T.);
#93=ORIENTED_EDGE('',*,*,#312,.T.);
#94=ORIENTED_EDGE('',*,*,#276,.T.);
#95=ORIENTED_EDGE('',*,*,#313,.T.);
#96=ORIENTED_EDGE('',*,*,#314,.F.);
#97=ORIENTED_EDGE('',*,*,#315,.T.);
#98=ORIENTED_EDGE('',*,*,#316,.F.);
#99=ORIENTED_EDGE('',*,*,#317,.T.);
#100=ORIENTED_EDGE('',*,*,#318,.T.);
#101=ORIENTED_EDGE('',*,*,#319,.T.);
#102=ORIENTED_EDGE('',*,*,#320,.T.);
#103=ORIENTED_EDGE('',*,*,#321,.F.);
#104=ORIENTED_EDGE('',*,*,#322,.F.);
#105=ORIENTED_EDGE('',*,*,#294,.T.);
#106=ORIENTED_EDGE('',*,*,#323,.F.);
#107=ORIENTED_EDGE('',*,*,#324,.T.);
#108=ORIENTED_EDGE('',*,*,#325,.T.);
#109=ORIENTED_EDGE('',*,*,#326,.F.);
#110=ORIENTED_EDGE('',*,*,#327,.T.);
#111=ORIENTED_EDGE('',*,*,#328,.F.);
#112=ORIENTED_EDGE('',*,*,#329,.T.);
#113=ORIENTED_EDGE('',*,*,#330,.T.);
#114=ORIENTED_EDGE('',*,*,#301,.T.);
#115=ORIENTED_EDGE('',*,*,#331,.F.);
#116=ORIENTED_EDGE('',*,*,#326,.T.);
#117=ORIENTED_EDGE('',*,*,#332,.F.);
#118=ORIENTED_EDGE('',*,*,#288,.T.);
#119=ORIENTED_EDGE('',*,*,#333,.T.);
#120=ORIENTED_EDGE('',*,*,#334,.T.);
#121=ORIENTED_EDGE('',*,*,#293,.F.);
#122=ORIENTED_EDGE('',*,*,#335,.F.);
#123=ORIENTED_EDGE('',*,*,#336,.T.);
#124=ORIENTED_EDGE('',*,*,#337,.T.);
#125=ORIENTED_EDGE('',*,*,#333,.F.);
#126=ORIENTED_EDGE('',*,*,#287,.T.);
#127=ORIENTED_EDGE('',*,*,#338,.T.);
#128=ORIENTED_EDGE('',*,*,#323,.T.);
#129=ORIENTED_EDGE('',*,*,#339,.F.);
#130=ORIENTED_EDGE('',*,*,#340,.T.);
#131=ORIENTED_EDGE('',*,*,#316,.T.);
#132=ORIENTED_EDGE('',*,*,#341,.T.);
#133=ORIENTED_EDGE('',*,*,#342,.F.);
#134=ORIENTED_EDGE('',*,*,#343,.T.);
#135=ORIENTED_EDGE('',*,*,#311,.F.);
#136=ORIENTED_EDGE('',*,*,#344,.T.);
#137=ORIENTED_EDGE('',*,*,#314,.T.);
#138=ORIENTED_EDGE('',*,*,#345,.T.);
#139=ORIENTED_EDGE('',*,*,#346,.T.);
#140=ORIENTED_EDGE('',*,*,#347,.T.);
#141=ORIENTED_EDGE('',*,*,#289,.F.);
#142=ORIENTED_EDGE('',*,*,#332,.T.);
#143=ORIENTED_EDGE('',*,*,#325,.F.);
#144=ORIENTED_EDGE('',*,*,#348,.F.);
#145=ORIENTED_EDGE('',*,*,#286,.F.);
#146=ORIENTED_EDGE('',*,*,#348,.T.);
#147=ORIENTED_EDGE('',*,*,#324,.F.);
#148=ORIENTED_EDGE('',*,*,#338,.F.);
#149=ORIENTED_EDGE('',*,*,#331,.T.);
#150=ORIENTED_EDGE('',*,*,#300,.T.);
#151=ORIENTED_EDGE('',*,*,#349,.T.);
#152=ORIENTED_EDGE('',*,*,#327,.F.);
#153=ORIENTED_EDGE('',*,*,#295,.T.);
#154=ORIENTED_EDGE('',*,*,#322,.T.);
#155=ORIENTED_EDGE('',*,*,#349,.F.);
#156=ORIENTED_EDGE('',*,*,#299,.T.);
#157=ORIENTED_EDGE('',*,*,#309,.T.);
#158=ORIENTED_EDGE('',*,*,#330,.F.);
#159=ORIENTED_EDGE('',*,*,#350,.T.);
#160=ORIENTED_EDGE('',*,*,#351,.T.);
#161=ORIENTED_EDGE('',*,*,#321,.T.);
#162=ORIENTED_EDGE('',*,*,#352,.F.);
#163=ORIENTED_EDGE('',*,*,#302,.T.);
#164=ORIENTED_EDGE('',*,*,#353,.F.);
#165=ORIENTED_EDGE('',*,*,#354,.T.);
#166=ORIENTED_EDGE('',*,*,#328,.T.);
#167=ORIENTED_EDGE('',*,*,#355,.T.);
#168=ORIENTED_EDGE('',*,*,#351,.F.);
#169=ORIENTED_EDGE('',*,*,#356,.T.);
#170=ORIENTED_EDGE('',*,*,#353,.T.);
#171=ORIENTED_EDGE('',*,*,#357,.T.);
#172=ORIENTED_EDGE('',*,*,#358,.T.);
#173=ORIENTED_EDGE('',*,*,#318,.F.);
#174=ORIENTED_EDGE('',*,*,#336,.F.);
#175=ORIENTED_EDGE('',*,*,#359,.F.);
#176=ORIENTED_EDGE('',*,*,#297,.F.);
#177=ORIENTED_EDGE('',*,*,#352,.T.);
#178=ORIENTED_EDGE('',*,*,#320,.F.);
#179=ORIENTED_EDGE('',*,*,#360,.F.);
#180=ORIENTED_EDGE('',*,*,#361,.T.);
#181=ORIENTED_EDGE('',*,*,#358,.F.);
#182=ORIENTED_EDGE('',*,*,#362,.T.);
#183=ORIENTED_EDGE('',*,*,#360,.T.);
#184=ORIENTED_EDGE('',*,*,#319,.F.);
#185=ORIENTED_EDGE('',*,*,#356,.F.);
#186=ORIENTED_EDGE('',*,*,#350,.F.);
#187=ORIENTED_EDGE('',*,*,#329,.F.);
#188=ORIENTED_EDGE('',*,*,#354,.F.);
#189=ORIENTED_EDGE('',*,*,#357,.F.);
#190=ORIENTED_EDGE('',*,*,#355,.F.);
#191=ORIENTED_EDGE('',*,*,#334,.F.);
#192=ORIENTED_EDGE('',*,*,#337,.F.);
#193=ORIENTED_EDGE('',*,*,#361,.F.);
#194=ORIENTED_EDGE('',*,*,#362,.F.);
#195=ORIENTED_EDGE('',*,*,#359,.T.);
#196=ORIENTED_EDGE('',*,*,#335,.T.);
#197=ORIENTED_EDGE('',*,*,#292,.T.);
#198=ORIENTED_EDGE('',*,*,#298,.F.);
#199=ORIENTED_EDGE('',*,*,#363,.F.);
#200=ORIENTED_EDGE('',*,*,#310,.T.);
#201=ORIENTED_EDGE('',*,*,#363,.T.);
#202=ORIENTED_EDGE('',*,*,#364,.F.);
#203=ORIENTED_EDGE('',*,*,#308,.T.);
#204=ORIENTED_EDGE('',*,*,#364,.T.);
#205=ORIENTED_EDGE('',*,*,#283,.F.);
#206=ORIENTED_EDGE('',*,*,#365,.F.);
#207=ORIENTED_EDGE('',*,*,#366,.T.);
#208=ORIENTED_EDGE('',*,*,#367,.T.);
#209=ORIENTED_EDGE('',*,*,#282,.T.);
#210=ORIENTED_EDGE('',*,*,#368,.F.);
#211=ORIENTED_EDGE('',*,*,#369,.F.);
#212=ORIENTED_EDGE('',*,*,#365,.T.);
#213=ORIENTED_EDGE('',*,*,#285,.T.);
#214=ORIENTED_EDGE('',*,*,#370,.F.);
#215=ORIENTED_EDGE('',*,*,#371,.F.);
#216=ORIENTED_EDGE('',*,*,#368,.T.);
#217=ORIENTED_EDGE('',*,*,#284,.F.);
#218=ORIENTED_EDGE('',*,*,#367,.F.);
#219=ORIENTED_EDGE('',*,*,#372,.T.);
#220=ORIENTED_EDGE('',*,*,#370,.T.);
#221=ORIENTED_EDGE('',*,*,#278,.T.);
#222=ORIENTED_EDGE('',*,*,#373,.T.);
#223=ORIENTED_EDGE('',*,*,#342,.T.);
#224=ORIENTED_EDGE('',*,*,#374,.T.);
#225=ORIENTED_EDGE('',*,*,#339,.T.);
#226=ORIENTED_EDGE('',*,*,#375,.T.);
#227=ORIENTED_EDGE('',*,*,#346,.F.);
#228=ORIENTED_EDGE('',*,*,#376,.T.);
#229=ORIENTED_EDGE('',*,*,#366,.F.);
#230=ORIENTED_EDGE('',*,*,#369,.T.);
#231=ORIENTED_EDGE('',*,*,#371,.T.);
#232=ORIENTED_EDGE('',*,*,#372,.F.);
#233=ORIENTED_EDGE('',*,*,#377,.F.);
#234=ORIENTED_EDGE('',*,*,#281,.T.);
#235=ORIENTED_EDGE('',*,*,#377,.T.);
#236=ORIENTED_EDGE('',*,*,#378,.T.);
#237=ORIENTED_EDGE('',*,*,#290,.F.);
#238=ORIENTED_EDGE('',*,*,#378,.F.);
#239=ORIENTED_EDGE('',*,*,#379,.F.);
#240=ORIENTED_EDGE('',*,*,#280,.T.);
#241=ORIENTED_EDGE('',*,*,#379,.T.);
#242=ORIENTED_EDGE('',*,*,#380,.T.);
#243=ORIENTED_EDGE('',*,*,#291,.F.);
#244=ORIENTED_EDGE('',*,*,#380,.F.);
#245=ORIENTED_EDGE('',*,*,#381,.F.);
#246=ORIENTED_EDGE('',*,*,#307,.T.);
#247=ORIENTED_EDGE('',*,*,#381,.T.);
#248=ORIENTED_EDGE('',*,*,#382,.F.);
#249=ORIENTED_EDGE('',*,*,#306,.T.);
#250=ORIENTED_EDGE('',*,*,#382,.T.);
#251=ORIENTED_EDGE('',*,*,#383,.F.);
#252=ORIENTED_EDGE('',*,*,#305,.T.);
#253=ORIENTED_EDGE('',*,*,#383,.T.);
#254=ORIENTED_EDGE('',*,*,#384,.F.);
#255=ORIENTED_EDGE('',*,*,#304,.T.);
#256=ORIENTED_EDGE('',*,*,#384,.T.);
#257=ORIENTED_EDGE('',*,*,#385,.F.);
#258=ORIENTED_EDGE('',*,*,#303,.T.);
#259=ORIENTED_EDGE('',*,*,#385,.T.);
#260=ORIENTED_EDGE('',*,*,#373,.F.);
#261=ORIENTED_EDGE('',*,*,#277,.F.);
#262=ORIENTED_EDGE('',*,*,#312,.F.);
#263=ORIENTED_EDGE('',*,*,#343,.F.);
#264=ORIENTED_EDGE('',*,*,#374,.F.);
#265=ORIENTED_EDGE('',*,*,#344,.F.);
#266=ORIENTED_EDGE('',*,*,#317,.F.);
#267=ORIENTED_EDGE('',*,*,#340,.F.);
#268=ORIENTED_EDGE('',*,*,#376,.F.);
#269=ORIENTED_EDGE('',*,*,#345,.F.);
#270=ORIENTED_EDGE('',*,*,#313,.F.);
#271=ORIENTED_EDGE('',*,*,#279,.F.);
#272=ORIENTED_EDGE('',*,*,#375,.F.);
#273=ORIENTED_EDGE('',*,*,#341,.F.);
#274=ORIENTED_EDGE('',*,*,#315,.F.);
#275=ORIENTED_EDGE('',*,*,#347,.F.);
#276=EDGE_CURVE('',#386,#387,#467,.T.);
#277=EDGE_CURVE('',#386,#388,#468,.T.);
#278=EDGE_CURVE('',#389,#388,#469,.T.);
#279=EDGE_CURVE('',#389,#387,#470,.T.);
#280=EDGE_CURVE('',#390,#390,#27,.T.);
#281=EDGE_CURVE('',#391,#391,#28,.T.);
#282=EDGE_CURVE('',#392,#393,#471,.T.);
#283=EDGE_CURVE('',#392,#394,#472,.T.);
#284=EDGE_CURVE('',#394,#395,#473,.T.);
#285=EDGE_CURVE('',#393,#395,#474,.T.);
#286=EDGE_CURVE('',#396,#397,#475,.T.);
#287=EDGE_CURVE('',#398,#397,#476,.T.);
#288=EDGE_CURVE('',#399,#398,#477,.T.);
#289=EDGE_CURVE('',#399,#396,#478,.T.);
#290=EDGE_CURVE('',#400,#400,#29,.T.);
#291=EDGE_CURVE('',#401,#401,#30,.T.);
#292=EDGE_CURVE('',#402,#403,#479,.T.);
#293=EDGE_CURVE('',#402,#404,#480,.T.);
#294=EDGE_CURVE('',#405,#404,#481,.T.);
#295=EDGE_CURVE('',#406,#405,#482,.T.);
#296=EDGE_CURVE('',#406,#403,#483,.F.);
#297=EDGE_CURVE('',#407,#408,#484,.F.);
#298=EDGE_CURVE('',#408,#403,#485,.T.);
#299=EDGE_CURVE('',#409,#406,#26,.F.);
#300=EDGE_CURVE('',#410,#409,#486,.T.);
#301=EDGE_CURVE('',#411,#410,#487,.F.);
#302=EDGE_CURVE('',#407,#411,#488,.F.);
#303=EDGE_CURVE('',#412,#412,#31,.T.);
#304=EDGE_CURVE('',#413,#413,#32,.T.);
#305=EDGE_CURVE('',#414,#414,#33,.T.);
#306=EDGE_CURVE('',#415,#415,#34,.T.);
#307=EDGE_CURVE('',#416,#416,#35,.T.);
#308=EDGE_CURVE('',#417,#417,#36,.T.);
#309=EDGE_CURVE('',#418,#418,#37,.T.);
#310=EDGE_CURVE('',#419,#419,#38,.T.);
#311=EDGE_CURVE('',#420,#421,#489,.T.);
#312=EDGE_CURVE('',#421,#386,#490,.F.);
#313=EDGE_CURVE('',#387,#422,#491,.T.);
#314=EDGE_CURVE('',#423,#422,#492,.T.);
#315=EDGE_CURVE('',#423,#424,#493,.F.);
#316=EDGE_CURVE('',#425,#424,#494,.T.);
#317=EDGE_CURVE('',#425,#420,#495,.T.);
#318=EDGE_CURVE('',#426,#427,#496,.T.);
#319=EDGE_CURVE('',#427,#428,#497,.T.);
#320=EDGE_CURVE('',#428,#429,#498,.T.);
#321=EDGE_CURVE('',#426,#429,#499,.T.);
#322=EDGE_CURVE('',#405,#430,#39,.T.);
#323=EDGE_CURVE('',#431,#404,#500,.T.);
#324=EDGE_CURVE('',#431,#432,#501,.T.);
#325=EDGE_CURVE('',#432,#433,#502,.T.);
#326=EDGE_CURVE('',#434,#433,#503,.T.);
#327=EDGE_CURVE('',#434,#430,#504,.T.);
#328=EDGE_CURVE('',#435,#436,#505,.T.);
#329=EDGE_CURVE('',#435,#437,#40,.T.);
#330=EDGE_CURVE('',#437,#411,#506,.T.);
#331=EDGE_CURVE('',#434,#410,#507,.T.);
#332=EDGE_CURVE('',#399,#433,#508,.T.);
#333=EDGE_CURVE('',#398,#438,#509,.T.);
#334=EDGE_CURVE('',#438,#436,#41,.T.);
#335=EDGE_CURVE('',#439,#402,#510,.T.);
#336=EDGE_CURVE('',#439,#440,#511,.T.);
#337=EDGE_CURVE('',#440,#438,#512,.T.);
#338=EDGE_CURVE('',#397,#431,#513,.T.);
#339=EDGE_CURVE('',#441,#442,#514,.T.);
#340=EDGE_CURVE('',#441,#425,#515,.T.);
#341=EDGE_CURVE('',#424,#442,#516,.T.);
#342=EDGE_CURVE('',#443,#444,#517,.T.);
#343=EDGE_CURVE('',#443,#421,#518,.T.);
#344=EDGE_CURVE('',#420,#444,#519,.T.);
#345=EDGE_CURVE('',#422,#445,#520,.T.);
#346=EDGE_CURVE('',#445,#446,#521,.T.);
#347=EDGE_CURVE('',#446,#423,#522,.T.);
#348=EDGE_CURVE('',#396,#432,#523,.T.);
#349=EDGE_CURVE('',#409,#430,#524,.T.);
#350=EDGE_CURVE('',#437,#447,#525,.F.);
#351=EDGE_CURVE('',#447,#426,#526,.T.);
#352=EDGE_CURVE('',#407,#429,#527,.T.);
#353=EDGE_CURVE('',#448,#449,#528,.T.);
#354=EDGE_CURVE('',#448,#435,#529,.T.);
#355=EDGE_CURVE('',#436,#449,#530,.F.);
#356=EDGE_CURVE('',#447,#448,#42,.T.);
#357=EDGE_CURVE('',#449,#450,#43,.T.);
#358=EDGE_CURVE('',#450,#427,#531,.T.);
#359=EDGE_CURVE('',#408,#439,#532,.T.);
#360=EDGE_CURVE('',#451,#428,#533,.T.);
#361=EDGE_CURVE('',#451,#440,#44,.T.);
#362=EDGE_CURVE('',#450,#451,#534,.T.);
#363=EDGE_CURVE('',#452,#452,#45,.T.);
#364=EDGE_CURVE('',#453,#453,#46,.T.);
#365=EDGE_CURVE('',#454,#392,#535,.T.);
#366=EDGE_CURVE('',#454,#455,#536,.T.);
#367=EDGE_CURVE('',#455,#394,#537,.T.);
#368=EDGE_CURVE('',#456,#393,#538,.T.);
#369=EDGE_CURVE('',#454,#456,#539,.T.);
#370=EDGE_CURVE('',#457,#395,#540,.T.);
#371=EDGE_CURVE('',#456,#457,#541,.T.);
#372=EDGE_CURVE('',#455,#457,#542,.T.);
#373=EDGE_CURVE('',#388,#443,#543,.F.);
#374=EDGE_CURVE('',#444,#441,#544,.T.);
#375=EDGE_CURVE('',#442,#446,#545,.F.);
#376=EDGE_CURVE('',#445,#389,#546,.T.);
#377=EDGE_CURVE('',#458,#458,#47,.T.);
#378=EDGE_CURVE('',#459,#459,#48,.T.);
#379=EDGE_CURVE('',#460,#460,#49,.T.);
#380=EDGE_CURVE('',#461,#461,#50,.T.);
#381=EDGE_CURVE('',#462,#462,#51,.T.);
#382=EDGE_CURVE('',#463,#463,#52,.T.);
#383=EDGE_CURVE('',#464,#464,#53,.T.);
#384=EDGE_CURVE('',#465,#465,#54,.T.);
#385=EDGE_CURVE('',#466,#466,#55,.T.);
#386=VERTEX_POINT('',#1233);
#387=VERTEX_POINT('',#1234);
#388=VERTEX_POINT('',#1236);
#389=VERTEX_POINT('',#1238);
#390=VERTEX_POINT('',#1242);
#391=VERTEX_POINT('',#1244);
#392=VERTEX_POINT('',#1246);
#393=VERTEX_POINT('',#1247);
#394=VERTEX_POINT('',#1249);
#395=VERTEX_POINT('',#1251);
#396=VERTEX_POINT('',#1254);
#397=VERTEX_POINT('',#1255);
#398=VERTEX_POINT('',#1257);
#399=VERTEX_POINT('',#1259);
#400=VERTEX_POINT('',#1262);
#401=VERTEX_POINT('',#1264);
#402=VERTEX_POINT('',#1267);
#403=VERTEX_POINT('',#1268);
#404=VERTEX_POINT('',#1270);
#405=VERTEX_POINT('',#1272);
#406=VERTEX_POINT('',#1274);
#407=VERTEX_POINT('',#1278);
#408=VERTEX_POINT('',#1279);
#409=VERTEX_POINT('',#1282);
#410=VERTEX_POINT('',#1284);
#411=VERTEX_POINT('',#1286);
#412=VERTEX_POINT('',#1290);
#413=VERTEX_POINT('',#1292);
#414=VERTEX_POINT('',#1294);
#415=VERTEX_POINT('',#1296);
#416=VERTEX_POINT('',#1298);
#417=VERTEX_POINT('',#1300);
#418=VERTEX_POINT('',#1302);
#419=VERTEX_POINT('',#1304);
#420=VERTEX_POINT('',#1306);
#421=VERTEX_POINT('',#1307);
#422=VERTEX_POINT('',#1310);
#423=VERTEX_POINT('',#1312);
#424=VERTEX_POINT('',#1314);
#425=VERTEX_POINT('',#1316);
#426=VERTEX_POINT('',#1319);
#427=VERTEX_POINT('',#1320);
#428=VERTEX_POINT('',#1322);
#429=VERTEX_POINT('',#1324);
#430=VERTEX_POINT('',#1328);
#431=VERTEX_POINT('',#1330);
#432=VERTEX_POINT('',#1332);
#433=VERTEX_POINT('',#1334);
#434=VERTEX_POINT('',#1336);
#435=VERTEX_POINT('',#1340);
#436=VERTEX_POINT('',#1341);
#437=VERTEX_POINT('',#1343);
#438=VERTEX_POINT('',#1348);
#439=VERTEX_POINT('',#1352);
#440=VERTEX_POINT('',#1354);
#441=VERTEX_POINT('',#1359);
#442=VERTEX_POINT('',#1360);
#443=VERTEX_POINT('',#1365);
#444=VERTEX_POINT('',#1366);
#445=VERTEX_POINT('',#1371);
#446=VERTEX_POINT('',#1373);
#447=VERTEX_POINT('',#1383);
#448=VERTEX_POINT('',#1388);
#449=VERTEX_POINT('',#1389);
#450=VERTEX_POINT('',#1395);
#451=VERTEX_POINT('',#1400);
#452=VERTEX_POINT('',#1409);
#453=VERTEX_POINT('',#1413);
#454=VERTEX_POINT('',#1417);
#455=VERTEX_POINT('',#1419);
#456=VERTEX_POINT('',#1423);
#457=VERTEX_POINT('',#1427);
#458=VERTEX_POINT('',#1438);
#459=VERTEX_POINT('',#1442);
#460=VERTEX_POINT('',#1446);
#461=VERTEX_POINT('',#1450);
#462=VERTEX_POINT('',#1454);
#463=VERTEX_POINT('',#1458);
#464=VERTEX_POINT('',#1462);
#465=VERTEX_POINT('',#1466);
#466=VERTEX_POINT('',#1470);
#467=LINE('',#1232,#547);
#468=LINE('',#1235,#548);
#469=LINE('',#1237,#549);
#470=LINE('',#1239,#550);
#471=LINE('',#1245,#551);
#472=LINE('',#1248,#552);
#473=LINE('',#1250,#553);
#474=LINE('',#1252,#554);
#475=LINE('',#1253,#555);
#476=LINE('',#1256,#556);
#477=LINE('',#1258,#557);
#478=LINE('',#1260,#558);
#479=LINE('',#1266,#559);
#480=LINE('',#1269,#560);
#481=LINE('',#1271,#561);
#482=LINE('',#1273,#562);
#483=LINE('',#1275,#563);
#484=LINE('',#1277,#564);
#485=LINE('',#1280,#565);
#486=LINE('',#1283,#566);
#487=LINE('',#1285,#567);
#488=LINE('',#1287,#568);
#489=LINE('',#1305,#569);
#490=LINE('',#1308,#570);
#491=LINE('',#1309,#571);
#492=LINE('',#1311,#572);
#493=LINE('',#1313,#573);
#494=LINE('',#1315,#574);
#495=LINE('',#1317,#575);
#496=LINE('',#1318,#576);
#497=LINE('',#1321,#577);
#498=LINE('',#1323,#578);
#499=LINE('',#1325,#579);
#500=LINE('',#1329,#580);
#501=LINE('',#1331,#581);
#502=LINE('',#1333,#582);
#503=LINE('',#1335,#583);
#504=LINE('',#1337,#584);
#505=LINE('',#1339,#585);
#506=LINE('',#1344,#586);
#507=LINE('',#1345,#587);
#508=LINE('',#1346,#588);
#509=LINE('',#1347,#589);
#510=LINE('',#1351,#590);
#511=LINE('',#1353,#591);
#512=LINE('',#1355,#592);
#513=LINE('',#1356,#593);
#514=LINE('',#1358,#594);
#515=LINE('',#1361,#595);
#516=LINE('',#1362,#596);
#517=LINE('',#1364,#597);
#518=LINE('',#1367,#598);
#519=LINE('',#1368,#599);
#520=LINE('',#1370,#600);
#521=LINE('',#1372,#601);
#522=LINE('',#1374,#602);
#523=LINE('',#1376,#603);
#524=LINE('',#1379,#604);
#525=LINE('',#1382,#605);
#526=LINE('',#1384,#606);
#527=LINE('',#1385,#607);
#528=LINE('',#1387,#608);
#529=LINE('',#1390,#609);
#530=LINE('',#1391,#610);
#531=LINE('',#1396,#611);
#532=LINE('',#1398,#612);
#533=LINE('',#1399,#613);
#534=LINE('',#1403,#614);
#535=LINE('',#1416,#615);
#536=LINE('',#1418,#616);
#537=LINE('',#1420,#617);
#538=LINE('',#1422,#618);
#539=LINE('',#1424,#619);
#540=LINE('',#1426,#620);
#541=LINE('',#1428,#621);
#542=LINE('',#1430,#622);
#543=LINE('',#1432,#623);
#544=LINE('',#1433,#624);
#545=LINE('',#1434,#625);
#546=LINE('',#1435,#626);
#547=VECTOR('',#984,1.);
#548=VECTOR('',#985,1.);
#549=VECTOR('',#986,1.);
#550=VECTOR('',#987,1.);
#551=VECTOR('',#994,1.);
#552=VECTOR('',#995,1.);
#553=VECTOR('',#996,1.);
#554=VECTOR('',#997,1.);
#555=VECTOR('',#998,1.);
#556=VECTOR('',#999,1.);
#557=VECTOR('',#1000,1.);
#558=VECTOR('',#1001,1.);
#559=VECTOR('',#1008,1.);
#560=VECTOR('',#1009,1.);
#561=VECTOR('',#1010,1.);
#562=VECTOR('',#1011,1.);
#563=VECTOR('',#1012,1.);
#564=VECTOR('',#1015,1.);
#565=VECTOR('',#1016,1.);
#566=VECTOR('',#1019,1.);
#567=VECTOR('',#1020,1.);
#568=VECTOR('',#1021,1.);
#569=VECTOR('',#1040,1.);
#570=VECTOR('',#1041,1.);
#571=VECTOR('',#1042,1.);
#572=VECTOR('',#1043,1.);
#573=VECTOR('',#1044,1.);
#574=VECTOR('',#1045,1.);
#575=VECTOR('',#1046,1.);
#576=VECTOR('',#1047,1.);
#577=VECTOR('',#1048,1.);
#578=VECTOR('',#1049,1.);
#579=VECTOR('',#1050,1.);
#580=VECTOR('',#1055,1.);
#581=VECTOR('',#1056,1.);
#582=VECTOR('',#1057,1.);
#583=VECTOR('',#1058,1.);
#584=VECTOR('',#1059,1.);
#585=VECTOR('',#1062,1.);
#586=VECTOR('',#1065,1.);
#587=VECTOR('',#1066,1.);
#588=VECTOR('',#1067,1.);
#589=VECTOR('',#1068,1.);
#590=VECTOR('',#1073,1.);
#591=VECTOR('',#1074,1.);
#592=VECTOR('',#1075,1.);
#593=VECTOR('',#1076,1.);
#594=VECTOR('',#1079,1.);
#595=VECTOR('',#1080,1.);
#596=VECTOR('',#1081,1.);
#597=VECTOR('',#1084,1.);
#598=VECTOR('',#1085,1.);
#599=VECTOR('',#1086,1.);
#600=VECTOR('',#1089,1.);
#601=VECTOR('',#1090,1.);
#602=VECTOR('',#1091,1.);
#603=VECTOR('',#1094,1.);
#604=VECTOR('',#1099,1.);
#605=VECTOR('',#1104,1.);
#606=VECTOR('',#1105,1.);
#607=VECTOR('',#1106,1.);
#608=VECTOR('',#1109,1.);
#609=VECTOR('',#1110,1.);
#610=VECTOR('',#1111,1.);
#611=VECTOR('',#1118,1.);
#612=VECTOR('',#1121,1.);
#613=VECTOR('',#1122,1.);
#614=VECTOR('',#1127,1.);
#615=VECTOR('',#1148,1.);
#616=VECTOR('',#1149,1.);
#617=VECTOR('',#1150,1.);
#618=VECTOR('',#1153,1.);
#619=VECTOR('',#1154,1.);
#620=VECTOR('',#1157,1.);
#621=VECTOR('',#1158,1.);
#622=VECTOR('',#1161,1.);
#623=VECTOR('',#1164,1.);
#624=VECTOR('',#1165,1.);
#625=VECTOR('',#1166,1.);
#626=VECTOR('',#1167,1.);
#627=EDGE_LOOP('',(#56,#57,#58,#59));
#628=EDGE_LOOP('',(#60));
#629=EDGE_LOOP('',(#61));
#630=EDGE_LOOP('',(#62,#63,#64,#65));
#631=EDGE_LOOP('',(#66,#67,#68,#69));
#632=EDGE_LOOP('',(#70));
#633=EDGE_LOOP('',(#71));
#634=EDGE_LOOP('',(#72,#73,#74,#75,#76));
#635=EDGE_LOOP('',(#77,#78,#79,#80,#81,#82,#83));
#636=EDGE_LOOP('',(#84));
#637=EDGE_LOOP('',(#85));
#638=EDGE_LOOP('',(#86));
#639=EDGE_LOOP('',(#87));
#640=EDGE_LOOP('',(#88));
#641=EDGE_LOOP('',(#89));
#642=EDGE_LOOP('',(#90));
#643=EDGE_LOOP('',(#91));
#644=EDGE_LOOP('',(#92,#93,#94,#95,#96,#97,#98,#99));
#645=EDGE_LOOP('',(#100,#101,#102,#103));
#646=EDGE_LOOP('',(#104,#105,#106,#107,#108,#109,#110));
#647=EDGE_LOOP('',(#111,#112,#113,#114,#115,#116,#117,#118,#119,#120));
#648=EDGE_LOOP('',(#121,#122,#123,#124,#125,#126,#127,#128));
#649=EDGE_LOOP('',(#129,#130,#131,#132));
#650=EDGE_LOOP('',(#133,#134,#135,#136));
#651=EDGE_LOOP('',(#137,#138,#139,#140));
#652=EDGE_LOOP('',(#141,#142,#143,#144));
#653=EDGE_LOOP('',(#145,#146,#147,#148));
#654=EDGE_LOOP('',(#149,#150,#151,#152));
#655=EDGE_LOOP('',(#153,#154,#155,#156));
#656=EDGE_LOOP('',(#157));
#657=EDGE_LOOP('',(#158,#159,#160,#161,#162,#163));
#658=EDGE_LOOP('',(#164,#165,#166,#167));
#659=EDGE_LOOP('',(#168,#169,#170,#171,#172,#173));
#660=EDGE_LOOP('',(#174,#175,#176,#177,#178,#179,#180));
#661=EDGE_LOOP('',(#181,#182,#183,#184));
#662=EDGE_LOOP('',(#185,#186,#187,#188));
#663=EDGE_LOOP('',(#189,#190,#191,#192,#193,#194));
#664=EDGE_LOOP('',(#195,#196,#197,#198));
#665=EDGE_LOOP('',(#199));
#666=EDGE_LOOP('',(#200));
#667=EDGE_LOOP('',(#201));
#668=EDGE_LOOP('',(#202));
#669=EDGE_LOOP('',(#203));
#670=EDGE_LOOP('',(#204));
#671=EDGE_LOOP('',(#205,#206,#207,#208));
#672=EDGE_LOOP('',(#209,#210,#211,#212));
#673=EDGE_LOOP('',(#213,#214,#215,#216));
#674=EDGE_LOOP('',(#217,#218,#219,#220));
#675=EDGE_LOOP('',(#221,#222,#223,#224,#225,#226,#227,#228));
#676=EDGE_LOOP('',(#229,#230,#231,#232));
#677=EDGE_LOOP('',(#233));
#678=EDGE_LOOP('',(#234));
#679=EDGE_LOOP('',(#235));
#680=EDGE_LOOP('',(#236));
#681=EDGE_LOOP('',(#237));
#682=EDGE_LOOP('',(#238));
#683=EDGE_LOOP('',(#239));
#684=EDGE_LOOP('',(#240));
#685=EDGE_LOOP('',(#241));
#686=EDGE_LOOP('',(#242));
#687=EDGE_LOOP('',(#243));
#688=EDGE_LOOP('',(#244));
#689=EDGE_LOOP('',(#245));
#690=EDGE_LOOP('',(#246));
#691=EDGE_LOOP('',(#247));
#692=EDGE_LOOP('',(#248));
#693=EDGE_LOOP('',(#249));
#694=EDGE_LOOP('',(#250));
#695=EDGE_LOOP('',(#251));
#696=EDGE_LOOP('',(#252));
#697=EDGE_LOOP('',(#253));
#698=EDGE_LOOP('',(#254));
#699=EDGE_LOOP('',(#255));
#700=EDGE_LOOP('',(#256));
#701=EDGE_LOOP('',(#257));
#702=EDGE_LOOP('',(#258));
#703=EDGE_LOOP('',(#259));
#704=EDGE_LOOP('',(#260,#261,#262,#263));
#705=EDGE_LOOP('',(#264,#265,#266,#267));
#706=EDGE_LOOP('',(#268,#269,#270,#271));
#707=EDGE_LOOP('',(#272,#273,#274,#275));
#708=FACE_BOUND('',#627,.T.);
#709=FACE_BOUND('',#628,.T.);
#710=FACE_BOUND('',#629,.T.);
#711=FACE_BOUND('',#630,.T.);
#712=FACE_BOUND('',#631,.T.);
#713=FACE_BOUND('',#632,.T.);
#714=FACE_BOUND('',#633,.T.);
#715=FACE_BOUND('',#634,.T.);
#716=FACE_BOUND('',#635,.T.);
#717=FACE_BOUND('',#636,.T.);
#718=FACE_BOUND('',#637,.T.);
#719=FACE_BOUND('',#638,.T.);
#720=FACE_BOUND('',#639,.T.);
#721=FACE_BOUND('',#640,.T.);
#722=FACE_BOUND('',#641,.T.);
#723=FACE_BOUND('',#642,.T.);
#724=FACE_BOUND('',#643,.T.);
#725=FACE_BOUND('',#644,.T.);
#726=FACE_BOUND('',#645,.T.);
#727=FACE_BOUND('',#646,.T.);
#728=FACE_BOUND('',#647,.T.);
#729=FACE_BOUND('',#648,.T.);
#730=FACE_BOUND('',#649,.T.);
#731=FACE_BOUND('',#650,.T.);
#732=FACE_BOUND('',#651,.T.);
#733=FACE_BOUND('',#652,.T.);
#734=FACE_BOUND('',#653,.T.);
#735=FACE_BOUND('',#654,.T.);
#736=FACE_BOUND('',#655,.T.);
#737=FACE_BOUND('',#656,.T.);
#738=FACE_BOUND('',#657,.T.);
#739=FACE_BOUND('',#658,.T.);
#740=FACE_BOUND('',#659,.T.);
#741=FACE_BOUND('',#660,.T.);
#742=FACE_BOUND('',#661,.T.);
#743=FACE_BOUND('',#662,.T.);
#744=FACE_BOUND('',#663,.T.);
#745=FACE_BOUND('',#664,.T.);
#746=FACE_BOUND('',#665,.T.);
#747=FACE_BOUND('',#666,.T.);
#748=FACE_BOUND('',#667,.T.);
#749=FACE_BOUND('',#668,.T.);
#750=FACE_BOUND('',#669,.T.);
#751=FACE_BOUND('',#670,.T.);
#752=FACE_BOUND('',#671,.T.);
#753=FACE_BOUND('',#672,.T.);
#754=FACE_BOUND('',#673,.T.);
#755=FACE_BOUND('',#674,.T.);
#756=FACE_BOUND('',#675,.T.);
#757=FACE_BOUND('',#676,.T.);
#758=FACE_BOUND('',#677,.T.);
#759=FACE_BOUND('',#678,.T.);
#760=FACE_BOUND('',#679,.T.);
#761=FACE_BOUND('',#680,.T.);
#762=FACE_BOUND('',#681,.T.);
#763=FACE_BOUND('',#682,.T.);
#764=FACE_BOUND('',#683,.T.);
#765=FACE_BOUND('',#684,.T.);
#766=FACE_BOUND('',#685,.T.);
#767=FACE_BOUND('',#686,.T.);
#768=FACE_BOUND('',#687,.T.);
#769=FACE_BOUND('',#688,.T.);
#770=FACE_BOUND('',#689,.T.);
#771=FACE_BOUND('',#690,.T.);
#772=FACE_BOUND('',#691,.T.);
#773=FACE_BOUND('',#692,.T.);
#774=FACE_BOUND('',#693,.T.);
#775=FACE_BOUND('',#694,.T.);
#776=FACE_BOUND('',#695,.T.);
#777=FACE_BOUND('',#696,.T.);
#778=FACE_BOUND('',#697,.T.);
#779=FACE_BOUND('',#698,.T.);
#780=FACE_BOUND('',#699,.T.);
#781=FACE_BOUND('',#700,.T.);
#782=FACE_BOUND('',#701,.T.);
#783=FACE_BOUND('',#702,.T.);
#784=FACE_BOUND('',#703,.T.);
#785=FACE_BOUND('',#704,.T.);
#786=FACE_BOUND('',#705,.T.);
#787=FACE_BOUND('',#706,.T.);
#788=FACE_BOUND('',#707,.T.);
#789=PLANE('',#896);
#790=PLANE('',#897);
#791=PLANE('',#902);
#792=PLANE('',#903);
#793=PLANE('',#905);
#794=PLANE('',#914);
#795=PLANE('',#916);
#796=PLANE('',#919);
#797=PLANE('',#920);
#798=PLANE('',#921);
#799=PLANE('',#922);
#800=PLANE('',#923);
#801=PLANE('',#924);
#802=PLANE('',#925);
#803=PLANE('',#927);
#804=PLANE('',#928);
#805=PLANE('',#929);
#806=PLANE('',#932);
#807=PLANE('',#934);
#808=PLANE('',#937);
#809=PLANE('',#940);
#810=PLANE('',#943);
#811=PLANE('',#944);
#812=PLANE('',#945);
#813=PLANE('',#946);
#814=PLANE('',#947);
#815=PLANE('',#948);
#816=PLANE('',#951);
#817=PLANE('',#954);
#818=PLANE('',#957);
#819=PLANE('',#960);
#820=PLANE('',#963);
#821=PLANE('',#966);
#822=PLANE('',#969);
#823=PLANE('',#972);
#824=PLANE('',#975);
#825=PLANE('',#976);
#826=PLANE('',#977);
#827=PLANE('',#978);
#828=PLANE('',#979);
#829=ADVANCED_FACE('',(#708),#789,.T.);
#830=ADVANCED_FACE('',(#709,#710,#711,#712,#713,#714),#790,.F.);
#831=ADVANCED_FACE('',(#715),#791,.F.);
#832=ADVANCED_FACE('',(#716),#792,.F.);
#833=ADVANCED_FACE('',(#717,#718,#719,#720,#721,#722,#723,#724,#725,#726),
#793,.F.);
#834=ADVANCED_FACE('',(#727),#794,.T.);
#835=ADVANCED_FACE('',(#728),#795,.F.);
#836=ADVANCED_FACE('',(#729),#796,.F.);
#837=ADVANCED_FACE('',(#730),#797,.F.);
#838=ADVANCED_FACE('',(#731),#798,.T.);
#839=ADVANCED_FACE('',(#732),#799,.F.);
#840=ADVANCED_FACE('',(#733),#800,.T.);
#841=ADVANCED_FACE('',(#734),#801,.T.);
#842=ADVANCED_FACE('',(#735),#802,.F.);
#843=ADVANCED_FACE('',(#736,#737),#12,.F.);
#844=ADVANCED_FACE('',(#738),#803,.F.);
#845=ADVANCED_FACE('',(#739),#804,.T.);
#846=ADVANCED_FACE('',(#740),#805,.T.);
#847=ADVANCED_FACE('',(#741),#806,.T.);
#848=ADVANCED_FACE('',(#742),#807,.T.);
#849=ADVANCED_FACE('',(#743),#13,.F.);
#850=ADVANCED_FACE('',(#744),#14,.F.);
#851=ADVANCED_FACE('',(#745),#808,.F.);
#852=ADVANCED_FACE('',(#746,#747),#15,.F.);
#853=ADVANCED_FACE('',(#748),#809,.T.);
#854=ADVANCED_FACE('',(#749,#750),#16,.F.);
#855=ADVANCED_FACE('',(#751),#810,.T.);
#856=ADVANCED_FACE('',(#752),#811,.T.);
#857=ADVANCED_FACE('',(#753),#812,.F.);
#858=ADVANCED_FACE('',(#754),#813,.F.);
#859=ADVANCED_FACE('',(#755),#814,.T.);
#860=ADVANCED_FACE('',(#756,#757),#815,.T.);
#861=ADVANCED_FACE('',(#758,#759),#17,.F.);
#862=ADVANCED_FACE('',(#760),#816,.T.);
#863=ADVANCED_FACE('',(#761,#762),#18,.F.);
#864=ADVANCED_FACE('',(#763),#817,.T.);
#865=ADVANCED_FACE('',(#764,#765),#19,.F.);
#866=ADVANCED_FACE('',(#766),#818,.T.);
#867=ADVANCED_FACE('',(#767,#768),#20,.F.);
#868=ADVANCED_FACE('',(#769),#819,.T.);
#869=ADVANCED_FACE('',(#770,#771),#21,.F.);
#870=ADVANCED_FACE('',(#772),#820,.T.);
#871=ADVANCED_FACE('',(#773,#774),#22,.F.);
#872=ADVANCED_FACE('',(#775),#821,.T.);
#873=ADVANCED_FACE('',(#776,#777),#23,.F.);
#874=ADVANCED_FACE('',(#778),#822,.T.);
#875=ADVANCED_FACE('',(#779,#780),#24,.F.);
#876=ADVANCED_FACE('',(#781),#823,.T.);
#877=ADVANCED_FACE('',(#782,#783),#25,.F.);
#878=ADVANCED_FACE('',(#784),#824,.T.);
#879=ADVANCED_FACE('',(#785),#825,.F.);
#880=ADVANCED_FACE('',(#786),#826,.T.);
#881=ADVANCED_FACE('',(#787),#827,.T.);
#882=ADVANCED_FACE('',(#788),#828,.F.);
#883=CLOSED_SHELL('',(#829,#830,#831,#832,#833,#834,#835,#836,#837,#838,
#839,#840,#841,#842,#843,#844,#845,#846,#847,#848,#849,#850,#851,#852,#853,
#854,#855,#856,#857,#858,#859,#860,#861,#862,#863,#864,#865,#866,#867,#868,
#869,#870,#871,#872,#873,#874,#875,#876,#877,#878,#879,#880,#881,#882));
#884=STYLED_ITEM('',(#885),#892);
#885=PRESENTATION_STYLE_ASSIGNMENT((#886));
#886=SURFACE_STYLE_USAGE(.BOTH.,#887);
#887=SURFACE_SIDE_STYLE('',(#888));
#888=SURFACE_STYLE_FILL_AREA(#889);
#889=FILL_AREA_STYLE('',(#890));
#890=FILL_AREA_STYLE_COLOUR('',#891);
#891=COLOUR_RGB('',0.262745098039216,0.282352941176471,0.301960784313725);
#892=MANIFOLD_SOLID_BREP('Part 1',#883);
#893=SHAPE_DEFINITION_REPRESENTATION(#1482,#894);
#894=SHAPE_REPRESENTATION('Part 1',(#895),#1477);
#895=AXIS2_PLACEMENT_3D('',#1230,#980,#981);
#896=AXIS2_PLACEMENT_3D('',#1231,#982,#983);
#897=AXIS2_PLACEMENT_3D('',#1240,#988,#989);
#898=AXIS2_PLACEMENT_3D('',#1241,#990,#991);
#899=AXIS2_PLACEMENT_3D('',#1243,#992,#993);
#900=AXIS2_PLACEMENT_3D('',#1261,#1002,#1003);
#901=AXIS2_PLACEMENT_3D('',#1263,#1004,#1005);
#902=AXIS2_PLACEMENT_3D('',#1265,#1006,#1007);
#903=AXIS2_PLACEMENT_3D('',#1276,#1013,#1014);
#904=AXIS2_PLACEMENT_3D('',#1281,#1017,#1018);
#905=AXIS2_PLACEMENT_3D('',#1288,#1022,#1023);
#906=AXIS2_PLACEMENT_3D('',#1289,#1024,#1025);
#907=AXIS2_PLACEMENT_3D('',#1291,#1026,#1027);
#908=AXIS2_PLACEMENT_3D('',#1293,#1028,#1029);
#909=AXIS2_PLACEMENT_3D('',#1295,#1030,#1031);
#910=AXIS2_PLACEMENT_3D('',#1297,#1032,#1033);
#911=AXIS2_PLACEMENT_3D('',#1299,#1034,#1035);
#912=AXIS2_PLACEMENT_3D('',#1301,#1036,#1037);
#913=AXIS2_PLACEMENT_3D('',#1303,#1038,#1039);
#914=AXIS2_PLACEMENT_3D('',#1326,#1051,#1052);
#915=AXIS2_PLACEMENT_3D('',#1327,#1053,#1054);
#916=AXIS2_PLACEMENT_3D('',#1338,#1060,#1061);
#917=AXIS2_PLACEMENT_3D('',#1342,#1063,#1064);
#918=AXIS2_PLACEMENT_3D('',#1349,#1069,#1070);
#919=AXIS2_PLACEMENT_3D('',#1350,#1071,#1072);
#920=AXIS2_PLACEMENT_3D('',#1357,#1077,#1078);
#921=AXIS2_PLACEMENT_3D('',#1363,#1082,#1083);
#922=AXIS2_PLACEMENT_3D('',#1369,#1087,#1088);
#923=AXIS2_PLACEMENT_3D('',#1375,#1092,#1093);
#924=AXIS2_PLACEMENT_3D('',#1377,#1095,#1096);
#925=AXIS2_PLACEMENT_3D('',#1378,#1097,#1098);
#926=AXIS2_PLACEMENT_3D('',#1380,#1100,#1101);
#927=AXIS2_PLACEMENT_3D('',#1381,#1102,#1103);
#928=AXIS2_PLACEMENT_3D('',#1386,#1107,#1108);
#929=AXIS2_PLACEMENT_3D('',#1392,#1112,#1113);
#930=AXIS2_PLACEMENT_3D('',#1393,#1114,#1115);
#931=AXIS2_PLACEMENT_3D('',#1394,#1116,#1117);
#932=AXIS2_PLACEMENT_3D('',#1397,#1119,#1120);
#933=AXIS2_PLACEMENT_3D('',#1401,#1123,#1124);
#934=AXIS2_PLACEMENT_3D('',#1402,#1125,#1126);
#935=AXIS2_PLACEMENT_3D('',#1404,#1128,#1129);
#936=AXIS2_PLACEMENT_3D('',#1405,#1130,#1131);
#937=AXIS2_PLACEMENT_3D('',#1406,#1132,#1133);
#938=AXIS2_PLACEMENT_3D('',#1407,#1134,#1135);
#939=AXIS2_PLACEMENT_3D('',#1408,#1136,#1137);
#940=AXIS2_PLACEMENT_3D('',#1410,#1138,#1139);
#941=AXIS2_PLACEMENT_3D('',#1411,#1140,#1141);
#942=AXIS2_PLACEMENT_3D('',#1412,#1142,#1143);
#943=AXIS2_PLACEMENT_3D('',#1414,#1144,#1145);
#944=AXIS2_PLACEMENT_3D('',#1415,#1146,#1147);
#945=AXIS2_PLACEMENT_3D('',#1421,#1151,#1152);
#946=AXIS2_PLACEMENT_3D('',#1425,#1155,#1156);
#947=AXIS2_PLACEMENT_3D('',#1429,#1159,#1160);
#948=AXIS2_PLACEMENT_3D('',#1431,#1162,#1163);
#949=AXIS2_PLACEMENT_3D('',#1436,#1168,#1169);
#950=AXIS2_PLACEMENT_3D('',#1437,#1170,#1171);
#951=AXIS2_PLACEMENT_3D('',#1439,#1172,#1173);
#952=AXIS2_PLACEMENT_3D('',#1440,#1174,#1175);
#953=AXIS2_PLACEMENT_3D('',#1441,#1176,#1177);
#954=AXIS2_PLACEMENT_3D('',#1443,#1178,#1179);
#955=AXIS2_PLACEMENT_3D('',#1444,#1180,#1181);
#956=AXIS2_PLACEMENT_3D('',#1445,#1182,#1183);
#957=AXIS2_PLACEMENT_3D('',#1447,#1184,#1185);
#958=AXIS2_PLACEMENT_3D('',#1448,#1186,#1187);
#959=AXIS2_PLACEMENT_3D('',#1449,#1188,#1189);
#960=AXIS2_PLACEMENT_3D('',#1451,#1190,#1191);
#961=AXIS2_PLACEMENT_3D('',#1452,#1192,#1193);
#962=AXIS2_PLACEMENT_3D('',#1453,#1194,#1195);
#963=AXIS2_PLACEMENT_3D('',#1455,#1196,#1197);
#964=AXIS2_PLACEMENT_3D('',#1456,#1198,#1199);
#965=AXIS2_PLACEMENT_3D('',#1457,#1200,#1201);
#966=AXIS2_PLACEMENT_3D('',#1459,#1202,#1203);
#967=AXIS2_PLACEMENT_3D('',#1460,#1204,#1205);
#968=AXIS2_PLACEMENT_3D('',#1461,#1206,#1207);
#969=AXIS2_PLACEMENT_3D('',#1463,#1208,#1209);
#970=AXIS2_PLACEMENT_3D('',#1464,#1210,#1211);
#971=AXIS2_PLACEMENT_3D('',#1465,#1212,#1213);
#972=AXIS2_PLACEMENT_3D('',#1467,#1214,#1215);
#973=AXIS2_PLACEMENT_3D('',#1468,#1216,#1217);
#974=AXIS2_PLACEMENT_3D('',#1469,#1218,#1219);
#975=AXIS2_PLACEMENT_3D('',#1471,#1220,#1221);
#976=AXIS2_PLACEMENT_3D('',#1472,#1222,#1223);
#977=AXIS2_PLACEMENT_3D('',#1473,#1224,#1225);
#978=AXIS2_PLACEMENT_3D('',#1474,#1226,#1227);
#979=AXIS2_PLACEMENT_3D('',#1475,#1228,#1229);
#980=DIRECTION('',(0.,0.,1.));
#981=DIRECTION('',(1.,0.,0.));
#982=DIRECTION('',(1.,0.,1.97239735756317E-16));
#983=DIRECTION('',(1.97239735756317E-16,0.,-1.));
#984=DIRECTION('',(-1.97239735756317E-16,0.,1.));
#985=DIRECTION('',(0.,1.,0.));
#986=DIRECTION('',(1.95731994637459E-16,0.123409795335924,-0.992355794266928));
#987=DIRECTION('',(0.,-1.,0.));
#988=DIRECTION('',(2.43413154217988E-17,-0.992355794266928,-0.123409795335924));
#989=DIRECTION('',(0.,0.123409795335924,-0.992355794266928));
#990=DIRECTION('',(-2.43413154217987E-17,0.992355794266928,0.123409795335924));
#991=DIRECTION('',(1.,0.,0.));
#992=DIRECTION('',(-2.43413154217987E-17,0.992355794266928,0.123409795335924));
#993=DIRECTION('',(-1.,0.,0.));
#994=DIRECTION('',(1.,2.44482290379922E-17,6.48033457673524E-19));
#995=DIRECTION('',(3.37803610386805E-34,-0.123409795335924,0.992355794266928));
#996=DIRECTION('',(1.,2.45214749477649E-17,5.90526334890661E-20));
#997=DIRECTION('',(-3.37803610386805E-34,-0.123409795335924,0.992355794266928));
#998=DIRECTION('',(0.,0.123409795335924,-0.992355794266928));
#999=DIRECTION('',(-1.,-2.45288187587801E-17,0.));
#1000=DIRECTION('',(0.,0.123409795335924,-0.992355794266928));
#1001=DIRECTION('',(-1.,-2.45288187587801E-17,0.));
#1002=DIRECTION('',(2.43413154217987E-17,-0.992355794266928,-0.123409795335924));
#1003=DIRECTION('',(1.,0.,0.));
#1004=DIRECTION('',(2.43413154217987E-17,-0.992355794266928,-0.123409795335924));
#1005=DIRECTION('',(-1.,0.,0.));
#1006=DIRECTION('',(1.,0.,0.));
#1007=DIRECTION('',(0.,-1.,0.));
#1008=DIRECTION('',(0.,0.,1.));
#1009=DIRECTION('',(0.,-1.,0.));
#1010=DIRECTION('',(0.,0.,-1.));
#1011=DIRECTION('',(0.,-1.,0.));
#1012=DIRECTION('',(0.,-0.707106781186548,0.707106781186548));
#1013=DIRECTION('',(0.,-0.707106781186548,-0.707106781186548));
#1014=DIRECTION('',(1.,0.,0.));
#1015=DIRECTION('',(0.,-0.707106781186548,0.707106781186548));
#1016=DIRECTION('',(-1.,0.,0.));
#1017=DIRECTION('',(0.,-0.707106781186548,-0.707106781186548));
#1018=DIRECTION('',(0.,-0.707106781186548,0.707106781186548));
#1019=DIRECTION('',(-1.,0.,0.));
#1020=DIRECTION('',(0.,0.707106781186548,-0.707106781186548));
#1021=DIRECTION('',(-1.,4.14262322621327E-16,-4.14262322621327E-16));
#1022=DIRECTION('',(0.,1.,0.));
#1023=DIRECTION('',(1.,0.,0.));
#1024=DIRECTION('',(0.,-1.,0.));
#1025=DIRECTION('',(1.,0.,0.));
#1026=DIRECTION('',(0.,-1.,0.));
#1027=DIRECTION('',(1.,0.,0.));
#1028=DIRECTION('',(0.,-1.,0.));
#1029=DIRECTION('',(1.,0.,0.));
#1030=DIRECTION('',(0.,-1.,0.));
#1031=DIRECTION('',(1.,0.,0.));
#1032=DIRECTION('',(0.,-1.,0.));
#1033=DIRECTION('',(1.,0.,0.));
#1034=DIRECTION('',(0.,-1.,0.));
#1035=DIRECTION('',(0.942809041582063,0.,-0.333333333333335));
#1036=DIRECTION('',(0.,-1.,0.));
#1037=DIRECTION('',(0.942809041582064,0.,-0.33333333333333));
#1038=DIRECTION('',(0.,-1.,0.));
#1039=DIRECTION('',(0.333333333333335,0.,0.942809041582063));
#1040=DIRECTION('',(1.,0.,0.));
#1041=DIRECTION('',(-0.707106781186543,0.,-0.707106781186553));
#1042=DIRECTION('',(-0.707106781186548,0.,0.707106781186548));
#1043=DIRECTION('',(1.,0.,0.));
#1044=DIRECTION('',(0.707106781186548,0.,0.707106781186548));
#1045=DIRECTION('',(-1.97239735756317E-16,0.,1.));
#1046=DIRECTION('',(0.707106781186553,0.,-0.707106781186543));
#1047=DIRECTION('',(0.,0.,-1.));
#1048=DIRECTION('',(-1.,0.,-4.14262322621327E-16));
#1049=DIRECTION('',(0.,0.,1.));
#1050=DIRECTION('',(-1.,0.,-4.14262322621327E-16));
#1051=DIRECTION('',(0.,1.,0.));
#1052=DIRECTION('',(1.,0.,0.));
#1053=DIRECTION('',(0.,1.,0.));
#1054=DIRECTION('',(1.,0.,0.));
#1055=DIRECTION('',(1.,0.,0.));
#1056=DIRECTION('',(0.,0.,1.));
#1057=DIRECTION('',(1.,0.,0.));
#1058=DIRECTION('',(0.,0.,1.));
#1059=DIRECTION('',(-1.,0.,0.));
#1060=DIRECTION('',(1.,0.,0.));
#1061=DIRECTION('',(0.,-1.,0.));
#1062=DIRECTION('',(0.,0.,-1.));
#1063=DIRECTION('',(1.,0.,0.));
#1064=DIRECTION('',(0.,-1.,0.));
#1065=DIRECTION('',(0.,-1.,0.));
#1066=DIRECTION('',(0.,1.,0.));
#1067=DIRECTION('',(0.,-1.,0.));
#1068=DIRECTION('',(0.,-1.,0.));
#1069=DIRECTION('',(1.,0.,0.));
#1070=DIRECTION('',(0.,-1.,0.));
#1071=DIRECTION('',(0.,0.,-1.));
#1072=DIRECTION('',(0.,1.,0.));
#1073=DIRECTION('',(-1.,0.,0.));
#1074=DIRECTION('',(0.,1.,0.));
#1075=DIRECTION('',(1.,0.,4.14262322621327E-16));
#1076=DIRECTION('',(0.,-1.,0.));
#1077=DIRECTION('',(1.,0.,1.97239735756317E-16));
#1078=DIRECTION('',(1.97239735756317E-16,0.,-1.));
#1079=DIRECTION('',(-1.95731994637459E-16,-0.123409795335924,0.992355794266928));
#1080=DIRECTION('',(0.,-1.,0.));
#1081=DIRECTION('',(0.,1.,0.));
#1082=DIRECTION('',(0.,0.,-1.));
#1083=DIRECTION('',(0.,1.,0.));
#1084=DIRECTION('',(-1.,0.,-1.97239735756317E-16));
#1085=DIRECTION('',(0.,-1.,0.));
#1086=DIRECTION('',(0.,1.,0.));
#1087=DIRECTION('',(0.,0.,-1.));
#1088=DIRECTION('',(0.,1.,0.));
#1089=DIRECTION('',(0.,1.,0.));
#1090=DIRECTION('',(-1.,0.,-1.97239735756317E-16));
#1091=DIRECTION('',(0.,-1.,0.));
#1092=DIRECTION('',(0.,0.,-1.));
#1093=DIRECTION('',(0.,1.,0.));
#1094=DIRECTION('',(0.,-1.,0.));
#1095=DIRECTION('',(1.,0.,0.));
#1096=DIRECTION('',(0.,-1.,0.));
#1097=DIRECTION('',(0.,0.,-1.));
#1098=DIRECTION('',(0.,1.,0.));
#1099=DIRECTION('',(0.,-1.,0.));
#1100=DIRECTION('',(0.,-1.,0.));
#1101=DIRECTION('',(-1.,0.,0.));
#1102=DIRECTION('',(-4.14262322621327E-16,0.,1.));
#1103=DIRECTION('',(1.,0.,4.14262322621327E-16));
#1104=DIRECTION('',(-1.,0.,-4.14262322621327E-16));
#1105=DIRECTION('',(0.,-1.,0.));
#1106=DIRECTION('',(0.,-1.,0.));
#1107=DIRECTION('',(0.,-1.,0.));
#1108=DIRECTION('',(1.,0.,0.));
#1109=DIRECTION('',(0.,0.,-1.));
#1110=DIRECTION('',(-1.,0.,-4.14262322621327E-16));
#1111=DIRECTION('',(-1.,0.,-4.14262322621327E-16));
#1112=DIRECTION('',(-1.,0.,0.));
#1113=DIRECTION('',(0.,1.,0.));
#1114=DIRECTION('',(-1.,0.,0.));
#1115=DIRECTION('',(0.,1.,0.));
#1116=DIRECTION('',(-1.,0.,0.));
#1117=DIRECTION('',(0.,1.,0.));
#1118=DIRECTION('',(0.,-1.,0.));
#1119=DIRECTION('',(1.,0.,0.));
#1120=DIRECTION('',(0.,-1.,0.));
#1121=DIRECTION('',(0.,0.,-1.));
#1122=DIRECTION('',(0.,-1.,0.));
#1123=DIRECTION('',(1.,0.,0.));
#1124=DIRECTION('',(0.,-1.,0.));
#1125=DIRECTION('',(-4.14262322621327E-16,0.,1.));
#1126=DIRECTION('',(1.,0.,4.14262322621327E-16));
#1127=DIRECTION('',(-1.,0.,-4.14262322621327E-16));
#1128=DIRECTION('',(-1.,0.,-4.14262322621327E-16));
#1129=DIRECTION('',(-4.14262322621327E-16,0.,1.));
#1130=DIRECTION('',(1.,0.,4.14262322621327E-16));
#1131=DIRECTION('',(4.14262322621327E-16,0.,-1.));
#1132=DIRECTION('',(0.,-1.,0.));
#1133=DIRECTION('',(-1.,0.,0.));
#1134=DIRECTION('',(0.,-1.,0.));
#1135=DIRECTION('',(-1.,0.,0.));
#1136=DIRECTION('',(0.,-1.,0.));
#1137=DIRECTION('',(0.333333333333335,0.,0.942809041582063));
#1138=DIRECTION('',(0.,-1.,0.));
#1139=DIRECTION('',(1.,0.,0.));
#1140=DIRECTION('',(0.,-1.,0.));
#1141=DIRECTION('',(-1.,0.,0.));
#1142=DIRECTION('',(0.,-1.,0.));
#1143=DIRECTION('',(0.942809041582063,0.,-0.333333333333335));
#1144=DIRECTION('',(0.,-1.,0.));
#1145=DIRECTION('',(1.,0.,0.));
#1146=DIRECTION('',(1.,2.41552453989009E-17,3.00395675441135E-18));
#1147=DIRECTION('',(2.41552453989009E-17,-1.,0.));
#1148=DIRECTION('',(2.43413154217987E-17,-0.992355794266928,-0.123409795335924));
#1149=DIRECTION('',(3.37803610386805E-34,-0.123409795335924,0.992355794266928));
#1150=DIRECTION('',(2.43413154217987E-17,-0.992355794266928,-0.123409795335924));
#1151=DIRECTION('',(-2.37407118530324E-18,0.123409795335924,-0.992355794266928));
#1152=DIRECTION('',(0.,0.992355794266928,0.123409795335924));
#1153=DIRECTION('',(2.43413154217987E-17,-0.992355794266928,-0.123409795335924));
#1154=DIRECTION('',(1.,2.44482290379922E-17,6.48033457673524E-19));
#1155=DIRECTION('',(1.,2.41552453989009E-17,3.00395675441135E-18));
#1156=DIRECTION('',(2.41552453989009E-17,-1.,0.));
#1157=DIRECTION('',(2.43413154217987E-17,-0.992355794266928,-0.123409795335924));
#1158=DIRECTION('',(-3.37803610386805E-34,-0.123409795335924,0.992355794266928));
#1159=DIRECTION('',(-2.96758898162906E-18,0.123409795335924,-0.992355794266928));
#1160=DIRECTION('',(0.,0.992355794266928,0.123409795335924));
#1161=DIRECTION('',(1.,2.45214749477649E-17,5.90526334890661E-20));
#1162=DIRECTION('',(-2.43413154217987E-17,0.992355794266928,0.123409795335924));
#1163=DIRECTION('',(1.,2.41552453989009E-17,3.00395675441135E-18));
#1164=DIRECTION('',(0.704388592392881,-0.0875980696907019,0.704388592392891));
#1165=DIRECTION('',(-0.704388592392891,-0.0875980696907007,0.704388592392881));
#1166=DIRECTION('',(-0.704388592392886,0.0875980696907013,-0.704388592392886));
#1167=DIRECTION('',(0.704388592392886,0.0875980696907013,-0.704388592392886));
#1168=DIRECTION('',(-2.43413154217987E-17,0.992355794266928,0.123409795335924));
#1169=DIRECTION('',(0.,-0.123409795335924,0.992355794266928));
#1170=DIRECTION('',(-2.43413154217987E-17,0.992355794266928,0.123409795335924));
#1171=DIRECTION('',(-1.,0.,0.));
#1172=DIRECTION('',(-2.43413154217987E-17,0.992355794266928,0.123409795335924));
#1173=DIRECTION('',(1.,2.41552453989009E-17,3.00395675441135E-18));
#1174=DIRECTION('',(-2.43413154217987E-17,0.992355794266928,0.123409795335924));
#1175=DIRECTION('',(0.,-0.123409795335924,0.992355794266928));
#1176=DIRECTION('',(2.43413154217987E-17,-0.992355794266928,-0.123409795335924));
#1177=DIRECTION('',(1.,0.,0.));
#1178=DIRECTION('',(-2.43413154217987E-17,0.992355794266928,0.123409795335924));
#1179=DIRECTION('',(1.,2.41552453989009E-17,3.00395675441135E-18));
#1180=DIRECTION('',(-2.43413154217987E-17,0.992355794266928,0.123409795335924));
#1181=DIRECTION('',(0.,-0.123409795335924,0.992355794266928));
#1182=DIRECTION('',(-2.43413154217987E-17,0.992355794266928,0.123409795335924));
#1183=DIRECTION('',(1.,0.,0.));
#1184=DIRECTION('',(-2.43413154217987E-17,0.992355794266928,0.123409795335924));
#1185=DIRECTION('',(1.,2.41552453989009E-17,3.00395675441135E-18));
#1186=DIRECTION('',(-2.43413154217987E-17,0.992355794266928,0.123409795335924));
#1187=DIRECTION('',(0.,-0.123409795335924,0.992355794266928));
#1188=DIRECTION('',(2.43413154217987E-17,-0.992355794266928,-0.123409795335924));
#1189=DIRECTION('',(-1.,0.,0.));
#1190=DIRECTION('',(-2.43413154217987E-17,0.992355794266928,0.123409795335924));
#1191=DIRECTION('',(1.,2.41552453989009E-17,3.00395675441135E-18));
#1192=DIRECTION('',(0.,-1.,0.));
#1193=DIRECTION('',(-1.,0.,0.));
#1194=DIRECTION('',(0.,-1.,0.));
#1195=DIRECTION('',(1.,0.,0.));
#1196=DIRECTION('',(0.,-1.,0.));
#1197=DIRECTION('',(1.,0.,0.));
#1198=DIRECTION('',(0.,-1.,0.));
#1199=DIRECTION('',(-1.,0.,0.));
#1200=DIRECTION('',(0.,-1.,0.));
#1201=DIRECTION('',(1.,0.,0.));
#1202=DIRECTION('',(0.,-1.,0.));
#1203=DIRECTION('',(1.,0.,0.));
#1204=DIRECTION('',(0.,-1.,0.));
#1205=DIRECTION('',(-1.,0.,0.));
#1206=DIRECTION('',(0.,-1.,0.));
#1207=DIRECTION('',(1.,0.,0.));
#1208=DIRECTION('',(0.,-1.,0.));
#1209=DIRECTION('',(1.,0.,0.));
#1210=DIRECTION('',(0.,-1.,0.));
#1211=DIRECTION('',(-1.,0.,0.));
#1212=DIRECTION('',(0.,-1.,0.));
#1213=DIRECTION('',(1.,0.,0.));
#1214=DIRECTION('',(0.,-1.,0.));
#1215=DIRECTION('',(1.,0.,0.));
#1216=DIRECTION('',(0.,-1.,0.));
#1217=DIRECTION('',(-1.,0.,0.));
#1218=DIRECTION('',(0.,-1.,0.));
#1219=DIRECTION('',(1.,0.,0.));
#1220=DIRECTION('',(0.,-1.,0.));
#1221=DIRECTION('',(1.,0.,0.));
#1222=DIRECTION('',(-0.707106781186552,0.,0.707106781186543));
#1223=DIRECTION('',(0.,-1.,0.));
#1224=DIRECTION('',(-0.707106781186543,0.,-0.707106781186552));
#1225=DIRECTION('',(0.,1.,0.));
#1226=DIRECTION('',(0.707106781186548,0.,0.707106781186548));
#1227=DIRECTION('',(0.,1.,0.));
#1228=DIRECTION('',(0.707106781186548,0.,-0.707106781186548));
#1229=DIRECTION('',(0.,-1.,0.));
#1230=CARTESIAN_POINT('',(0.,0.,0.));
#1231=CARTESIAN_POINT('',(0.18525,0.0025,0.));
#1232=CARTESIAN_POINT('',(0.18525,0.,0.));
#1233=CARTESIAN_POINT('',(0.18525,0.,-0.06836));
#1234=CARTESIAN_POINT('',(0.18525,0.,0.06836));
#1235=CARTESIAN_POINT('',(0.18525,0.0025,-0.06836));
#1236=CARTESIAN_POINT('',(0.18525,0.0271582119166348,-0.06836));
#1237=CARTESIAN_POINT('',(0.18525,0.0184108630566712,0.00197868180423356));
#1238=CARTESIAN_POINT('',(0.18525,0.0101556536448896,0.06836));
#1239=CARTESIAN_POINT('',(0.18525,0.,0.06836));
#1240=CARTESIAN_POINT('',(9.81475,0.01775,1.95851956975535E-15));
#1241=CARTESIAN_POINT('',(-0.17825,0.0256361314326486,-0.0634135094401315));
#1242=CARTESIAN_POINT('',(-0.17675,0.0256361314326486,-0.0634135094401315));
#1243=CARTESIAN_POINT('',(0.17825,0.0098638685673515,0.0634135094401315));
#1244=CARTESIAN_POINT('',(0.17675,0.0098638685673515,0.0634135094401315));
#1245=CARTESIAN_POINT('',(0.,0.025895292002854,-0.0654974566080921));
#1246=CARTESIAN_POINT('',(-0.18035,0.025895292002854,-0.0654974566080921));
#1247=CARTESIAN_POINT('',(0.18035,0.025895292002854,-0.0654974566080921));
#1248=CARTESIAN_POINT('',(-0.18035,0.01775,-2.78503765942371E-17));
#1249=CARTESIAN_POINT('',(-0.18035,0.00960470799714605,0.0654974566080921));
#1250=CARTESIAN_POINT('',(4.22254512983506E-35,0.00960470799714606,0.0654974566080921));
#1251=CARTESIAN_POINT('',(0.18035,0.00960470799714606,0.0654974566080921));
#1252=CARTESIAN_POINT('',(0.18035,0.01775,-2.76166309260542E-17));
#1253=CARTESIAN_POINT('',(-0.17525,0.0178832623038675,-0.00107158122287037));
#1254=CARTESIAN_POINT('',(-0.17525,0.0102436043206367,0.06036));
#1255=CARTESIAN_POINT('',(-0.17525,0.0252563956793633,-0.06036));
#1256=CARTESIAN_POINT('',(3.0504144988534E-20,0.0252563956793633,-0.06036));
#1257=CARTESIAN_POINT('',(0.17525,0.0252563956793633,-0.06036));
#1258=CARTESIAN_POINT('',(0.17525,0.0178832623038675,-0.00107158122287037));
#1259=CARTESIAN_POINT('',(0.17525,0.0102436043206367,0.06036));
#1260=CARTESIAN_POINT('',(3.98750183290117E-19,0.0102436043206367,0.06036));
#1261=CARTESIAN_POINT('',(-0.17825,0.00986386856735149,0.0634135094401315));
#1262=CARTESIAN_POINT('',(-0.17675,0.00986386856735149,0.0634135094401315));
#1263=CARTESIAN_POINT('',(0.17825,0.0256361314326486,-0.0634135094401315));
#1264=CARTESIAN_POINT('',(0.17675,0.0256361314326486,-0.0634135094401315));
#1265=CARTESIAN_POINT('',(0.11425,0.02,-0.05636));
#1266=CARTESIAN_POINT('',(0.11425,0.0102573481827239,-0.055738674091362));
#1267=CARTESIAN_POINT('',(0.11425,0.0102573481827239,-0.06036));
#1268=CARTESIAN_POINT('',(0.11425,0.0102573481827239,-0.051117348182724));
#1269=CARTESIAN_POINT('',(0.11425,0.0265,-0.06036));
#1270=CARTESIAN_POINT('',(0.11425,0.0025,-0.06036));
#1271=CARTESIAN_POINT('',(0.11425,0.0025,0.));
#1272=CARTESIAN_POINT('',(0.11425,0.0025,-0.0477742135623731));
#1273=CARTESIAN_POINT('',(0.11425,0.02,-0.0477742135623731));
#1274=CARTESIAN_POINT('',(0.11425,0.0069142135623731,-0.0477742135623731));
#1275=CARTESIAN_POINT('',(0.11425,0.02,-0.06086));
#1276=CARTESIAN_POINT('',(0.,0.02,-0.06086));
#1277=CARTESIAN_POINT('',(0.11575,0.02,-0.06086));
#1278=CARTESIAN_POINT('',(0.11575,0.0075,-0.04836));
#1279=CARTESIAN_POINT('',(0.11575,0.0102573481827239,-0.051117348182724));
#1280=CARTESIAN_POINT('',(0.11925,0.0102573481827239,-0.051117348182724));
#1281=CARTESIAN_POINT('',(0.11375,0.0055,-0.04636));
#1282=CARTESIAN_POINT('',(0.115164213562373,0.006,-0.04686));
#1283=CARTESIAN_POINT('',(0.147792893218813,0.006,-0.04686));
#1284=CARTESIAN_POINT('',(0.17525,0.006,-0.04686));
#1285=CARTESIAN_POINT('',(0.17525,-0.00718,-0.03368));
#1286=CARTESIAN_POINT('',(0.17525,0.0075,-0.04836));
#1287=CARTESIAN_POINT('',(-1.03565580655331E-17,0.0075,-0.04836));
#1288=CARTESIAN_POINT('',(0.,0.,0.));
#1289=CARTESIAN_POINT('',(0.16925,0.,0.05436));
#1290=CARTESIAN_POINT('',(0.17525,0.,0.05436));
#1291=CARTESIAN_POINT('',(0.16925,0.,-0.02886));
#1292=CARTESIAN_POINT('',(0.17525,0.,-0.02886));
#1293=CARTESIAN_POINT('',(0.09625,0.,-0.05436));
#1294=CARTESIAN_POINT('',(0.10225,0.,-0.05436));
#1295=CARTESIAN_POINT('',(-0.16925,0.,-0.05436));
#1296=CARTESIAN_POINT('',(-0.16325,0.,-0.05436));
#1297=CARTESIAN_POINT('',(-0.16925,0.,0.05436));
#1298=CARTESIAN_POINT('',(-0.16325,0.,0.05436));
#1299=CARTESIAN_POINT('',(0.18125,0.,-0.04636));
#1300=CARTESIAN_POINT('',(0.182664213562373,0.,-0.04686));
#1301=CARTESIAN_POINT('',(0.11375,0.,-0.04636));
#1302=CARTESIAN_POINT('',(0.115164213562373,0.,-0.04686));
#1303=CARTESIAN_POINT('',(0.11375,0.,-0.06636));
#1304=CARTESIAN_POINT('',(0.11425,0.,-0.0649457864376269));
#1305=CARTESIAN_POINT('',(2.77555756156289E-17,0.,-0.07036));
#1306=CARTESIAN_POINT('',(-0.18325,0.,-0.07036));
#1307=CARTESIAN_POINT('',(0.18325,0.,-0.07036));
#1308=CARTESIAN_POINT('',(0.18325,0.,-0.07036));
#1309=CARTESIAN_POINT('',(0.18525,0.,0.06836));
#1310=CARTESIAN_POINT('',(0.18325,0.,0.07036));
#1311=CARTESIAN_POINT('',(0.,0.,0.07036));
#1312=CARTESIAN_POINT('',(-0.18325,0.,0.07036));
#1313=CARTESIAN_POINT('',(-0.18325,0.,0.07036));
#1314=CARTESIAN_POINT('',(-0.18525,0.,0.06836));
#1315=CARTESIAN_POINT('',(-0.18525,0.,0.));
#1316=CARTESIAN_POINT('',(-0.18525,0.,-0.06836));
#1317=CARTESIAN_POINT('',(-0.18525,0.,-0.06836));
#1318=CARTESIAN_POINT('',(0.18275,0.,-0.05811));
#1319=CARTESIAN_POINT('',(0.18275,0.,-0.04836));
#1320=CARTESIAN_POINT('',(0.18275,0.,-0.06786));
#1321=CARTESIAN_POINT('',(0.14925,0.,-0.06786));
#1322=CARTESIAN_POINT('',(0.11575,0.,-0.06786));
#1323=CARTESIAN_POINT('',(0.11575,0.,-0.05811));
#1324=CARTESIAN_POINT('',(0.11575,0.,-0.04836));
#1325=CARTESIAN_POINT('',(0.14925,0.,-0.04836));
#1326=CARTESIAN_POINT('',(0.,0.0025,0.));
#1327=CARTESIAN_POINT('',(0.11375,0.0025,-0.04636));
#1328=CARTESIAN_POINT('',(0.115164213562373,0.0025,-0.04686));
#1329=CARTESIAN_POINT('',(0.,0.0025,-0.06036));
#1330=CARTESIAN_POINT('',(-0.17525,0.0025,-0.06036));
#1331=CARTESIAN_POINT('',(-0.17525,0.0025,0.));
#1332=CARTESIAN_POINT('',(-0.17525,0.0025,0.06036));
#1333=CARTESIAN_POINT('',(0.,0.0025,0.06036));
#1334=CARTESIAN_POINT('',(0.17525,0.0025,0.06036));
#1335=CARTESIAN_POINT('',(0.17525,0.0025,0.));
#1336=CARTESIAN_POINT('',(0.17525,0.0025,-0.04686));
#1337=CARTESIAN_POINT('',(0.,0.0025,-0.04686));
#1338=CARTESIAN_POINT('',(0.17525,0.0265,0.));
#1339=CARTESIAN_POINT('',(0.17525,0.0195,0.));
#1340=CARTESIAN_POINT('',(0.17525,0.0195,-0.05736));
#1341=CARTESIAN_POINT('',(0.17525,0.0195,-0.05886));
#1342=CARTESIAN_POINT('',(0.17525,0.0105,-0.05736));
#1343=CARTESIAN_POINT('',(0.17525,0.0105,-0.04836));
#1344=CARTESIAN_POINT('',(0.17525,0.0265,-0.04836));
#1345=CARTESIAN_POINT('',(0.17525,0.0265,-0.04686));
#1346=CARTESIAN_POINT('',(0.17525,0.0265,0.06036));
#1347=CARTESIAN_POINT('',(0.17525,0.0265,-0.06036));
#1348=CARTESIAN_POINT('',(0.17525,0.0193741196746494,-0.06036));
#1349=CARTESIAN_POINT('',(0.17525,0.0105,-0.05886));
#1350=CARTESIAN_POINT('',(0.,0.0265,-0.06036));
#1351=CARTESIAN_POINT('',(0.11925,0.0102573481827239,-0.06036));
#1352=CARTESIAN_POINT('',(0.11575,0.0102573481827239,-0.06036));
#1353=CARTESIAN_POINT('',(0.11575,0.0195,-0.06036));
#1354=CARTESIAN_POINT('',(0.11575,0.0193741196746494,-0.06036));
#1355=CARTESIAN_POINT('',(0.11425,0.0193741196746494,-0.06036));
#1356=CARTESIAN_POINT('',(-0.17525,0.0265,-0.06036));
#1357=CARTESIAN_POINT('',(-0.18525,0.0025,0.));
#1358=CARTESIAN_POINT('',(-0.18525,0.0186431202148402,0.000111068815802318));
#1359=CARTESIAN_POINT('',(-0.18525,0.0271582119166348,-0.06836));
#1360=CARTESIAN_POINT('',(-0.18525,0.0101556536448896,0.06836));
#1361=CARTESIAN_POINT('',(-0.18525,0.,-0.06836));
#1362=CARTESIAN_POINT('',(-0.18525,0.0025,0.06836));
#1363=CARTESIAN_POINT('',(2.77555756156289E-17,0.0025,-0.07036));
#1364=CARTESIAN_POINT('',(0.18525,0.0274069327807622,-0.07036));
#1365=CARTESIAN_POINT('',(0.18325,0.0274069327807622,-0.07036));
#1366=CARTESIAN_POINT('',(-0.18325,0.0274069327807622,-0.07036));
#1367=CARTESIAN_POINT('',(0.18325,0.0025,-0.07036));
#1368=CARTESIAN_POINT('',(-0.18325,0.0274069327807622,-0.07036));
#1369=CARTESIAN_POINT('',(0.,0.0025,0.07036));
#1370=CARTESIAN_POINT('',(0.18325,0.00990693278076224,0.07036));
#1371=CARTESIAN_POINT('',(0.18325,0.00990693278076224,0.07036));
#1372=CARTESIAN_POINT('',(9.81475,0.00990693278076224,0.070360000000002));
#1373=CARTESIAN_POINT('',(-0.18325,0.00990693278076224,0.07036));
#1374=CARTESIAN_POINT('',(-0.18325,0.0025,0.07036));
#1375=CARTESIAN_POINT('',(0.,0.0265,0.06036));
#1376=CARTESIAN_POINT('',(-0.17525,0.0265,0.06036));
#1377=CARTESIAN_POINT('',(-0.17525,0.0265,0.));
#1378=CARTESIAN_POINT('',(0.147792893218813,0.02,-0.04686));
#1379=CARTESIAN_POINT('',(0.115164213562373,0.02,-0.04686));
#1380=CARTESIAN_POINT('',(0.11375,0.02,-0.04636));
#1381=CARTESIAN_POINT('',(0.14925,0.0195,-0.04836));
#1382=CARTESIAN_POINT('',(0.14925,0.0105,-0.04836));
#1383=CARTESIAN_POINT('',(0.18275,0.0105,-0.04836));
#1384=CARTESIAN_POINT('',(0.18275,0.0195,-0.04836));
#1385=CARTESIAN_POINT('',(0.11575,0.0195,-0.04836));
#1386=CARTESIAN_POINT('',(0.,0.0195,-1.38777878078145E-17));
#1387=CARTESIAN_POINT('',(0.18275,0.0195,-0.05811));
#1388=CARTESIAN_POINT('',(0.18275,0.0195,-0.05736));
#1389=CARTESIAN_POINT('',(0.18275,0.0195,-0.05886));
#1390=CARTESIAN_POINT('',(2.37620868255593E-17,0.0195,-0.05736));
#1391=CARTESIAN_POINT('',(0.18275,0.0195,-0.05886));
#1392=CARTESIAN_POINT('',(0.18275,0.0195,-0.05811));
#1393=CARTESIAN_POINT('',(0.18275,0.0105,-0.05736));
#1394=CARTESIAN_POINT('',(0.18275,0.0105,-0.05886));
#1395=CARTESIAN_POINT('',(0.18275,0.0105,-0.06786));
#1396=CARTESIAN_POINT('',(0.18275,0.0195,-0.06786));
#1397=CARTESIAN_POINT('',(0.11575,0.0195,-0.05811));
#1398=CARTESIAN_POINT('',(0.11575,0.0102573481827239,-0.05811));
#1399=CARTESIAN_POINT('',(0.11575,0.0195,-0.06786));
#1400=CARTESIAN_POINT('',(0.11575,0.0105,-0.06786));
#1401=CARTESIAN_POINT('',(0.11575,0.0105,-0.05886));
#1402=CARTESIAN_POINT('',(0.14925,0.0195,-0.06786));
#1403=CARTESIAN_POINT('',(0.11575,0.0105,-0.06786));
#1404=CARTESIAN_POINT('',(2.37620868255593E-17,0.0105,-0.05736));
#1405=CARTESIAN_POINT('',(0.14925,0.0105,-0.05886));
#1406=CARTESIAN_POINT('',(0.11925,0.0102573481827239,-0.055738674091362));
#1407=CARTESIAN_POINT('',(0.11375,0.004,-0.06636));
#1408=CARTESIAN_POINT('',(0.11375,0.004,-0.06636));
#1409=CARTESIAN_POINT('',(0.11425,0.004,-0.0649457864376269));
#1410=CARTESIAN_POINT('',(0.,0.004,-1.38777878078145E-17));
#1411=CARTESIAN_POINT('',(0.18125,0.004,-0.04636));
#1412=CARTESIAN_POINT('',(0.18125,0.004,-0.04636));
#1413=CARTESIAN_POINT('',(0.182664213562373,0.004,-0.04686));
#1414=CARTESIAN_POINT('',(0.,0.004,-1.38777878078145E-17));
#1415=CARTESIAN_POINT('',(-0.18035,0.0186431202148402,0.000111068815802304));
#1416=CARTESIAN_POINT('',(-0.18035,0.0267884122176942,-0.0653863877922897));
#1417=CARTESIAN_POINT('',(-0.18035,0.0267884122176942,-0.0653863877922897));
#1418=CARTESIAN_POINT('',(-0.18035,0.0186431202148402,0.000111068815802304));
#1419=CARTESIAN_POINT('',(-0.18035,0.0104978282119863,0.0656085254238944));
#1420=CARTESIAN_POINT('',(-0.18035,0.0104978282119863,0.0656085254238944));
#1421=CARTESIAN_POINT('',(-2.19071838796189E-20,0.0267884122176942,-0.0653863877922897));
#1422=CARTESIAN_POINT('',(0.18035,0.0267884122176942,-0.0653863877922897));
#1423=CARTESIAN_POINT('',(0.18035,0.0267884122176942,-0.0653863877922897));
#1424=CARTESIAN_POINT('',(-2.19071838796189E-20,0.0267884122176942,-0.0653863877922897));
#1425=CARTESIAN_POINT('',(0.18035,0.0186431202148402,0.000111068815802304));
#1426=CARTESIAN_POINT('',(0.18035,0.0104978282119863,0.0656085254238944));
#1427=CARTESIAN_POINT('',(0.18035,0.0104978282119863,0.0656085254238944));
#1428=CARTESIAN_POINT('',(0.18035,0.0186431202148402,0.000111068815802304));
#1429=CARTESIAN_POINT('',(-2.19071838796189E-20,0.0104978282119863,0.0656085254238944));
#1430=CARTESIAN_POINT('',(-2.19071838796189E-20,0.0104978282119863,0.0656085254238944));
#1431=CARTESIAN_POINT('',(-4.50662789710111E-19,0.0186431202148402,0.000111068815802361));
#1432=CARTESIAN_POINT('',(0.127833988799905,0.0342984918768514,-0.125776011200096));
#1433=CARTESIAN_POINT('',(-0.127833988799902,0.0342984918768516,-0.125776011200097));
#1434=CARTESIAN_POINT('',(-0.127722067706227,0.00300145512910634,0.125887932293773));
#1435=CARTESIAN_POINT('',(0.127722067706227,0.00300145512910635,0.125887932293773));
#1436=CARTESIAN_POINT('',(0.17825,0.00390973380174993,0.062673050668116));
#1437=CARTESIAN_POINT('',(0.17825,0.00390973380174993,0.062673050668116));
#1438=CARTESIAN_POINT('',(0.17675,0.00390973380174993,0.062673050668116));
#1439=CARTESIAN_POINT('',(8.87895711986826E-16,0.0117958652343984,-0.000740458772015542));
#1440=CARTESIAN_POINT('',(-0.17825,0.00390973380174992,0.062673050668116));
#1441=CARTESIAN_POINT('',(-0.17825,0.00390973380174992,0.062673050668116));
#1442=CARTESIAN_POINT('',(-0.17675,0.00390973380174992,0.062673050668116));
#1443=CARTESIAN_POINT('',(8.87895711986826E-16,0.0117958652343984,-0.000740458772015542));
#1444=CARTESIAN_POINT('',(-0.17825,0.0196819966670469,-0.0641539682121471));
#1445=CARTESIAN_POINT('',(-0.17825,0.0196819966670469,-0.0641539682121471));
#1446=CARTESIAN_POINT('',(-0.17675,0.0196819966670469,-0.0641539682121471));
#1447=CARTESIAN_POINT('',(8.87895711986826E-16,0.0117958652343984,-0.000740458772015542));
#1448=CARTESIAN_POINT('',(0.17825,0.0196819966670469,-0.0641539682121471));
#1449=CARTESIAN_POINT('',(0.17825,0.0196819966670469,-0.0641539682121471));
#1450=CARTESIAN_POINT('',(0.17675,0.0196819966670469,-0.0641539682121471));
#1451=CARTESIAN_POINT('',(8.87895711986826E-16,0.0117958652343984,-0.000740458772015542));
#1452=CARTESIAN_POINT('',(-0.16925,0.001,0.05436));
#1453=CARTESIAN_POINT('',(-0.16925,0.001,0.05436));
#1454=CARTESIAN_POINT('',(-0.16325,0.001,0.05436));
#1455=CARTESIAN_POINT('',(0.,0.001,0.));
#1456=CARTESIAN_POINT('',(-0.16925,0.001,-0.05436));
#1457=CARTESIAN_POINT('',(-0.16925,0.001,-0.05436));
#1458=CARTESIAN_POINT('',(-0.16325,0.001,-0.05436));
#1459=CARTESIAN_POINT('',(0.,0.001,0.));
#1460=CARTESIAN_POINT('',(0.09625,0.001,-0.05436));
#1461=CARTESIAN_POINT('',(0.09625,0.001,-0.05436));
#1462=CARTESIAN_POINT('',(0.10225,0.001,-0.05436));
#1463=CARTESIAN_POINT('',(0.,0.001,0.));
#1464=CARTESIAN_POINT('',(0.16925,0.001,-0.02886));
#1465=CARTESIAN_POINT('',(0.16925,0.001,-0.02886));
#1466=CARTESIAN_POINT('',(0.17525,0.001,-0.02886));
#1467=CARTESIAN_POINT('',(0.,0.001,0.));
#1468=CARTESIAN_POINT('',(0.16925,0.001,0.05436));
#1469=CARTESIAN_POINT('',(0.16925,0.001,0.05436));
#1470=CARTESIAN_POINT('',(0.17525,0.001,0.05436));
#1471=CARTESIAN_POINT('',(0.,0.001,0.));
#1472=CARTESIAN_POINT('',(0.18325,0.0025,-0.07036));
#1473=CARTESIAN_POINT('',(-0.18525,0.0025,-0.06836));
#1474=CARTESIAN_POINT('',(0.18525,0.0025,0.06836));
#1475=CARTESIAN_POINT('',(-0.18325,0.0025,0.07036));
#1476=MECHANICAL_DESIGN_GEOMETRIC_PRESENTATION_REPRESENTATION('',(#884),
#1477);
#1477=(
GEOMETRIC_REPRESENTATION_CONTEXT(3)
GLOBAL_UNCERTAINTY_ASSIGNED_CONTEXT((#1478))
GLOBAL_UNIT_ASSIGNED_CONTEXT((#1481,#1480,#1479))
REPRESENTATION_CONTEXT('Part 1','TOP_LEVEL_ASSEMBLY_PART')
);
#1478=UNCERTAINTY_MEASURE_WITH_UNIT(LENGTH_MEASURE(1.E-8),#1481,
'DISTANCE_ACCURACY_VALUE','Maximum Tolerance applied to model');
#1479=(
NAMED_UNIT(*)
SI_UNIT($,.STERADIAN.)
SOLID_ANGLE_UNIT()
);
#1480=(
NAMED_UNIT(*)
PLANE_ANGLE_UNIT()
SI_UNIT($,.RADIAN.)
);
#1481=(
LENGTH_UNIT()
NAMED_UNIT(*)
SI_UNIT($,.METRE.)
);
#1482=PRODUCT_DEFINITION_SHAPE('','',#1483);
#1483=PRODUCT_DEFINITION('','',#1485,#1484);
#1484=PRODUCT_DEFINITION_CONTEXT('',#1491,'design');
#1485=PRODUCT_DEFINITION_FORMATION_WITH_SPECIFIED_SOURCE('','',#1487,
 .NOT_KNOWN.);
#1486=PRODUCT_RELATED_PRODUCT_CATEGORY('','',(#1487));
#1487=PRODUCT('Part 1','Part 1','Part 1',(#1489));
#1488=PRODUCT_CATEGORY('','');
#1489=PRODUCT_CONTEXT('',#1491,'mechanical');
#1490=APPLICATION_PROTOCOL_DEFINITION('international standard',
'ap242_managed_model_based_3d_engineering',2020,#1491);
#1491=APPLICATION_CONTEXT('managed model based 3d engineering');
ENDSEC;
END-ISO-10303-21;
